%FSLAX45Y45*%
G04 Gerber Fmt 4.5, Leading zero omitted, Abs format (unit mm)*
G04 Created by KiCad (PCBNEW 6.0.2+dfsg-1) date 2023-02-09 09:42:43*
%MOMM*%
%LPD*%
G01*
G04 APERTURE LIST*
%TA.AperFunction,Profile*%
%ADD10C,0.150000*%
%TD*%
%ADD11C,0.200000*%
%ADD12C,0.030000*%
%ADD13C,0.040000*%
%ADD14C,0.100000*%
%ADD15C,0.130000*%
G04 APERTURE END LIST*
D10*
X20000000Y-15000000D02*
X10000000Y-15000000D01*
X10000000Y-15000000D02*
X10000000Y-10000000D01*
X10000000Y-10000000D02*
X20000000Y-10000000D01*
X20000000Y-10000000D02*
X20000000Y-15000000D01*
D11*
D12*
X14885000Y-12785000D02*
X14915000Y-12815000D01*
X14915000Y-12785000D02*
X14885000Y-12815000D01*
X16615000Y-13485000D02*
X16645000Y-13515000D01*
X16645000Y-13485000D02*
X16615000Y-13515000D01*
X17385000Y-14485000D02*
X17415000Y-14515000D01*
X17415000Y-14485000D02*
X17385000Y-14515000D01*
X17925000Y-14465000D02*
X17955000Y-14495000D01*
X17955000Y-14465000D02*
X17925000Y-14495000D01*
X18545000Y-14485000D02*
X18575000Y-14515000D01*
X18575000Y-14485000D02*
X18545000Y-14515000D01*
X18845000Y-12575000D02*
X18875000Y-12605000D01*
X18875000Y-12575000D02*
X18845000Y-12605000D01*
X15055000Y-13620000D02*
G75*
G03*
X15055000Y-13620000I-15000J0D01*
G01*
X15055000Y-13730000D02*
G75*
G03*
X15055000Y-13730000I-15000J0D01*
G01*
X15055000Y-13860000D02*
G75*
G03*
X15055000Y-13860000I-15000J0D01*
G01*
X15055000Y-13980000D02*
G75*
G03*
X15055000Y-13980000I-15000J0D01*
G01*
X15175000Y-13620000D02*
G75*
G03*
X15175000Y-13620000I-15000J0D01*
G01*
X15175000Y-13730000D02*
G75*
G03*
X15175000Y-13730000I-15000J0D01*
G01*
X15175000Y-13860000D02*
G75*
G03*
X15175000Y-13860000I-15000J0D01*
G01*
X15175000Y-13980000D02*
G75*
G03*
X15175000Y-13980000I-15000J0D01*
G01*
D13*
X14900000Y-12480000D02*
X14900000Y-12520000D01*
X14880000Y-12500000D02*
X14920000Y-12500000D01*
X15200000Y-12180000D02*
X15200000Y-12220000D01*
X15180000Y-12200000D02*
X15220000Y-12200000D01*
X15800000Y-12480000D02*
X15800000Y-12520000D01*
X15780000Y-12500000D02*
X15820000Y-12500000D01*
X16655000Y-12385000D02*
X16655000Y-12425000D01*
X16635000Y-12405000D02*
X16675000Y-12405000D01*
X16750000Y-12680000D02*
X16750000Y-12720000D01*
X16730000Y-12700000D02*
X16770000Y-12700000D01*
X17500000Y-12380000D02*
X17500000Y-12420000D01*
X17480000Y-12400000D02*
X17520000Y-12400000D01*
X17600000Y-13630000D02*
X17600000Y-13670000D01*
X17580000Y-13650000D02*
X17620000Y-13650000D01*
X18850000Y-14180000D02*
X18850000Y-14220000D01*
X18830000Y-14200000D02*
X18870000Y-14200000D01*
D14*
X12185356Y-10835356D02*
X12185356Y-10764644D01*
X12114644Y-10764644D01*
X12114644Y-10835356D01*
X12185356Y-10835356D01*
X12185356Y-11335356D02*
X12185356Y-11264644D01*
X12114644Y-11264644D01*
X12114644Y-11335356D01*
X12185356Y-11335356D01*
X12185356Y-13635356D02*
X12185356Y-13564644D01*
X12114644Y-13564644D01*
X12114644Y-13635356D01*
X12185356Y-13635356D01*
D11*
X12050000Y-13640000D02*
X12250000Y-13640000D01*
X12050000Y-13560000D02*
X12250000Y-13560000D01*
X12250000Y-13640000D02*
G75*
G03*
X12250000Y-13560000I0J40000D01*
G01*
X12050000Y-13560000D02*
G75*
G03*
X12050000Y-13640000I0J-40000D01*
G01*
D14*
X12185356Y-14255356D02*
X12185356Y-14184644D01*
X12114644Y-14184644D01*
X12114644Y-14255356D01*
X12185356Y-14255356D01*
D11*
X12050000Y-14260000D02*
X12250000Y-14260000D01*
X12050000Y-14180000D02*
X12250000Y-14180000D01*
X12250000Y-14260000D02*
G75*
G03*
X12250000Y-14180000I0J40000D01*
G01*
X12050000Y-14180000D02*
G75*
G03*
X12050000Y-14260000I0J-40000D01*
G01*
D14*
X12685356Y-13945356D02*
X12685356Y-13874644D01*
X12614644Y-13874644D01*
X12614644Y-13945356D01*
X12685356Y-13945356D01*
D11*
X12690000Y-14010000D02*
X12690000Y-13810000D01*
X12610000Y-14010000D02*
X12610000Y-13810000D01*
X12690000Y-13810000D02*
G75*
G03*
X12610000Y-13810000I-40000J0D01*
G01*
X12610000Y-14010000D02*
G75*
G03*
X12690000Y-14010000I40000J0D01*
G01*
D14*
X18285356Y-11379536D02*
X18285356Y-11308825D01*
X18214644Y-11308825D01*
X18214644Y-11379536D01*
X18285356Y-11379536D01*
X18285356Y-11879536D02*
X18285356Y-11808825D01*
X18214644Y-11808825D01*
X18214644Y-11879536D01*
X18285356Y-11879536D01*
D15*
X10500000Y-12065000D02*
X10565000Y-12000000D01*
X10500000Y-11935000D01*
X10435000Y-12000000D01*
X10500000Y-12065000D01*
X10500000Y-12573000D02*
X10565000Y-12508000D01*
X10500000Y-12443000D01*
X10435000Y-12508000D01*
X10500000Y-12573000D01*
X10500000Y-13081000D02*
X10565000Y-13016000D01*
X10500000Y-12951000D01*
X10435000Y-13016000D01*
X10500000Y-13081000D01*
X19480500Y-11407000D02*
X19545500Y-11342000D01*
X19480500Y-11277000D01*
X19415500Y-11342000D01*
X19480500Y-11407000D01*
X19480500Y-11915000D02*
X19545500Y-11850000D01*
X19480500Y-11785000D01*
X19415500Y-11850000D01*
X19480500Y-11915000D01*
X19480500Y-12658600D02*
X19545500Y-12593600D01*
X19480500Y-12528600D01*
X19415500Y-12593600D01*
X19480500Y-12658600D01*
X19480500Y-13166600D02*
X19545500Y-13101600D01*
X19480500Y-13036600D01*
X19415500Y-13101600D01*
X19480500Y-13166600D01*
X19480500Y-13674600D02*
X19545500Y-13609600D01*
X19480500Y-13544600D01*
X19415500Y-13609600D01*
X19480500Y-13674600D01*
D11*
X13300000Y-11600000D02*
X13500000Y-11800000D01*
X13500000Y-11600000D02*
X13300000Y-11800000D01*
X13500000Y-11700000D02*
G75*
G03*
X13500000Y-11700000I-100000J0D01*
G01*
X10250119Y-15317976D02*
X10250119Y-15117976D01*
X10297738Y-15117976D01*
X10326310Y-15127500D01*
X10345357Y-15146548D01*
X10354881Y-15165595D01*
X10364405Y-15203690D01*
X10364405Y-15232262D01*
X10354881Y-15270357D01*
X10345357Y-15289405D01*
X10326310Y-15308452D01*
X10297738Y-15317976D01*
X10250119Y-15317976D01*
X10450119Y-15317976D02*
X10450119Y-15184643D01*
X10450119Y-15222738D02*
X10459643Y-15203690D01*
X10469167Y-15194167D01*
X10488214Y-15184643D01*
X10507262Y-15184643D01*
X10573929Y-15317976D02*
X10573929Y-15184643D01*
X10573929Y-15117976D02*
X10564405Y-15127500D01*
X10573929Y-15137024D01*
X10583452Y-15127500D01*
X10573929Y-15117976D01*
X10573929Y-15137024D01*
X10697738Y-15317976D02*
X10678690Y-15308452D01*
X10669167Y-15289405D01*
X10669167Y-15117976D01*
X10802500Y-15317976D02*
X10783452Y-15308452D01*
X10773929Y-15289405D01*
X10773929Y-15117976D01*
X11031071Y-15317976D02*
X11031071Y-15117976D01*
X11097738Y-15260833D01*
X11164405Y-15117976D01*
X11164405Y-15317976D01*
X11345357Y-15317976D02*
X11345357Y-15213214D01*
X11335833Y-15194167D01*
X11316786Y-15184643D01*
X11278690Y-15184643D01*
X11259643Y-15194167D01*
X11345357Y-15308452D02*
X11326309Y-15317976D01*
X11278690Y-15317976D01*
X11259643Y-15308452D01*
X11250119Y-15289405D01*
X11250119Y-15270357D01*
X11259643Y-15251309D01*
X11278690Y-15241786D01*
X11326309Y-15241786D01*
X11345357Y-15232262D01*
X11440595Y-15184643D02*
X11440595Y-15384643D01*
X11440595Y-15194167D02*
X11459643Y-15184643D01*
X11497738Y-15184643D01*
X11516786Y-15194167D01*
X11526309Y-15203690D01*
X11535833Y-15222738D01*
X11535833Y-15279881D01*
X11526309Y-15298928D01*
X11516786Y-15308452D01*
X11497738Y-15317976D01*
X11459643Y-15317976D01*
X11440595Y-15308452D01*
X11621548Y-15298928D02*
X11631071Y-15308452D01*
X11621548Y-15317976D01*
X11612024Y-15308452D01*
X11621548Y-15298928D01*
X11621548Y-15317976D01*
X11621548Y-15194167D02*
X11631071Y-15203690D01*
X11621548Y-15213214D01*
X11612024Y-15203690D01*
X11621548Y-15194167D01*
X11621548Y-15213214D01*
D12*
X9962500Y-15632500D02*
X9992500Y-15662500D01*
X9992500Y-15632500D02*
X9962500Y-15662500D01*
D11*
X10288214Y-15537976D02*
X10307262Y-15537976D01*
X10326310Y-15547500D01*
X10335833Y-15557024D01*
X10345357Y-15576071D01*
X10354881Y-15614167D01*
X10354881Y-15661786D01*
X10345357Y-15699881D01*
X10335833Y-15718928D01*
X10326310Y-15728452D01*
X10307262Y-15737976D01*
X10288214Y-15737976D01*
X10269167Y-15728452D01*
X10259643Y-15718928D01*
X10250119Y-15699881D01*
X10240595Y-15661786D01*
X10240595Y-15614167D01*
X10250119Y-15576071D01*
X10259643Y-15557024D01*
X10269167Y-15547500D01*
X10288214Y-15537976D01*
X10440595Y-15718928D02*
X10450119Y-15728452D01*
X10440595Y-15737976D01*
X10431071Y-15728452D01*
X10440595Y-15718928D01*
X10440595Y-15737976D01*
X10516786Y-15537976D02*
X10640595Y-15537976D01*
X10573929Y-15614167D01*
X10602500Y-15614167D01*
X10621548Y-15623690D01*
X10631071Y-15633214D01*
X10640595Y-15652262D01*
X10640595Y-15699881D01*
X10631071Y-15718928D01*
X10621548Y-15728452D01*
X10602500Y-15737976D01*
X10545357Y-15737976D01*
X10526310Y-15728452D01*
X10516786Y-15718928D01*
X10764405Y-15537976D02*
X10783452Y-15537976D01*
X10802500Y-15547500D01*
X10812024Y-15557024D01*
X10821548Y-15576071D01*
X10831071Y-15614167D01*
X10831071Y-15661786D01*
X10821548Y-15699881D01*
X10812024Y-15718928D01*
X10802500Y-15728452D01*
X10783452Y-15737976D01*
X10764405Y-15737976D01*
X10745357Y-15728452D01*
X10735833Y-15718928D01*
X10726310Y-15699881D01*
X10716786Y-15661786D01*
X10716786Y-15614167D01*
X10726310Y-15576071D01*
X10735833Y-15557024D01*
X10745357Y-15547500D01*
X10764405Y-15537976D01*
X10954881Y-15537976D02*
X10973929Y-15537976D01*
X10992976Y-15547500D01*
X11002500Y-15557024D01*
X11012024Y-15576071D01*
X11021548Y-15614167D01*
X11021548Y-15661786D01*
X11012024Y-15699881D01*
X11002500Y-15718928D01*
X10992976Y-15728452D01*
X10973929Y-15737976D01*
X10954881Y-15737976D01*
X10935833Y-15728452D01*
X10926310Y-15718928D01*
X10916786Y-15699881D01*
X10907262Y-15661786D01*
X10907262Y-15614167D01*
X10916786Y-15576071D01*
X10926310Y-15557024D01*
X10935833Y-15547500D01*
X10954881Y-15537976D01*
X11107262Y-15737976D02*
X11107262Y-15604643D01*
X11107262Y-15623690D02*
X11116786Y-15614167D01*
X11135833Y-15604643D01*
X11164405Y-15604643D01*
X11183452Y-15614167D01*
X11192976Y-15633214D01*
X11192976Y-15737976D01*
X11192976Y-15633214D02*
X11202500Y-15614167D01*
X11221548Y-15604643D01*
X11250119Y-15604643D01*
X11269167Y-15614167D01*
X11278690Y-15633214D01*
X11278690Y-15737976D01*
X11373928Y-15737976D02*
X11373928Y-15604643D01*
X11373928Y-15623690D02*
X11383452Y-15614167D01*
X11402500Y-15604643D01*
X11431071Y-15604643D01*
X11450119Y-15614167D01*
X11459643Y-15633214D01*
X11459643Y-15737976D01*
X11459643Y-15633214D02*
X11469167Y-15614167D01*
X11488214Y-15604643D01*
X11516786Y-15604643D01*
X11535833Y-15614167D01*
X11545357Y-15633214D01*
X11545357Y-15737976D01*
X11935833Y-15528452D02*
X11764405Y-15785595D01*
X12192976Y-15537976D02*
X12212024Y-15537976D01*
X12231071Y-15547500D01*
X12240595Y-15557024D01*
X12250119Y-15576071D01*
X12259643Y-15614167D01*
X12259643Y-15661786D01*
X12250119Y-15699881D01*
X12240595Y-15718928D01*
X12231071Y-15728452D01*
X12212024Y-15737976D01*
X12192976Y-15737976D01*
X12173928Y-15728452D01*
X12164405Y-15718928D01*
X12154881Y-15699881D01*
X12145357Y-15661786D01*
X12145357Y-15614167D01*
X12154881Y-15576071D01*
X12164405Y-15557024D01*
X12173928Y-15547500D01*
X12192976Y-15537976D01*
X12345357Y-15718928D02*
X12354881Y-15728452D01*
X12345357Y-15737976D01*
X12335833Y-15728452D01*
X12345357Y-15718928D01*
X12345357Y-15737976D01*
X12478690Y-15537976D02*
X12497738Y-15537976D01*
X12516786Y-15547500D01*
X12526309Y-15557024D01*
X12535833Y-15576071D01*
X12545357Y-15614167D01*
X12545357Y-15661786D01*
X12535833Y-15699881D01*
X12526309Y-15718928D01*
X12516786Y-15728452D01*
X12497738Y-15737976D01*
X12478690Y-15737976D01*
X12459643Y-15728452D01*
X12450119Y-15718928D01*
X12440595Y-15699881D01*
X12431071Y-15661786D01*
X12431071Y-15614167D01*
X12440595Y-15576071D01*
X12450119Y-15557024D01*
X12459643Y-15547500D01*
X12478690Y-15537976D01*
X12735833Y-15737976D02*
X12621548Y-15737976D01*
X12678690Y-15737976D02*
X12678690Y-15537976D01*
X12659643Y-15566548D01*
X12640595Y-15585595D01*
X12621548Y-15595119D01*
X12926309Y-15737976D02*
X12812024Y-15737976D01*
X12869167Y-15737976D02*
X12869167Y-15537976D01*
X12850119Y-15566548D01*
X12831071Y-15585595D01*
X12812024Y-15595119D01*
X13040595Y-15623690D02*
X13021548Y-15614167D01*
X13012024Y-15604643D01*
X13002500Y-15585595D01*
X13002500Y-15576071D01*
X13012024Y-15557024D01*
X13021548Y-15547500D01*
X13040595Y-15537976D01*
X13078690Y-15537976D01*
X13097738Y-15547500D01*
X13107262Y-15557024D01*
X13116786Y-15576071D01*
X13116786Y-15585595D01*
X13107262Y-15604643D01*
X13097738Y-15614167D01*
X13078690Y-15623690D01*
X13040595Y-15623690D01*
X13021548Y-15633214D01*
X13012024Y-15642738D01*
X13002500Y-15661786D01*
X13002500Y-15699881D01*
X13012024Y-15718928D01*
X13021548Y-15728452D01*
X13040595Y-15737976D01*
X13078690Y-15737976D01*
X13097738Y-15728452D01*
X13107262Y-15718928D01*
X13116786Y-15699881D01*
X13116786Y-15661786D01*
X13107262Y-15642738D01*
X13097738Y-15633214D01*
X13078690Y-15623690D01*
X13192976Y-15537976D02*
X13192976Y-15576071D01*
X13269167Y-15537976D02*
X13269167Y-15576071D01*
X13564405Y-15814167D02*
X13554881Y-15804643D01*
X13535833Y-15776071D01*
X13526309Y-15757024D01*
X13516786Y-15728452D01*
X13507262Y-15680833D01*
X13507262Y-15642738D01*
X13516786Y-15595119D01*
X13526309Y-15566548D01*
X13535833Y-15547500D01*
X13554881Y-15518928D01*
X13564405Y-15509405D01*
X13726309Y-15537976D02*
X13688214Y-15537976D01*
X13669167Y-15547500D01*
X13659643Y-15557024D01*
X13640595Y-15585595D01*
X13631071Y-15623690D01*
X13631071Y-15699881D01*
X13640595Y-15718928D01*
X13650119Y-15728452D01*
X13669167Y-15737976D01*
X13707262Y-15737976D01*
X13726309Y-15728452D01*
X13735833Y-15718928D01*
X13745357Y-15699881D01*
X13745357Y-15652262D01*
X13735833Y-15633214D01*
X13726309Y-15623690D01*
X13707262Y-15614167D01*
X13669167Y-15614167D01*
X13650119Y-15623690D01*
X13640595Y-15633214D01*
X13631071Y-15652262D01*
X13983452Y-15737976D02*
X13983452Y-15537976D01*
X14069167Y-15737976D02*
X14069167Y-15633214D01*
X14059643Y-15614167D01*
X14040595Y-15604643D01*
X14012024Y-15604643D01*
X13992976Y-15614167D01*
X13983452Y-15623690D01*
X14192976Y-15737976D02*
X14173928Y-15728452D01*
X14164405Y-15718928D01*
X14154881Y-15699881D01*
X14154881Y-15642738D01*
X14164405Y-15623690D01*
X14173928Y-15614167D01*
X14192976Y-15604643D01*
X14221548Y-15604643D01*
X14240595Y-15614167D01*
X14250119Y-15623690D01*
X14259643Y-15642738D01*
X14259643Y-15699881D01*
X14250119Y-15718928D01*
X14240595Y-15728452D01*
X14221548Y-15737976D01*
X14192976Y-15737976D01*
X14373928Y-15737976D02*
X14354881Y-15728452D01*
X14345357Y-15709405D01*
X14345357Y-15537976D01*
X14526309Y-15728452D02*
X14507262Y-15737976D01*
X14469167Y-15737976D01*
X14450119Y-15728452D01*
X14440595Y-15709405D01*
X14440595Y-15633214D01*
X14450119Y-15614167D01*
X14469167Y-15604643D01*
X14507262Y-15604643D01*
X14526309Y-15614167D01*
X14535833Y-15633214D01*
X14535833Y-15652262D01*
X14440595Y-15671309D01*
X14612024Y-15728452D02*
X14631071Y-15737976D01*
X14669167Y-15737976D01*
X14688214Y-15728452D01*
X14697738Y-15709405D01*
X14697738Y-15699881D01*
X14688214Y-15680833D01*
X14669167Y-15671309D01*
X14640595Y-15671309D01*
X14621548Y-15661786D01*
X14612024Y-15642738D01*
X14612024Y-15633214D01*
X14621548Y-15614167D01*
X14640595Y-15604643D01*
X14669167Y-15604643D01*
X14688214Y-15614167D01*
X14764405Y-15814167D02*
X14773928Y-15804643D01*
X14792976Y-15776071D01*
X14802500Y-15757024D01*
X14812024Y-15728452D01*
X14821548Y-15680833D01*
X14821548Y-15642738D01*
X14812024Y-15595119D01*
X14802500Y-15566548D01*
X14792976Y-15547500D01*
X14773928Y-15518928D01*
X14764405Y-15509405D01*
D12*
X9992500Y-15911500D02*
G75*
G03*
X9992500Y-15911500I-15000J0D01*
G01*
D11*
X10288214Y-15801976D02*
X10307262Y-15801976D01*
X10326310Y-15811500D01*
X10335833Y-15821024D01*
X10345357Y-15840071D01*
X10354881Y-15878167D01*
X10354881Y-15925786D01*
X10345357Y-15963881D01*
X10335833Y-15982928D01*
X10326310Y-15992452D01*
X10307262Y-16001976D01*
X10288214Y-16001976D01*
X10269167Y-15992452D01*
X10259643Y-15982928D01*
X10250119Y-15963881D01*
X10240595Y-15925786D01*
X10240595Y-15878167D01*
X10250119Y-15840071D01*
X10259643Y-15821024D01*
X10269167Y-15811500D01*
X10288214Y-15801976D01*
X10440595Y-15982928D02*
X10450119Y-15992452D01*
X10440595Y-16001976D01*
X10431071Y-15992452D01*
X10440595Y-15982928D01*
X10440595Y-16001976D01*
X10516786Y-15801976D02*
X10640595Y-15801976D01*
X10573929Y-15878167D01*
X10602500Y-15878167D01*
X10621548Y-15887690D01*
X10631071Y-15897214D01*
X10640595Y-15916262D01*
X10640595Y-15963881D01*
X10631071Y-15982928D01*
X10621548Y-15992452D01*
X10602500Y-16001976D01*
X10545357Y-16001976D01*
X10526310Y-15992452D01*
X10516786Y-15982928D01*
X10764405Y-15801976D02*
X10783452Y-15801976D01*
X10802500Y-15811500D01*
X10812024Y-15821024D01*
X10821548Y-15840071D01*
X10831071Y-15878167D01*
X10831071Y-15925786D01*
X10821548Y-15963881D01*
X10812024Y-15982928D01*
X10802500Y-15992452D01*
X10783452Y-16001976D01*
X10764405Y-16001976D01*
X10745357Y-15992452D01*
X10735833Y-15982928D01*
X10726310Y-15963881D01*
X10716786Y-15925786D01*
X10716786Y-15878167D01*
X10726310Y-15840071D01*
X10735833Y-15821024D01*
X10745357Y-15811500D01*
X10764405Y-15801976D01*
X10954881Y-15801976D02*
X10973929Y-15801976D01*
X10992976Y-15811500D01*
X11002500Y-15821024D01*
X11012024Y-15840071D01*
X11021548Y-15878167D01*
X11021548Y-15925786D01*
X11012024Y-15963881D01*
X11002500Y-15982928D01*
X10992976Y-15992452D01*
X10973929Y-16001976D01*
X10954881Y-16001976D01*
X10935833Y-15992452D01*
X10926310Y-15982928D01*
X10916786Y-15963881D01*
X10907262Y-15925786D01*
X10907262Y-15878167D01*
X10916786Y-15840071D01*
X10926310Y-15821024D01*
X10935833Y-15811500D01*
X10954881Y-15801976D01*
X11107262Y-16001976D02*
X11107262Y-15868643D01*
X11107262Y-15887690D02*
X11116786Y-15878167D01*
X11135833Y-15868643D01*
X11164405Y-15868643D01*
X11183452Y-15878167D01*
X11192976Y-15897214D01*
X11192976Y-16001976D01*
X11192976Y-15897214D02*
X11202500Y-15878167D01*
X11221548Y-15868643D01*
X11250119Y-15868643D01*
X11269167Y-15878167D01*
X11278690Y-15897214D01*
X11278690Y-16001976D01*
X11373928Y-16001976D02*
X11373928Y-15868643D01*
X11373928Y-15887690D02*
X11383452Y-15878167D01*
X11402500Y-15868643D01*
X11431071Y-15868643D01*
X11450119Y-15878167D01*
X11459643Y-15897214D01*
X11459643Y-16001976D01*
X11459643Y-15897214D02*
X11469167Y-15878167D01*
X11488214Y-15868643D01*
X11516786Y-15868643D01*
X11535833Y-15878167D01*
X11545357Y-15897214D01*
X11545357Y-16001976D01*
X11935833Y-15792452D02*
X11764405Y-16049595D01*
X12192976Y-15801976D02*
X12212024Y-15801976D01*
X12231071Y-15811500D01*
X12240595Y-15821024D01*
X12250119Y-15840071D01*
X12259643Y-15878167D01*
X12259643Y-15925786D01*
X12250119Y-15963881D01*
X12240595Y-15982928D01*
X12231071Y-15992452D01*
X12212024Y-16001976D01*
X12192976Y-16001976D01*
X12173928Y-15992452D01*
X12164405Y-15982928D01*
X12154881Y-15963881D01*
X12145357Y-15925786D01*
X12145357Y-15878167D01*
X12154881Y-15840071D01*
X12164405Y-15821024D01*
X12173928Y-15811500D01*
X12192976Y-15801976D01*
X12345357Y-15982928D02*
X12354881Y-15992452D01*
X12345357Y-16001976D01*
X12335833Y-15992452D01*
X12345357Y-15982928D01*
X12345357Y-16001976D01*
X12478690Y-15801976D02*
X12497738Y-15801976D01*
X12516786Y-15811500D01*
X12526309Y-15821024D01*
X12535833Y-15840071D01*
X12545357Y-15878167D01*
X12545357Y-15925786D01*
X12535833Y-15963881D01*
X12526309Y-15982928D01*
X12516786Y-15992452D01*
X12497738Y-16001976D01*
X12478690Y-16001976D01*
X12459643Y-15992452D01*
X12450119Y-15982928D01*
X12440595Y-15963881D01*
X12431071Y-15925786D01*
X12431071Y-15878167D01*
X12440595Y-15840071D01*
X12450119Y-15821024D01*
X12459643Y-15811500D01*
X12478690Y-15801976D01*
X12735833Y-16001976D02*
X12621548Y-16001976D01*
X12678690Y-16001976D02*
X12678690Y-15801976D01*
X12659643Y-15830548D01*
X12640595Y-15849595D01*
X12621548Y-15859119D01*
X12926309Y-16001976D02*
X12812024Y-16001976D01*
X12869167Y-16001976D02*
X12869167Y-15801976D01*
X12850119Y-15830548D01*
X12831071Y-15849595D01*
X12812024Y-15859119D01*
X13040595Y-15887690D02*
X13021548Y-15878167D01*
X13012024Y-15868643D01*
X13002500Y-15849595D01*
X13002500Y-15840071D01*
X13012024Y-15821024D01*
X13021548Y-15811500D01*
X13040595Y-15801976D01*
X13078690Y-15801976D01*
X13097738Y-15811500D01*
X13107262Y-15821024D01*
X13116786Y-15840071D01*
X13116786Y-15849595D01*
X13107262Y-15868643D01*
X13097738Y-15878167D01*
X13078690Y-15887690D01*
X13040595Y-15887690D01*
X13021548Y-15897214D01*
X13012024Y-15906738D01*
X13002500Y-15925786D01*
X13002500Y-15963881D01*
X13012024Y-15982928D01*
X13021548Y-15992452D01*
X13040595Y-16001976D01*
X13078690Y-16001976D01*
X13097738Y-15992452D01*
X13107262Y-15982928D01*
X13116786Y-15963881D01*
X13116786Y-15925786D01*
X13107262Y-15906738D01*
X13097738Y-15897214D01*
X13078690Y-15887690D01*
X13192976Y-15801976D02*
X13192976Y-15840071D01*
X13269167Y-15801976D02*
X13269167Y-15840071D01*
X13564405Y-16078167D02*
X13554881Y-16068643D01*
X13535833Y-16040071D01*
X13526309Y-16021024D01*
X13516786Y-15992452D01*
X13507262Y-15944833D01*
X13507262Y-15906738D01*
X13516786Y-15859119D01*
X13526309Y-15830548D01*
X13535833Y-15811500D01*
X13554881Y-15782928D01*
X13564405Y-15773405D01*
X13669167Y-15887690D02*
X13650119Y-15878167D01*
X13640595Y-15868643D01*
X13631071Y-15849595D01*
X13631071Y-15840071D01*
X13640595Y-15821024D01*
X13650119Y-15811500D01*
X13669167Y-15801976D01*
X13707262Y-15801976D01*
X13726309Y-15811500D01*
X13735833Y-15821024D01*
X13745357Y-15840071D01*
X13745357Y-15849595D01*
X13735833Y-15868643D01*
X13726309Y-15878167D01*
X13707262Y-15887690D01*
X13669167Y-15887690D01*
X13650119Y-15897214D01*
X13640595Y-15906738D01*
X13631071Y-15925786D01*
X13631071Y-15963881D01*
X13640595Y-15982928D01*
X13650119Y-15992452D01*
X13669167Y-16001976D01*
X13707262Y-16001976D01*
X13726309Y-15992452D01*
X13735833Y-15982928D01*
X13745357Y-15963881D01*
X13745357Y-15925786D01*
X13735833Y-15906738D01*
X13726309Y-15897214D01*
X13707262Y-15887690D01*
X13983452Y-16001976D02*
X13983452Y-15801976D01*
X14069167Y-16001976D02*
X14069167Y-15897214D01*
X14059643Y-15878167D01*
X14040595Y-15868643D01*
X14012024Y-15868643D01*
X13992976Y-15878167D01*
X13983452Y-15887690D01*
X14192976Y-16001976D02*
X14173928Y-15992452D01*
X14164405Y-15982928D01*
X14154881Y-15963881D01*
X14154881Y-15906738D01*
X14164405Y-15887690D01*
X14173928Y-15878167D01*
X14192976Y-15868643D01*
X14221548Y-15868643D01*
X14240595Y-15878167D01*
X14250119Y-15887690D01*
X14259643Y-15906738D01*
X14259643Y-15963881D01*
X14250119Y-15982928D01*
X14240595Y-15992452D01*
X14221548Y-16001976D01*
X14192976Y-16001976D01*
X14373928Y-16001976D02*
X14354881Y-15992452D01*
X14345357Y-15973405D01*
X14345357Y-15801976D01*
X14526309Y-15992452D02*
X14507262Y-16001976D01*
X14469167Y-16001976D01*
X14450119Y-15992452D01*
X14440595Y-15973405D01*
X14440595Y-15897214D01*
X14450119Y-15878167D01*
X14469167Y-15868643D01*
X14507262Y-15868643D01*
X14526309Y-15878167D01*
X14535833Y-15897214D01*
X14535833Y-15916262D01*
X14440595Y-15935309D01*
X14612024Y-15992452D02*
X14631071Y-16001976D01*
X14669167Y-16001976D01*
X14688214Y-15992452D01*
X14697738Y-15973405D01*
X14697738Y-15963881D01*
X14688214Y-15944833D01*
X14669167Y-15935309D01*
X14640595Y-15935309D01*
X14621548Y-15925786D01*
X14612024Y-15906738D01*
X14612024Y-15897214D01*
X14621548Y-15878167D01*
X14640595Y-15868643D01*
X14669167Y-15868643D01*
X14688214Y-15878167D01*
X14764405Y-16078167D02*
X14773928Y-16068643D01*
X14792976Y-16040071D01*
X14802500Y-16021024D01*
X14812024Y-15992452D01*
X14821548Y-15944833D01*
X14821548Y-15906738D01*
X14812024Y-15859119D01*
X14802500Y-15830548D01*
X14792976Y-15811500D01*
X14773928Y-15782928D01*
X14764405Y-15773405D01*
D13*
X9972500Y-16155500D02*
X9972500Y-16195500D01*
X9952500Y-16175500D02*
X9992500Y-16175500D01*
D11*
X10288214Y-16065976D02*
X10307262Y-16065976D01*
X10326310Y-16075500D01*
X10335833Y-16085024D01*
X10345357Y-16104071D01*
X10354881Y-16142167D01*
X10354881Y-16189786D01*
X10345357Y-16227881D01*
X10335833Y-16246928D01*
X10326310Y-16256452D01*
X10307262Y-16265976D01*
X10288214Y-16265976D01*
X10269167Y-16256452D01*
X10259643Y-16246928D01*
X10250119Y-16227881D01*
X10240595Y-16189786D01*
X10240595Y-16142167D01*
X10250119Y-16104071D01*
X10259643Y-16085024D01*
X10269167Y-16075500D01*
X10288214Y-16065976D01*
X10440595Y-16246928D02*
X10450119Y-16256452D01*
X10440595Y-16265976D01*
X10431071Y-16256452D01*
X10440595Y-16246928D01*
X10440595Y-16265976D01*
X10621548Y-16132643D02*
X10621548Y-16265976D01*
X10573929Y-16056452D02*
X10526310Y-16199309D01*
X10650119Y-16199309D01*
X10764405Y-16065976D02*
X10783452Y-16065976D01*
X10802500Y-16075500D01*
X10812024Y-16085024D01*
X10821548Y-16104071D01*
X10831071Y-16142167D01*
X10831071Y-16189786D01*
X10821548Y-16227881D01*
X10812024Y-16246928D01*
X10802500Y-16256452D01*
X10783452Y-16265976D01*
X10764405Y-16265976D01*
X10745357Y-16256452D01*
X10735833Y-16246928D01*
X10726310Y-16227881D01*
X10716786Y-16189786D01*
X10716786Y-16142167D01*
X10726310Y-16104071D01*
X10735833Y-16085024D01*
X10745357Y-16075500D01*
X10764405Y-16065976D01*
X10954881Y-16065976D02*
X10973929Y-16065976D01*
X10992976Y-16075500D01*
X11002500Y-16085024D01*
X11012024Y-16104071D01*
X11021548Y-16142167D01*
X11021548Y-16189786D01*
X11012024Y-16227881D01*
X11002500Y-16246928D01*
X10992976Y-16256452D01*
X10973929Y-16265976D01*
X10954881Y-16265976D01*
X10935833Y-16256452D01*
X10926310Y-16246928D01*
X10916786Y-16227881D01*
X10907262Y-16189786D01*
X10907262Y-16142167D01*
X10916786Y-16104071D01*
X10926310Y-16085024D01*
X10935833Y-16075500D01*
X10954881Y-16065976D01*
X11107262Y-16265976D02*
X11107262Y-16132643D01*
X11107262Y-16151690D02*
X11116786Y-16142167D01*
X11135833Y-16132643D01*
X11164405Y-16132643D01*
X11183452Y-16142167D01*
X11192976Y-16161214D01*
X11192976Y-16265976D01*
X11192976Y-16161214D02*
X11202500Y-16142167D01*
X11221548Y-16132643D01*
X11250119Y-16132643D01*
X11269167Y-16142167D01*
X11278690Y-16161214D01*
X11278690Y-16265976D01*
X11373928Y-16265976D02*
X11373928Y-16132643D01*
X11373928Y-16151690D02*
X11383452Y-16142167D01*
X11402500Y-16132643D01*
X11431071Y-16132643D01*
X11450119Y-16142167D01*
X11459643Y-16161214D01*
X11459643Y-16265976D01*
X11459643Y-16161214D02*
X11469167Y-16142167D01*
X11488214Y-16132643D01*
X11516786Y-16132643D01*
X11535833Y-16142167D01*
X11545357Y-16161214D01*
X11545357Y-16265976D01*
X11935833Y-16056452D02*
X11764405Y-16313595D01*
X12192976Y-16065976D02*
X12212024Y-16065976D01*
X12231071Y-16075500D01*
X12240595Y-16085024D01*
X12250119Y-16104071D01*
X12259643Y-16142167D01*
X12259643Y-16189786D01*
X12250119Y-16227881D01*
X12240595Y-16246928D01*
X12231071Y-16256452D01*
X12212024Y-16265976D01*
X12192976Y-16265976D01*
X12173928Y-16256452D01*
X12164405Y-16246928D01*
X12154881Y-16227881D01*
X12145357Y-16189786D01*
X12145357Y-16142167D01*
X12154881Y-16104071D01*
X12164405Y-16085024D01*
X12173928Y-16075500D01*
X12192976Y-16065976D01*
X12345357Y-16246928D02*
X12354881Y-16256452D01*
X12345357Y-16265976D01*
X12335833Y-16256452D01*
X12345357Y-16246928D01*
X12345357Y-16265976D01*
X12478690Y-16065976D02*
X12497738Y-16065976D01*
X12516786Y-16075500D01*
X12526309Y-16085024D01*
X12535833Y-16104071D01*
X12545357Y-16142167D01*
X12545357Y-16189786D01*
X12535833Y-16227881D01*
X12526309Y-16246928D01*
X12516786Y-16256452D01*
X12497738Y-16265976D01*
X12478690Y-16265976D01*
X12459643Y-16256452D01*
X12450119Y-16246928D01*
X12440595Y-16227881D01*
X12431071Y-16189786D01*
X12431071Y-16142167D01*
X12440595Y-16104071D01*
X12450119Y-16085024D01*
X12459643Y-16075500D01*
X12478690Y-16065976D01*
X12735833Y-16265976D02*
X12621548Y-16265976D01*
X12678690Y-16265976D02*
X12678690Y-16065976D01*
X12659643Y-16094548D01*
X12640595Y-16113595D01*
X12621548Y-16123119D01*
X12916786Y-16065976D02*
X12821548Y-16065976D01*
X12812024Y-16161214D01*
X12821548Y-16151690D01*
X12840595Y-16142167D01*
X12888214Y-16142167D01*
X12907262Y-16151690D01*
X12916786Y-16161214D01*
X12926309Y-16180262D01*
X12926309Y-16227881D01*
X12916786Y-16246928D01*
X12907262Y-16256452D01*
X12888214Y-16265976D01*
X12840595Y-16265976D01*
X12821548Y-16256452D01*
X12812024Y-16246928D01*
X12992976Y-16065976D02*
X13126309Y-16065976D01*
X13040595Y-16265976D01*
X13192976Y-16065976D02*
X13192976Y-16104071D01*
X13269167Y-16065976D02*
X13269167Y-16104071D01*
X13564405Y-16342167D02*
X13554881Y-16332643D01*
X13535833Y-16304071D01*
X13526309Y-16285024D01*
X13516786Y-16256452D01*
X13507262Y-16208833D01*
X13507262Y-16170738D01*
X13516786Y-16123119D01*
X13526309Y-16094548D01*
X13535833Y-16075500D01*
X13554881Y-16046928D01*
X13564405Y-16037405D01*
X13669167Y-16151690D02*
X13650119Y-16142167D01*
X13640595Y-16132643D01*
X13631071Y-16113595D01*
X13631071Y-16104071D01*
X13640595Y-16085024D01*
X13650119Y-16075500D01*
X13669167Y-16065976D01*
X13707262Y-16065976D01*
X13726309Y-16075500D01*
X13735833Y-16085024D01*
X13745357Y-16104071D01*
X13745357Y-16113595D01*
X13735833Y-16132643D01*
X13726309Y-16142167D01*
X13707262Y-16151690D01*
X13669167Y-16151690D01*
X13650119Y-16161214D01*
X13640595Y-16170738D01*
X13631071Y-16189786D01*
X13631071Y-16227881D01*
X13640595Y-16246928D01*
X13650119Y-16256452D01*
X13669167Y-16265976D01*
X13707262Y-16265976D01*
X13726309Y-16256452D01*
X13735833Y-16246928D01*
X13745357Y-16227881D01*
X13745357Y-16189786D01*
X13735833Y-16170738D01*
X13726309Y-16161214D01*
X13707262Y-16151690D01*
X13983452Y-16265976D02*
X13983452Y-16065976D01*
X14069167Y-16265976D02*
X14069167Y-16161214D01*
X14059643Y-16142167D01*
X14040595Y-16132643D01*
X14012024Y-16132643D01*
X13992976Y-16142167D01*
X13983452Y-16151690D01*
X14192976Y-16265976D02*
X14173928Y-16256452D01*
X14164405Y-16246928D01*
X14154881Y-16227881D01*
X14154881Y-16170738D01*
X14164405Y-16151690D01*
X14173928Y-16142167D01*
X14192976Y-16132643D01*
X14221548Y-16132643D01*
X14240595Y-16142167D01*
X14250119Y-16151690D01*
X14259643Y-16170738D01*
X14259643Y-16227881D01*
X14250119Y-16246928D01*
X14240595Y-16256452D01*
X14221548Y-16265976D01*
X14192976Y-16265976D01*
X14373928Y-16265976D02*
X14354881Y-16256452D01*
X14345357Y-16237405D01*
X14345357Y-16065976D01*
X14526309Y-16256452D02*
X14507262Y-16265976D01*
X14469167Y-16265976D01*
X14450119Y-16256452D01*
X14440595Y-16237405D01*
X14440595Y-16161214D01*
X14450119Y-16142167D01*
X14469167Y-16132643D01*
X14507262Y-16132643D01*
X14526309Y-16142167D01*
X14535833Y-16161214D01*
X14535833Y-16180262D01*
X14440595Y-16199309D01*
X14612024Y-16256452D02*
X14631071Y-16265976D01*
X14669167Y-16265976D01*
X14688214Y-16256452D01*
X14697738Y-16237405D01*
X14697738Y-16227881D01*
X14688214Y-16208833D01*
X14669167Y-16199309D01*
X14640595Y-16199309D01*
X14621548Y-16189786D01*
X14612024Y-16170738D01*
X14612024Y-16161214D01*
X14621548Y-16142167D01*
X14640595Y-16132643D01*
X14669167Y-16132643D01*
X14688214Y-16142167D01*
X14764405Y-16342167D02*
X14773928Y-16332643D01*
X14792976Y-16304071D01*
X14802500Y-16285024D01*
X14812024Y-16256452D01*
X14821548Y-16208833D01*
X14821548Y-16170738D01*
X14812024Y-16123119D01*
X14802500Y-16094548D01*
X14792976Y-16075500D01*
X14773928Y-16046928D01*
X14764405Y-16037405D01*
D14*
X9977856Y-16474856D02*
X9977856Y-16404144D01*
X9907144Y-16404144D01*
X9907144Y-16474856D01*
X9977856Y-16474856D01*
D11*
X10354881Y-16529976D02*
X10240595Y-16529976D01*
X10297738Y-16529976D02*
X10297738Y-16329976D01*
X10278690Y-16358548D01*
X10259643Y-16377595D01*
X10240595Y-16387119D01*
X10440595Y-16510928D02*
X10450119Y-16520452D01*
X10440595Y-16529976D01*
X10431071Y-16520452D01*
X10440595Y-16510928D01*
X10440595Y-16529976D01*
X10573929Y-16329976D02*
X10592976Y-16329976D01*
X10612024Y-16339500D01*
X10621548Y-16349024D01*
X10631071Y-16368071D01*
X10640595Y-16406167D01*
X10640595Y-16453786D01*
X10631071Y-16491881D01*
X10621548Y-16510928D01*
X10612024Y-16520452D01*
X10592976Y-16529976D01*
X10573929Y-16529976D01*
X10554881Y-16520452D01*
X10545357Y-16510928D01*
X10535833Y-16491881D01*
X10526310Y-16453786D01*
X10526310Y-16406167D01*
X10535833Y-16368071D01*
X10545357Y-16349024D01*
X10554881Y-16339500D01*
X10573929Y-16329976D01*
X10764405Y-16329976D02*
X10783452Y-16329976D01*
X10802500Y-16339500D01*
X10812024Y-16349024D01*
X10821548Y-16368071D01*
X10831071Y-16406167D01*
X10831071Y-16453786D01*
X10821548Y-16491881D01*
X10812024Y-16510928D01*
X10802500Y-16520452D01*
X10783452Y-16529976D01*
X10764405Y-16529976D01*
X10745357Y-16520452D01*
X10735833Y-16510928D01*
X10726310Y-16491881D01*
X10716786Y-16453786D01*
X10716786Y-16406167D01*
X10726310Y-16368071D01*
X10735833Y-16349024D01*
X10745357Y-16339500D01*
X10764405Y-16329976D01*
X10954881Y-16329976D02*
X10973929Y-16329976D01*
X10992976Y-16339500D01*
X11002500Y-16349024D01*
X11012024Y-16368071D01*
X11021548Y-16406167D01*
X11021548Y-16453786D01*
X11012024Y-16491881D01*
X11002500Y-16510928D01*
X10992976Y-16520452D01*
X10973929Y-16529976D01*
X10954881Y-16529976D01*
X10935833Y-16520452D01*
X10926310Y-16510928D01*
X10916786Y-16491881D01*
X10907262Y-16453786D01*
X10907262Y-16406167D01*
X10916786Y-16368071D01*
X10926310Y-16349024D01*
X10935833Y-16339500D01*
X10954881Y-16329976D01*
X11107262Y-16529976D02*
X11107262Y-16396643D01*
X11107262Y-16415690D02*
X11116786Y-16406167D01*
X11135833Y-16396643D01*
X11164405Y-16396643D01*
X11183452Y-16406167D01*
X11192976Y-16425214D01*
X11192976Y-16529976D01*
X11192976Y-16425214D02*
X11202500Y-16406167D01*
X11221548Y-16396643D01*
X11250119Y-16396643D01*
X11269167Y-16406167D01*
X11278690Y-16425214D01*
X11278690Y-16529976D01*
X11373928Y-16529976D02*
X11373928Y-16396643D01*
X11373928Y-16415690D02*
X11383452Y-16406167D01*
X11402500Y-16396643D01*
X11431071Y-16396643D01*
X11450119Y-16406167D01*
X11459643Y-16425214D01*
X11459643Y-16529976D01*
X11459643Y-16425214D02*
X11469167Y-16406167D01*
X11488214Y-16396643D01*
X11516786Y-16396643D01*
X11535833Y-16406167D01*
X11545357Y-16425214D01*
X11545357Y-16529976D01*
X11935833Y-16320452D02*
X11764405Y-16577595D01*
X12192976Y-16329976D02*
X12212024Y-16329976D01*
X12231071Y-16339500D01*
X12240595Y-16349024D01*
X12250119Y-16368071D01*
X12259643Y-16406167D01*
X12259643Y-16453786D01*
X12250119Y-16491881D01*
X12240595Y-16510928D01*
X12231071Y-16520452D01*
X12212024Y-16529976D01*
X12192976Y-16529976D01*
X12173928Y-16520452D01*
X12164405Y-16510928D01*
X12154881Y-16491881D01*
X12145357Y-16453786D01*
X12145357Y-16406167D01*
X12154881Y-16368071D01*
X12164405Y-16349024D01*
X12173928Y-16339500D01*
X12192976Y-16329976D01*
X12345357Y-16510928D02*
X12354881Y-16520452D01*
X12345357Y-16529976D01*
X12335833Y-16520452D01*
X12345357Y-16510928D01*
X12345357Y-16529976D01*
X12478690Y-16329976D02*
X12497738Y-16329976D01*
X12516786Y-16339500D01*
X12526309Y-16349024D01*
X12535833Y-16368071D01*
X12545357Y-16406167D01*
X12545357Y-16453786D01*
X12535833Y-16491881D01*
X12526309Y-16510928D01*
X12516786Y-16520452D01*
X12497738Y-16529976D01*
X12478690Y-16529976D01*
X12459643Y-16520452D01*
X12450119Y-16510928D01*
X12440595Y-16491881D01*
X12431071Y-16453786D01*
X12431071Y-16406167D01*
X12440595Y-16368071D01*
X12450119Y-16349024D01*
X12459643Y-16339500D01*
X12478690Y-16329976D01*
X12612024Y-16329976D02*
X12735833Y-16329976D01*
X12669167Y-16406167D01*
X12697738Y-16406167D01*
X12716786Y-16415690D01*
X12726309Y-16425214D01*
X12735833Y-16444262D01*
X12735833Y-16491881D01*
X12726309Y-16510928D01*
X12716786Y-16520452D01*
X12697738Y-16529976D01*
X12640595Y-16529976D01*
X12621548Y-16520452D01*
X12612024Y-16510928D01*
X12831071Y-16529976D02*
X12869167Y-16529976D01*
X12888214Y-16520452D01*
X12897738Y-16510928D01*
X12916786Y-16482357D01*
X12926309Y-16444262D01*
X12926309Y-16368071D01*
X12916786Y-16349024D01*
X12907262Y-16339500D01*
X12888214Y-16329976D01*
X12850119Y-16329976D01*
X12831071Y-16339500D01*
X12821548Y-16349024D01*
X12812024Y-16368071D01*
X12812024Y-16415690D01*
X12821548Y-16434738D01*
X12831071Y-16444262D01*
X12850119Y-16453786D01*
X12888214Y-16453786D01*
X12907262Y-16444262D01*
X12916786Y-16434738D01*
X12926309Y-16415690D01*
X13097738Y-16396643D02*
X13097738Y-16529976D01*
X13050119Y-16320452D02*
X13002500Y-16463309D01*
X13126309Y-16463309D01*
X13192976Y-16329976D02*
X13192976Y-16368071D01*
X13269167Y-16329976D02*
X13269167Y-16368071D01*
X13564405Y-16606167D02*
X13554881Y-16596643D01*
X13535833Y-16568071D01*
X13526309Y-16549024D01*
X13516786Y-16520452D01*
X13507262Y-16472833D01*
X13507262Y-16434738D01*
X13516786Y-16387119D01*
X13526309Y-16358548D01*
X13535833Y-16339500D01*
X13554881Y-16310928D01*
X13564405Y-16301405D01*
X13726309Y-16396643D02*
X13726309Y-16529976D01*
X13678690Y-16320452D02*
X13631071Y-16463309D01*
X13754881Y-16463309D01*
X13983452Y-16529976D02*
X13983452Y-16329976D01*
X14069167Y-16529976D02*
X14069167Y-16425214D01*
X14059643Y-16406167D01*
X14040595Y-16396643D01*
X14012024Y-16396643D01*
X13992976Y-16406167D01*
X13983452Y-16415690D01*
X14192976Y-16529976D02*
X14173928Y-16520452D01*
X14164405Y-16510928D01*
X14154881Y-16491881D01*
X14154881Y-16434738D01*
X14164405Y-16415690D01*
X14173928Y-16406167D01*
X14192976Y-16396643D01*
X14221548Y-16396643D01*
X14240595Y-16406167D01*
X14250119Y-16415690D01*
X14259643Y-16434738D01*
X14259643Y-16491881D01*
X14250119Y-16510928D01*
X14240595Y-16520452D01*
X14221548Y-16529976D01*
X14192976Y-16529976D01*
X14373928Y-16529976D02*
X14354881Y-16520452D01*
X14345357Y-16501405D01*
X14345357Y-16329976D01*
X14526309Y-16520452D02*
X14507262Y-16529976D01*
X14469167Y-16529976D01*
X14450119Y-16520452D01*
X14440595Y-16501405D01*
X14440595Y-16425214D01*
X14450119Y-16406167D01*
X14469167Y-16396643D01*
X14507262Y-16396643D01*
X14526309Y-16406167D01*
X14535833Y-16425214D01*
X14535833Y-16444262D01*
X14440595Y-16463309D01*
X14612024Y-16520452D02*
X14631071Y-16529976D01*
X14669167Y-16529976D01*
X14688214Y-16520452D01*
X14697738Y-16501405D01*
X14697738Y-16491881D01*
X14688214Y-16472833D01*
X14669167Y-16463309D01*
X14640595Y-16463309D01*
X14621548Y-16453786D01*
X14612024Y-16434738D01*
X14612024Y-16425214D01*
X14621548Y-16406167D01*
X14640595Y-16396643D01*
X14669167Y-16396643D01*
X14688214Y-16406167D01*
X14935833Y-16453786D02*
X15088214Y-16453786D01*
X15012024Y-16529976D02*
X15012024Y-16377595D01*
X15316786Y-16329976D02*
X15440595Y-16329976D01*
X15373928Y-16406167D01*
X15402500Y-16406167D01*
X15421548Y-16415690D01*
X15431071Y-16425214D01*
X15440595Y-16444262D01*
X15440595Y-16491881D01*
X15431071Y-16510928D01*
X15421548Y-16520452D01*
X15402500Y-16529976D01*
X15345357Y-16529976D01*
X15326309Y-16520452D01*
X15316786Y-16510928D01*
X15669167Y-16520452D02*
X15688214Y-16529976D01*
X15726309Y-16529976D01*
X15745357Y-16520452D01*
X15754881Y-16501405D01*
X15754881Y-16491881D01*
X15745357Y-16472833D01*
X15726309Y-16463309D01*
X15697738Y-16463309D01*
X15678690Y-16453786D01*
X15669167Y-16434738D01*
X15669167Y-16425214D01*
X15678690Y-16406167D01*
X15697738Y-16396643D01*
X15726309Y-16396643D01*
X15745357Y-16406167D01*
X15869167Y-16529976D02*
X15850119Y-16520452D01*
X15840595Y-16501405D01*
X15840595Y-16329976D01*
X15973928Y-16529976D02*
X15954881Y-16520452D01*
X15945357Y-16510928D01*
X15935833Y-16491881D01*
X15935833Y-16434738D01*
X15945357Y-16415690D01*
X15954881Y-16406167D01*
X15973928Y-16396643D01*
X16002500Y-16396643D01*
X16021548Y-16406167D01*
X16031071Y-16415690D01*
X16040595Y-16434738D01*
X16040595Y-16491881D01*
X16031071Y-16510928D01*
X16021548Y-16520452D01*
X16002500Y-16529976D01*
X15973928Y-16529976D01*
X16097738Y-16396643D02*
X16173928Y-16396643D01*
X16126309Y-16329976D02*
X16126309Y-16501405D01*
X16135833Y-16520452D01*
X16154881Y-16529976D01*
X16173928Y-16529976D01*
X16231071Y-16520452D02*
X16250119Y-16529976D01*
X16288214Y-16529976D01*
X16307262Y-16520452D01*
X16316786Y-16501405D01*
X16316786Y-16491881D01*
X16307262Y-16472833D01*
X16288214Y-16463309D01*
X16259643Y-16463309D01*
X16240595Y-16453786D01*
X16231071Y-16434738D01*
X16231071Y-16425214D01*
X16240595Y-16406167D01*
X16259643Y-16396643D01*
X16288214Y-16396643D01*
X16307262Y-16406167D01*
X16383452Y-16606167D02*
X16392976Y-16596643D01*
X16412024Y-16568071D01*
X16421548Y-16549024D01*
X16431071Y-16520452D01*
X16440595Y-16472833D01*
X16440595Y-16434738D01*
X16431071Y-16387119D01*
X16421548Y-16358548D01*
X16412024Y-16339500D01*
X16392976Y-16310928D01*
X16383452Y-16301405D01*
D15*
X9927500Y-16768500D02*
X9992500Y-16703500D01*
X9927500Y-16638500D01*
X9862500Y-16703500D01*
X9927500Y-16768500D01*
D11*
X10354881Y-16793976D02*
X10240595Y-16793976D01*
X10297738Y-16793976D02*
X10297738Y-16593976D01*
X10278690Y-16622548D01*
X10259643Y-16641595D01*
X10240595Y-16651119D01*
X10440595Y-16774928D02*
X10450119Y-16784452D01*
X10440595Y-16793976D01*
X10431071Y-16784452D01*
X10440595Y-16774928D01*
X10440595Y-16793976D01*
X10516786Y-16593976D02*
X10640595Y-16593976D01*
X10573929Y-16670167D01*
X10602500Y-16670167D01*
X10621548Y-16679690D01*
X10631071Y-16689214D01*
X10640595Y-16708262D01*
X10640595Y-16755881D01*
X10631071Y-16774928D01*
X10621548Y-16784452D01*
X10602500Y-16793976D01*
X10545357Y-16793976D01*
X10526310Y-16784452D01*
X10516786Y-16774928D01*
X10764405Y-16593976D02*
X10783452Y-16593976D01*
X10802500Y-16603500D01*
X10812024Y-16613024D01*
X10821548Y-16632071D01*
X10831071Y-16670167D01*
X10831071Y-16717786D01*
X10821548Y-16755881D01*
X10812024Y-16774928D01*
X10802500Y-16784452D01*
X10783452Y-16793976D01*
X10764405Y-16793976D01*
X10745357Y-16784452D01*
X10735833Y-16774928D01*
X10726310Y-16755881D01*
X10716786Y-16717786D01*
X10716786Y-16670167D01*
X10726310Y-16632071D01*
X10735833Y-16613024D01*
X10745357Y-16603500D01*
X10764405Y-16593976D01*
X10954881Y-16593976D02*
X10973929Y-16593976D01*
X10992976Y-16603500D01*
X11002500Y-16613024D01*
X11012024Y-16632071D01*
X11021548Y-16670167D01*
X11021548Y-16717786D01*
X11012024Y-16755881D01*
X11002500Y-16774928D01*
X10992976Y-16784452D01*
X10973929Y-16793976D01*
X10954881Y-16793976D01*
X10935833Y-16784452D01*
X10926310Y-16774928D01*
X10916786Y-16755881D01*
X10907262Y-16717786D01*
X10907262Y-16670167D01*
X10916786Y-16632071D01*
X10926310Y-16613024D01*
X10935833Y-16603500D01*
X10954881Y-16593976D01*
X11107262Y-16793976D02*
X11107262Y-16660643D01*
X11107262Y-16679690D02*
X11116786Y-16670167D01*
X11135833Y-16660643D01*
X11164405Y-16660643D01*
X11183452Y-16670167D01*
X11192976Y-16689214D01*
X11192976Y-16793976D01*
X11192976Y-16689214D02*
X11202500Y-16670167D01*
X11221548Y-16660643D01*
X11250119Y-16660643D01*
X11269167Y-16670167D01*
X11278690Y-16689214D01*
X11278690Y-16793976D01*
X11373928Y-16793976D02*
X11373928Y-16660643D01*
X11373928Y-16679690D02*
X11383452Y-16670167D01*
X11402500Y-16660643D01*
X11431071Y-16660643D01*
X11450119Y-16670167D01*
X11459643Y-16689214D01*
X11459643Y-16793976D01*
X11459643Y-16689214D02*
X11469167Y-16670167D01*
X11488214Y-16660643D01*
X11516786Y-16660643D01*
X11535833Y-16670167D01*
X11545357Y-16689214D01*
X11545357Y-16793976D01*
X11935833Y-16584452D02*
X11764405Y-16841595D01*
X12192976Y-16593976D02*
X12212024Y-16593976D01*
X12231071Y-16603500D01*
X12240595Y-16613024D01*
X12250119Y-16632071D01*
X12259643Y-16670167D01*
X12259643Y-16717786D01*
X12250119Y-16755881D01*
X12240595Y-16774928D01*
X12231071Y-16784452D01*
X12212024Y-16793976D01*
X12192976Y-16793976D01*
X12173928Y-16784452D01*
X12164405Y-16774928D01*
X12154881Y-16755881D01*
X12145357Y-16717786D01*
X12145357Y-16670167D01*
X12154881Y-16632071D01*
X12164405Y-16613024D01*
X12173928Y-16603500D01*
X12192976Y-16593976D01*
X12345357Y-16774928D02*
X12354881Y-16784452D01*
X12345357Y-16793976D01*
X12335833Y-16784452D01*
X12345357Y-16774928D01*
X12345357Y-16793976D01*
X12478690Y-16593976D02*
X12497738Y-16593976D01*
X12516786Y-16603500D01*
X12526309Y-16613024D01*
X12535833Y-16632071D01*
X12545357Y-16670167D01*
X12545357Y-16717786D01*
X12535833Y-16755881D01*
X12526309Y-16774928D01*
X12516786Y-16784452D01*
X12497738Y-16793976D01*
X12478690Y-16793976D01*
X12459643Y-16784452D01*
X12450119Y-16774928D01*
X12440595Y-16755881D01*
X12431071Y-16717786D01*
X12431071Y-16670167D01*
X12440595Y-16632071D01*
X12450119Y-16613024D01*
X12459643Y-16603500D01*
X12478690Y-16593976D01*
X12726309Y-16593976D02*
X12631071Y-16593976D01*
X12621548Y-16689214D01*
X12631071Y-16679690D01*
X12650119Y-16670167D01*
X12697738Y-16670167D01*
X12716786Y-16679690D01*
X12726309Y-16689214D01*
X12735833Y-16708262D01*
X12735833Y-16755881D01*
X12726309Y-16774928D01*
X12716786Y-16784452D01*
X12697738Y-16793976D01*
X12650119Y-16793976D01*
X12631071Y-16784452D01*
X12621548Y-16774928D01*
X12926309Y-16793976D02*
X12812024Y-16793976D01*
X12869167Y-16793976D02*
X12869167Y-16593976D01*
X12850119Y-16622548D01*
X12831071Y-16641595D01*
X12812024Y-16651119D01*
X13002500Y-16613024D02*
X13012024Y-16603500D01*
X13031071Y-16593976D01*
X13078690Y-16593976D01*
X13097738Y-16603500D01*
X13107262Y-16613024D01*
X13116786Y-16632071D01*
X13116786Y-16651119D01*
X13107262Y-16679690D01*
X12992976Y-16793976D01*
X13116786Y-16793976D01*
X13192976Y-16593976D02*
X13192976Y-16632071D01*
X13269167Y-16593976D02*
X13269167Y-16632071D01*
X13564405Y-16870167D02*
X13554881Y-16860643D01*
X13535833Y-16832071D01*
X13526309Y-16813024D01*
X13516786Y-16784452D01*
X13507262Y-16736833D01*
X13507262Y-16698738D01*
X13516786Y-16651119D01*
X13526309Y-16622548D01*
X13535833Y-16603500D01*
X13554881Y-16574928D01*
X13564405Y-16565405D01*
X13669167Y-16679690D02*
X13650119Y-16670167D01*
X13640595Y-16660643D01*
X13631071Y-16641595D01*
X13631071Y-16632071D01*
X13640595Y-16613024D01*
X13650119Y-16603500D01*
X13669167Y-16593976D01*
X13707262Y-16593976D01*
X13726309Y-16603500D01*
X13735833Y-16613024D01*
X13745357Y-16632071D01*
X13745357Y-16641595D01*
X13735833Y-16660643D01*
X13726309Y-16670167D01*
X13707262Y-16679690D01*
X13669167Y-16679690D01*
X13650119Y-16689214D01*
X13640595Y-16698738D01*
X13631071Y-16717786D01*
X13631071Y-16755881D01*
X13640595Y-16774928D01*
X13650119Y-16784452D01*
X13669167Y-16793976D01*
X13707262Y-16793976D01*
X13726309Y-16784452D01*
X13735833Y-16774928D01*
X13745357Y-16755881D01*
X13745357Y-16717786D01*
X13735833Y-16698738D01*
X13726309Y-16689214D01*
X13707262Y-16679690D01*
X13983452Y-16793976D02*
X13983452Y-16593976D01*
X14069167Y-16793976D02*
X14069167Y-16689214D01*
X14059643Y-16670167D01*
X14040595Y-16660643D01*
X14012024Y-16660643D01*
X13992976Y-16670167D01*
X13983452Y-16679690D01*
X14192976Y-16793976D02*
X14173928Y-16784452D01*
X14164405Y-16774928D01*
X14154881Y-16755881D01*
X14154881Y-16698738D01*
X14164405Y-16679690D01*
X14173928Y-16670167D01*
X14192976Y-16660643D01*
X14221548Y-16660643D01*
X14240595Y-16670167D01*
X14250119Y-16679690D01*
X14259643Y-16698738D01*
X14259643Y-16755881D01*
X14250119Y-16774928D01*
X14240595Y-16784452D01*
X14221548Y-16793976D01*
X14192976Y-16793976D01*
X14373928Y-16793976D02*
X14354881Y-16784452D01*
X14345357Y-16765405D01*
X14345357Y-16593976D01*
X14526309Y-16784452D02*
X14507262Y-16793976D01*
X14469167Y-16793976D01*
X14450119Y-16784452D01*
X14440595Y-16765405D01*
X14440595Y-16689214D01*
X14450119Y-16670167D01*
X14469167Y-16660643D01*
X14507262Y-16660643D01*
X14526309Y-16670167D01*
X14535833Y-16689214D01*
X14535833Y-16708262D01*
X14440595Y-16727309D01*
X14612024Y-16784452D02*
X14631071Y-16793976D01*
X14669167Y-16793976D01*
X14688214Y-16784452D01*
X14697738Y-16765405D01*
X14697738Y-16755881D01*
X14688214Y-16736833D01*
X14669167Y-16727309D01*
X14640595Y-16727309D01*
X14621548Y-16717786D01*
X14612024Y-16698738D01*
X14612024Y-16689214D01*
X14621548Y-16670167D01*
X14640595Y-16660643D01*
X14669167Y-16660643D01*
X14688214Y-16670167D01*
X14764405Y-16870167D02*
X14773928Y-16860643D01*
X14792976Y-16832071D01*
X14802500Y-16813024D01*
X14812024Y-16784452D01*
X14821548Y-16736833D01*
X14821548Y-16698738D01*
X14812024Y-16651119D01*
X14802500Y-16622548D01*
X14792976Y-16603500D01*
X14773928Y-16574928D01*
X14764405Y-16565405D01*
X9792500Y-16867500D02*
X9992500Y-17067500D01*
X9992500Y-16867500D02*
X9792500Y-17067500D01*
X9992500Y-16967500D02*
G75*
G03*
X9992500Y-16967500I-100000J0D01*
G01*
X10240595Y-16877024D02*
X10250119Y-16867500D01*
X10269167Y-16857976D01*
X10316786Y-16857976D01*
X10335833Y-16867500D01*
X10345357Y-16877024D01*
X10354881Y-16896071D01*
X10354881Y-16915119D01*
X10345357Y-16943690D01*
X10231071Y-17057976D01*
X10354881Y-17057976D01*
X10440595Y-17038929D02*
X10450119Y-17048452D01*
X10440595Y-17057976D01*
X10431071Y-17048452D01*
X10440595Y-17038929D01*
X10440595Y-17057976D01*
X10573929Y-16857976D02*
X10592976Y-16857976D01*
X10612024Y-16867500D01*
X10621548Y-16877024D01*
X10631071Y-16896071D01*
X10640595Y-16934167D01*
X10640595Y-16981786D01*
X10631071Y-17019881D01*
X10621548Y-17038929D01*
X10612024Y-17048452D01*
X10592976Y-17057976D01*
X10573929Y-17057976D01*
X10554881Y-17048452D01*
X10545357Y-17038929D01*
X10535833Y-17019881D01*
X10526310Y-16981786D01*
X10526310Y-16934167D01*
X10535833Y-16896071D01*
X10545357Y-16877024D01*
X10554881Y-16867500D01*
X10573929Y-16857976D01*
X10764405Y-16857976D02*
X10783452Y-16857976D01*
X10802500Y-16867500D01*
X10812024Y-16877024D01*
X10821548Y-16896071D01*
X10831071Y-16934167D01*
X10831071Y-16981786D01*
X10821548Y-17019881D01*
X10812024Y-17038929D01*
X10802500Y-17048452D01*
X10783452Y-17057976D01*
X10764405Y-17057976D01*
X10745357Y-17048452D01*
X10735833Y-17038929D01*
X10726310Y-17019881D01*
X10716786Y-16981786D01*
X10716786Y-16934167D01*
X10726310Y-16896071D01*
X10735833Y-16877024D01*
X10745357Y-16867500D01*
X10764405Y-16857976D01*
X10954881Y-16857976D02*
X10973929Y-16857976D01*
X10992976Y-16867500D01*
X11002500Y-16877024D01*
X11012024Y-16896071D01*
X11021548Y-16934167D01*
X11021548Y-16981786D01*
X11012024Y-17019881D01*
X11002500Y-17038929D01*
X10992976Y-17048452D01*
X10973929Y-17057976D01*
X10954881Y-17057976D01*
X10935833Y-17048452D01*
X10926310Y-17038929D01*
X10916786Y-17019881D01*
X10907262Y-16981786D01*
X10907262Y-16934167D01*
X10916786Y-16896071D01*
X10926310Y-16877024D01*
X10935833Y-16867500D01*
X10954881Y-16857976D01*
X11107262Y-17057976D02*
X11107262Y-16924643D01*
X11107262Y-16943690D02*
X11116786Y-16934167D01*
X11135833Y-16924643D01*
X11164405Y-16924643D01*
X11183452Y-16934167D01*
X11192976Y-16953214D01*
X11192976Y-17057976D01*
X11192976Y-16953214D02*
X11202500Y-16934167D01*
X11221548Y-16924643D01*
X11250119Y-16924643D01*
X11269167Y-16934167D01*
X11278690Y-16953214D01*
X11278690Y-17057976D01*
X11373928Y-17057976D02*
X11373928Y-16924643D01*
X11373928Y-16943690D02*
X11383452Y-16934167D01*
X11402500Y-16924643D01*
X11431071Y-16924643D01*
X11450119Y-16934167D01*
X11459643Y-16953214D01*
X11459643Y-17057976D01*
X11459643Y-16953214D02*
X11469167Y-16934167D01*
X11488214Y-16924643D01*
X11516786Y-16924643D01*
X11535833Y-16934167D01*
X11545357Y-16953214D01*
X11545357Y-17057976D01*
X11935833Y-16848452D02*
X11764405Y-17105595D01*
X12192976Y-16857976D02*
X12212024Y-16857976D01*
X12231071Y-16867500D01*
X12240595Y-16877024D01*
X12250119Y-16896071D01*
X12259643Y-16934167D01*
X12259643Y-16981786D01*
X12250119Y-17019881D01*
X12240595Y-17038929D01*
X12231071Y-17048452D01*
X12212024Y-17057976D01*
X12192976Y-17057976D01*
X12173928Y-17048452D01*
X12164405Y-17038929D01*
X12154881Y-17019881D01*
X12145357Y-16981786D01*
X12145357Y-16934167D01*
X12154881Y-16896071D01*
X12164405Y-16877024D01*
X12173928Y-16867500D01*
X12192976Y-16857976D01*
X12345357Y-17038929D02*
X12354881Y-17048452D01*
X12345357Y-17057976D01*
X12335833Y-17048452D01*
X12345357Y-17038929D01*
X12345357Y-17057976D01*
X12478690Y-16857976D02*
X12497738Y-16857976D01*
X12516786Y-16867500D01*
X12526309Y-16877024D01*
X12535833Y-16896071D01*
X12545357Y-16934167D01*
X12545357Y-16981786D01*
X12535833Y-17019881D01*
X12526309Y-17038929D01*
X12516786Y-17048452D01*
X12497738Y-17057976D01*
X12478690Y-17057976D01*
X12459643Y-17048452D01*
X12450119Y-17038929D01*
X12440595Y-17019881D01*
X12431071Y-16981786D01*
X12431071Y-16934167D01*
X12440595Y-16896071D01*
X12450119Y-16877024D01*
X12459643Y-16867500D01*
X12478690Y-16857976D01*
X12612024Y-16857976D02*
X12745357Y-16857976D01*
X12659643Y-17057976D01*
X12850119Y-16943690D02*
X12831071Y-16934167D01*
X12821548Y-16924643D01*
X12812024Y-16905595D01*
X12812024Y-16896071D01*
X12821548Y-16877024D01*
X12831071Y-16867500D01*
X12850119Y-16857976D01*
X12888214Y-16857976D01*
X12907262Y-16867500D01*
X12916786Y-16877024D01*
X12926309Y-16896071D01*
X12926309Y-16905595D01*
X12916786Y-16924643D01*
X12907262Y-16934167D01*
X12888214Y-16943690D01*
X12850119Y-16943690D01*
X12831071Y-16953214D01*
X12821548Y-16962738D01*
X12812024Y-16981786D01*
X12812024Y-17019881D01*
X12821548Y-17038929D01*
X12831071Y-17048452D01*
X12850119Y-17057976D01*
X12888214Y-17057976D01*
X12907262Y-17048452D01*
X12916786Y-17038929D01*
X12926309Y-17019881D01*
X12926309Y-16981786D01*
X12916786Y-16962738D01*
X12907262Y-16953214D01*
X12888214Y-16943690D01*
X12992976Y-16857976D02*
X13126309Y-16857976D01*
X13040595Y-17057976D01*
X13192976Y-16857976D02*
X13192976Y-16896071D01*
X13269167Y-16857976D02*
X13269167Y-16896071D01*
X13564405Y-17134167D02*
X13554881Y-17124643D01*
X13535833Y-17096071D01*
X13526309Y-17077024D01*
X13516786Y-17048452D01*
X13507262Y-17000833D01*
X13507262Y-16962738D01*
X13516786Y-16915119D01*
X13526309Y-16886548D01*
X13535833Y-16867500D01*
X13554881Y-16838929D01*
X13564405Y-16829405D01*
X13745357Y-17057976D02*
X13631071Y-17057976D01*
X13688214Y-17057976D02*
X13688214Y-16857976D01*
X13669167Y-16886548D01*
X13650119Y-16905595D01*
X13631071Y-16915119D01*
X13983452Y-17057976D02*
X13983452Y-16857976D01*
X14069167Y-17057976D02*
X14069167Y-16953214D01*
X14059643Y-16934167D01*
X14040595Y-16924643D01*
X14012024Y-16924643D01*
X13992976Y-16934167D01*
X13983452Y-16943690D01*
X14192976Y-17057976D02*
X14173928Y-17048452D01*
X14164405Y-17038929D01*
X14154881Y-17019881D01*
X14154881Y-16962738D01*
X14164405Y-16943690D01*
X14173928Y-16934167D01*
X14192976Y-16924643D01*
X14221548Y-16924643D01*
X14240595Y-16934167D01*
X14250119Y-16943690D01*
X14259643Y-16962738D01*
X14259643Y-17019881D01*
X14250119Y-17038929D01*
X14240595Y-17048452D01*
X14221548Y-17057976D01*
X14192976Y-17057976D01*
X14373928Y-17057976D02*
X14354881Y-17048452D01*
X14345357Y-17029405D01*
X14345357Y-16857976D01*
X14526309Y-17048452D02*
X14507262Y-17057976D01*
X14469167Y-17057976D01*
X14450119Y-17048452D01*
X14440595Y-17029405D01*
X14440595Y-16953214D01*
X14450119Y-16934167D01*
X14469167Y-16924643D01*
X14507262Y-16924643D01*
X14526309Y-16934167D01*
X14535833Y-16953214D01*
X14535833Y-16972262D01*
X14440595Y-16991310D01*
X14602500Y-17134167D02*
X14612024Y-17124643D01*
X14631071Y-17096071D01*
X14640595Y-17077024D01*
X14650119Y-17048452D01*
X14659643Y-17000833D01*
X14659643Y-16962738D01*
X14650119Y-16915119D01*
X14640595Y-16886548D01*
X14631071Y-16867500D01*
X14612024Y-16838929D01*
X14602500Y-16829405D01*
M02*
