G04 #@! TF.GenerationSoftware,KiCad,Pcbnew,6.0.2+dfsg-1*
G04 #@! TF.CreationDate,2023-02-09T09:42:10+00:00*
G04 #@! TF.ProjectId,NixiePowerAlternate,4e697869-6550-46f7-9765-72416c746572,rev?*
G04 #@! TF.SameCoordinates,Original*
G04 #@! TF.FileFunction,Copper,L1,Top*
G04 #@! TF.FilePolarity,Positive*
%FSLAX46Y46*%
G04 Gerber Fmt 4.6, Leading zero omitted, Abs format (unit mm)*
G04 Created by KiCad (PCBNEW 6.0.2+dfsg-1) date 2023-02-09 09:42:10*
%MOMM*%
%LPD*%
G01*
G04 APERTURE LIST*
G04 Aperture macros list*
%AMRoundRect*
0 Rectangle with rounded corners*
0 $1 Rounding radius*
0 $2 $3 $4 $5 $6 $7 $8 $9 X,Y pos of 4 corners*
0 Add a 4 corners polygon primitive as box body*
4,1,4,$2,$3,$4,$5,$6,$7,$8,$9,$2,$3,0*
0 Add four circle primitives for the rounded corners*
1,1,$1+$1,$2,$3*
1,1,$1+$1,$4,$5*
1,1,$1+$1,$6,$7*
1,1,$1+$1,$8,$9*
0 Add four rect primitives between the rounded corners*
20,1,$1+$1,$2,$3,$4,$5,0*
20,1,$1+$1,$4,$5,$6,$7,0*
20,1,$1+$1,$6,$7,$8,$9,0*
20,1,$1+$1,$8,$9,$2,$3,0*%
G04 Aperture macros list end*
G04 #@! TA.AperFunction,SMDPad,CuDef*
%ADD10RoundRect,0.250000X-0.475000X0.337500X-0.475000X-0.337500X0.475000X-0.337500X0.475000X0.337500X0*%
G04 #@! TD*
G04 #@! TA.AperFunction,SMDPad,CuDef*
%ADD11RoundRect,0.250000X-0.350000X-0.450000X0.350000X-0.450000X0.350000X0.450000X-0.350000X0.450000X0*%
G04 #@! TD*
G04 #@! TA.AperFunction,SMDPad,CuDef*
%ADD12R,1.780000X3.560000*%
G04 #@! TD*
G04 #@! TA.AperFunction,SMDPad,CuDef*
%ADD13R,1.100000X4.600000*%
G04 #@! TD*
G04 #@! TA.AperFunction,SMDPad,CuDef*
%ADD14R,10.800000X9.400000*%
G04 #@! TD*
G04 #@! TA.AperFunction,SMDPad,CuDef*
%ADD15RoundRect,0.250000X0.350000X0.450000X-0.350000X0.450000X-0.350000X-0.450000X0.350000X-0.450000X0*%
G04 #@! TD*
G04 #@! TA.AperFunction,SMDPad,CuDef*
%ADD16RoundRect,0.250000X-0.650000X0.412500X-0.650000X-0.412500X0.650000X-0.412500X0.650000X0.412500X0*%
G04 #@! TD*
G04 #@! TA.AperFunction,SMDPad,CuDef*
%ADD17RoundRect,0.250001X-0.924999X0.499999X-0.924999X-0.499999X0.924999X-0.499999X0.924999X0.499999X0*%
G04 #@! TD*
G04 #@! TA.AperFunction,SMDPad,CuDef*
%ADD18RoundRect,0.250000X0.400000X0.625000X-0.400000X0.625000X-0.400000X-0.625000X0.400000X-0.625000X0*%
G04 #@! TD*
G04 #@! TA.AperFunction,SMDPad,CuDef*
%ADD19R,2.300000X2.500000*%
G04 #@! TD*
G04 #@! TA.AperFunction,SMDPad,CuDef*
%ADD20RoundRect,0.250001X0.924999X-0.499999X0.924999X0.499999X-0.924999X0.499999X-0.924999X-0.499999X0*%
G04 #@! TD*
G04 #@! TA.AperFunction,SMDPad,CuDef*
%ADD21RoundRect,0.250000X0.412500X0.650000X-0.412500X0.650000X-0.412500X-0.650000X0.412500X-0.650000X0*%
G04 #@! TD*
G04 #@! TA.AperFunction,SMDPad,CuDef*
%ADD22R,3.500000X1.800000*%
G04 #@! TD*
G04 #@! TA.AperFunction,ComponentPad*
%ADD23R,3.500000X3.500000*%
G04 #@! TD*
G04 #@! TA.AperFunction,ComponentPad*
%ADD24RoundRect,0.750000X1.000000X-0.750000X1.000000X0.750000X-1.000000X0.750000X-1.000000X-0.750000X0*%
G04 #@! TD*
G04 #@! TA.AperFunction,ComponentPad*
%ADD25RoundRect,0.875000X0.875000X-0.875000X0.875000X0.875000X-0.875000X0.875000X-0.875000X-0.875000X0*%
G04 #@! TD*
G04 #@! TA.AperFunction,SMDPad,CuDef*
%ADD26RoundRect,0.250000X0.250000X0.475000X-0.250000X0.475000X-0.250000X-0.475000X0.250000X-0.475000X0*%
G04 #@! TD*
G04 #@! TA.AperFunction,ComponentPad*
%ADD27C,4.000000*%
G04 #@! TD*
G04 #@! TA.AperFunction,SMDPad,CuDef*
%ADD28R,1.550000X0.600000*%
G04 #@! TD*
G04 #@! TA.AperFunction,ComponentPad*
%ADD29C,0.600000*%
G04 #@! TD*
G04 #@! TA.AperFunction,SMDPad,CuDef*
%ADD30R,2.600000X3.100000*%
G04 #@! TD*
G04 #@! TA.AperFunction,SMDPad,CuDef*
%ADD31R,2.950000X4.500000*%
G04 #@! TD*
G04 #@! TA.AperFunction,SMDPad,CuDef*
%ADD32R,2.000000X1.500000*%
G04 #@! TD*
G04 #@! TA.AperFunction,SMDPad,CuDef*
%ADD33R,2.000000X3.800000*%
G04 #@! TD*
G04 #@! TA.AperFunction,SMDPad,CuDef*
%ADD34RoundRect,0.150000X-0.725000X-0.150000X0.725000X-0.150000X0.725000X0.150000X-0.725000X0.150000X0*%
G04 #@! TD*
G04 #@! TA.AperFunction,SMDPad,CuDef*
%ADD35RoundRect,0.250000X-0.625000X0.400000X-0.625000X-0.400000X0.625000X-0.400000X0.625000X0.400000X0*%
G04 #@! TD*
G04 #@! TA.AperFunction,ComponentPad*
%ADD36R,2.600000X2.600000*%
G04 #@! TD*
G04 #@! TA.AperFunction,ComponentPad*
%ADD37C,2.600000*%
G04 #@! TD*
G04 #@! TA.AperFunction,SMDPad,CuDef*
%ADD38RoundRect,0.250000X-0.337500X-0.475000X0.337500X-0.475000X0.337500X0.475000X-0.337500X0.475000X0*%
G04 #@! TD*
G04 #@! TA.AperFunction,SMDPad,CuDef*
%ADD39RoundRect,0.250000X0.450000X-0.350000X0.450000X0.350000X-0.450000X0.350000X-0.450000X-0.350000X0*%
G04 #@! TD*
G04 #@! TA.AperFunction,ComponentPad*
%ADD40R,2.000000X2.000000*%
G04 #@! TD*
G04 #@! TA.AperFunction,ComponentPad*
%ADD41C,2.000000*%
G04 #@! TD*
G04 #@! TA.AperFunction,SMDPad,CuDef*
%ADD42RoundRect,0.250000X-0.250000X-0.475000X0.250000X-0.475000X0.250000X0.475000X-0.250000X0.475000X0*%
G04 #@! TD*
G04 #@! TA.AperFunction,SMDPad,CuDef*
%ADD43RoundRect,0.750000X-0.750000X2.000000X-0.750000X-2.000000X0.750000X-2.000000X0.750000X2.000000X0*%
G04 #@! TD*
G04 #@! TA.AperFunction,ViaPad*
%ADD44C,0.600000*%
G04 #@! TD*
G04 #@! TA.AperFunction,ViaPad*
%ADD45C,0.800000*%
G04 #@! TD*
G04 #@! TA.AperFunction,Conductor*
%ADD46C,1.000000*%
G04 #@! TD*
G04 #@! TA.AperFunction,Conductor*
%ADD47C,0.400000*%
G04 #@! TD*
G04 #@! TA.AperFunction,Conductor*
%ADD48C,1.400000*%
G04 #@! TD*
G04 #@! TA.AperFunction,Conductor*
%ADD49C,0.800000*%
G04 #@! TD*
G04 #@! TA.AperFunction,Conductor*
%ADD50C,0.600000*%
G04 #@! TD*
G04 #@! TA.AperFunction,Conductor*
%ADD51C,1.200000*%
G04 #@! TD*
G04 APERTURE END LIST*
D10*
X153900000Y-143700000D03*
X153900000Y-145775000D03*
D11*
X162500000Y-135000000D03*
X164500000Y-135000000D03*
D12*
X160400000Y-143500000D03*
X169800000Y-143500000D03*
D13*
X159460000Y-115775000D03*
D14*
X162000000Y-106625000D03*
D13*
X164540000Y-115775000D03*
D15*
X153000000Y-128000000D03*
X151000000Y-128000000D03*
D16*
X139000000Y-138437500D03*
X139000000Y-141562500D03*
X135000000Y-138437500D03*
X135000000Y-141562500D03*
D17*
X174000000Y-139475000D03*
X174000000Y-142725000D03*
D18*
X159550000Y-128000000D03*
X156450000Y-128000000D03*
D19*
X172266450Y-118150000D03*
X172266450Y-113850000D03*
D20*
X186000000Y-129125000D03*
X186000000Y-125875000D03*
D21*
X159562500Y-132500000D03*
X156437500Y-132500000D03*
D22*
X148300000Y-145800000D03*
X143300000Y-145800000D03*
D23*
X121500000Y-136000000D03*
D24*
X121500000Y-142200000D03*
D25*
X126500000Y-139100000D03*
D26*
X155550000Y-122000000D03*
X153650000Y-122000000D03*
D27*
X134000000Y-117000000D03*
D28*
X153700000Y-139905000D03*
X153700000Y-138635000D03*
X153700000Y-137365000D03*
X153700000Y-136095000D03*
X148300000Y-136095000D03*
X148300000Y-137365000D03*
X148300000Y-138635000D03*
X148300000Y-139905000D03*
D29*
X150400000Y-137300000D03*
X151600000Y-137300000D03*
D30*
X151000000Y-138000000D03*
D29*
X151600000Y-136200000D03*
X150400000Y-138600000D03*
X150400000Y-136200000D03*
X151600000Y-138600000D03*
X151600000Y-139800000D03*
D31*
X151000000Y-138000000D03*
D29*
X150400000Y-139800000D03*
D32*
X174850000Y-126700000D03*
X174850000Y-129000000D03*
D33*
X181150000Y-129000000D03*
D32*
X174850000Y-131300000D03*
D34*
X159425000Y-121095000D03*
X159425000Y-122365000D03*
X159425000Y-123635000D03*
X159425000Y-124905000D03*
X164575000Y-124905000D03*
X164575000Y-123635000D03*
X164575000Y-122365000D03*
X164575000Y-121095000D03*
D35*
X168500000Y-120950000D03*
X168500000Y-124050000D03*
D17*
X185500000Y-139375000D03*
X185500000Y-142625000D03*
D36*
X105000000Y-120000000D03*
D37*
X105000000Y-125080000D03*
X105000000Y-130160000D03*
D38*
X174462500Y-134500000D03*
X176537500Y-134500000D03*
D36*
X194805000Y-118500000D03*
D37*
X194805000Y-113420000D03*
D39*
X157400000Y-138000000D03*
X157400000Y-136000000D03*
D40*
X121500000Y-108000000D03*
D41*
X121500000Y-113000000D03*
D42*
X164550000Y-128250000D03*
X166450000Y-128250000D03*
D36*
X194805000Y-136096000D03*
D37*
X194805000Y-131016000D03*
X194805000Y-125936000D03*
D17*
X179400000Y-139475000D03*
X179400000Y-142725000D03*
D16*
X143000000Y-138437500D03*
X143000000Y-141562500D03*
D43*
X149750000Y-108000000D03*
X140250000Y-108000000D03*
D40*
X182500000Y-118441807D03*
D41*
X182500000Y-113441807D03*
D44*
X174000000Y-145000000D03*
D45*
X175000000Y-124000000D03*
X167500000Y-127000000D03*
D44*
X185600000Y-145000000D03*
X188600000Y-125900000D03*
D45*
X166550000Y-124050000D03*
X188500000Y-142000000D03*
X152000000Y-122000000D03*
D44*
X179400000Y-144800000D03*
X166300000Y-135000000D03*
D45*
X176000000Y-136500000D03*
D44*
X149000000Y-128000000D03*
D45*
X149000000Y-125000000D03*
X158000000Y-125000000D03*
D46*
X155000000Y-119000000D02*
X155537500Y-119537500D01*
X140250000Y-108000000D02*
X151250000Y-119000000D01*
X155537500Y-119537500D02*
X155537500Y-122250000D01*
D47*
X159425000Y-122365000D02*
X155652500Y-122365000D01*
D46*
X151250000Y-119000000D02*
X155000000Y-119000000D01*
D48*
X121500000Y-108000000D02*
X140250000Y-108000000D01*
D47*
X155652500Y-122365000D02*
X155537500Y-122250000D01*
D49*
X186000000Y-125875000D02*
X188575000Y-125875000D01*
D46*
X176537500Y-134500000D02*
X176537500Y-135962500D01*
D50*
X166000000Y-123500000D02*
X165865000Y-123635000D01*
D46*
X153650000Y-122000000D02*
X152000000Y-122000000D01*
D49*
X188575000Y-125875000D02*
X188600000Y-125900000D01*
D50*
X151000000Y-128000000D02*
X149000000Y-128000000D01*
D46*
X174850000Y-124150000D02*
X175000000Y-124000000D01*
X176537500Y-135962500D02*
X176000000Y-136500000D01*
D50*
X166450000Y-128050000D02*
X167500000Y-127000000D01*
X166550000Y-124050000D02*
X166000000Y-123500000D01*
X164575000Y-122365000D02*
X165865000Y-122365000D01*
D49*
X164500000Y-135000000D02*
X166300000Y-135000000D01*
D50*
X166450000Y-128250000D02*
X166450000Y-128050000D01*
D46*
X174850000Y-126700000D02*
X174850000Y-124150000D01*
D50*
X165865000Y-122365000D02*
X166000000Y-122500000D01*
D47*
X150365000Y-137365000D02*
X151000000Y-138000000D01*
X148300000Y-137365000D02*
X150365000Y-137365000D01*
D50*
X166000000Y-122500000D02*
X166000000Y-123500000D01*
X168500000Y-124050000D02*
X166550000Y-124050000D01*
X165865000Y-123635000D02*
X164575000Y-123635000D01*
D46*
X174462500Y-134500000D02*
X174462500Y-131687500D01*
X185400000Y-139475000D02*
X185500000Y-139375000D01*
X174462500Y-131687500D02*
X174850000Y-131300000D01*
X174000000Y-134962500D02*
X174462500Y-134500000D01*
X174000000Y-139475000D02*
X174000000Y-134962500D01*
X167800000Y-138000000D02*
X169800000Y-140000000D01*
X169800000Y-140000000D02*
X170325000Y-139475000D01*
X157400000Y-138000000D02*
X167800000Y-138000000D01*
X174000000Y-139475000D02*
X179400000Y-139475000D01*
D51*
X185500000Y-139375000D02*
X191526000Y-139375000D01*
D46*
X170325000Y-139475000D02*
X174000000Y-139475000D01*
X179400000Y-139475000D02*
X185400000Y-139475000D01*
D51*
X191526000Y-139375000D02*
X194805000Y-136096000D01*
D46*
X169800000Y-143500000D02*
X169800000Y-140000000D01*
D47*
X148920000Y-125080000D02*
X105000000Y-125080000D01*
X158000000Y-125000000D02*
X159330000Y-125000000D01*
X149000000Y-125000000D02*
X148920000Y-125080000D01*
X159330000Y-125000000D02*
X159425000Y-124905000D01*
X159460000Y-121060000D02*
X159425000Y-121095000D01*
X159460000Y-115775000D02*
X159460000Y-121060000D01*
X164540000Y-121060000D02*
X164575000Y-121095000D01*
X164540000Y-115775000D02*
X164540000Y-121060000D01*
X168355000Y-121095000D02*
X168500000Y-120950000D01*
X164575000Y-121095000D02*
X168355000Y-121095000D01*
D50*
X186000000Y-129125000D02*
X181275000Y-129125000D01*
D49*
X186000000Y-129125000D02*
X192914000Y-129125000D01*
D46*
X174850000Y-129000000D02*
X181150000Y-129000000D01*
D49*
X192914000Y-129125000D02*
X194805000Y-131016000D01*
D50*
X181275000Y-129125000D02*
X181150000Y-129000000D01*
X168000000Y-131000000D02*
X162550000Y-131000000D01*
X172266450Y-126733550D02*
X168000000Y-131000000D01*
D47*
X159550000Y-128000000D02*
X159550000Y-132487500D01*
D51*
X182400000Y-118500000D02*
X172616450Y-118500000D01*
D47*
X159550000Y-132487500D02*
X159562500Y-132500000D01*
D50*
X172266450Y-118150000D02*
X172266450Y-126733550D01*
X162550000Y-131000000D02*
X159550000Y-128000000D01*
D51*
X172616450Y-118500000D02*
X172266450Y-118150000D01*
D47*
X157305000Y-136095000D02*
X157400000Y-136000000D01*
D50*
X161100000Y-135000000D02*
X160100000Y-136000000D01*
X162500000Y-135000000D02*
X161100000Y-135000000D01*
X160100000Y-136000000D02*
X157400000Y-136000000D01*
D47*
X153700000Y-136095000D02*
X157305000Y-136095000D01*
X157865000Y-123635000D02*
X156450000Y-125050000D01*
X156450000Y-125050000D02*
X156450000Y-128000000D01*
X156450000Y-132487500D02*
X156437500Y-132500000D01*
X159425000Y-123635000D02*
X157865000Y-123635000D01*
X156450000Y-128000000D02*
X153000000Y-128000000D01*
X156450000Y-128000000D02*
X156450000Y-132487500D01*
X164575000Y-128225000D02*
X164550000Y-128250000D01*
X164575000Y-124905000D02*
X164575000Y-128225000D01*
X153900000Y-140105000D02*
X153700000Y-139905000D01*
X153900000Y-143700000D02*
X153900000Y-140105000D01*
G04 #@! TA.AperFunction,Conductor*
G36*
X145442121Y-132520002D02*
G01*
X145488614Y-132573658D01*
X145500000Y-132626000D01*
X145500000Y-138000000D01*
X146926221Y-138000000D01*
X146994342Y-138020002D01*
X147040835Y-138073658D01*
X147050939Y-138143932D01*
X147044203Y-138170230D01*
X147026522Y-138217394D01*
X147022895Y-138232649D01*
X147017369Y-138283514D01*
X147017000Y-138290328D01*
X147017000Y-138362885D01*
X147021475Y-138378124D01*
X147022865Y-138379329D01*
X147030548Y-138381000D01*
X148428000Y-138381000D01*
X148496121Y-138401002D01*
X148542614Y-138454658D01*
X148554000Y-138507000D01*
X148554000Y-138763000D01*
X148533998Y-138831121D01*
X148480342Y-138877614D01*
X148428000Y-138889000D01*
X147035116Y-138889000D01*
X147019877Y-138893475D01*
X147018672Y-138894865D01*
X147017385Y-138900782D01*
X146983360Y-138963095D01*
X146921048Y-138997120D01*
X146894264Y-139000000D01*
X145500000Y-139000000D01*
X145500000Y-139674000D01*
X145479998Y-139742121D01*
X145426342Y-139788614D01*
X145374000Y-139800000D01*
X143973497Y-139800000D01*
X143905376Y-139779998D01*
X143858883Y-139726342D01*
X143848779Y-139656068D01*
X143878273Y-139591488D01*
X143933621Y-139554476D01*
X143966784Y-139543412D01*
X143979962Y-139537239D01*
X144117807Y-139451937D01*
X144129208Y-139442901D01*
X144243739Y-139328171D01*
X144252751Y-139316760D01*
X144337816Y-139178757D01*
X144343963Y-139165576D01*
X144395138Y-139011290D01*
X144398005Y-138997914D01*
X144407672Y-138903562D01*
X144408000Y-138897146D01*
X144408000Y-138709615D01*
X144403525Y-138694376D01*
X144402135Y-138693171D01*
X144394452Y-138691500D01*
X141610116Y-138691500D01*
X141594877Y-138695975D01*
X141593672Y-138697365D01*
X141592001Y-138705048D01*
X141592001Y-138897095D01*
X141592338Y-138903614D01*
X141602257Y-138999206D01*
X141605149Y-139012600D01*
X141656588Y-139166784D01*
X141662761Y-139179962D01*
X141748063Y-139317807D01*
X141757099Y-139329208D01*
X141871829Y-139443739D01*
X141883240Y-139452751D01*
X142021243Y-139537816D01*
X142034426Y-139543964D01*
X142065911Y-139554407D01*
X142124271Y-139594838D01*
X142151508Y-139660402D01*
X142138975Y-139730283D01*
X142090650Y-139782295D01*
X142026244Y-139800000D01*
X139973497Y-139800000D01*
X139905376Y-139779998D01*
X139858883Y-139726342D01*
X139848779Y-139656068D01*
X139878273Y-139591488D01*
X139933621Y-139554476D01*
X139966784Y-139543412D01*
X139979962Y-139537239D01*
X140117807Y-139451937D01*
X140129208Y-139442901D01*
X140243739Y-139328171D01*
X140252751Y-139316760D01*
X140337816Y-139178757D01*
X140343963Y-139165576D01*
X140395138Y-139011290D01*
X140398005Y-138997914D01*
X140407672Y-138903562D01*
X140408000Y-138897146D01*
X140408000Y-138709615D01*
X140403525Y-138694376D01*
X140402135Y-138693171D01*
X140394452Y-138691500D01*
X137610116Y-138691500D01*
X137594877Y-138695975D01*
X137593672Y-138697365D01*
X137592001Y-138705048D01*
X137592001Y-138897095D01*
X137592338Y-138903614D01*
X137602257Y-138999206D01*
X137605149Y-139012600D01*
X137656588Y-139166784D01*
X137662761Y-139179962D01*
X137748063Y-139317807D01*
X137757099Y-139329208D01*
X137871829Y-139443739D01*
X137883240Y-139452751D01*
X138021243Y-139537816D01*
X138034426Y-139543964D01*
X138065911Y-139554407D01*
X138124271Y-139594838D01*
X138151508Y-139660402D01*
X138138975Y-139730283D01*
X138090650Y-139782295D01*
X138026244Y-139800000D01*
X135973497Y-139800000D01*
X135905376Y-139779998D01*
X135858883Y-139726342D01*
X135848779Y-139656068D01*
X135878273Y-139591488D01*
X135933621Y-139554476D01*
X135966784Y-139543412D01*
X135979962Y-139537239D01*
X136117807Y-139451937D01*
X136129208Y-139442901D01*
X136243739Y-139328171D01*
X136252751Y-139316760D01*
X136337816Y-139178757D01*
X136343963Y-139165576D01*
X136395138Y-139011290D01*
X136398005Y-138997914D01*
X136407672Y-138903562D01*
X136408000Y-138897146D01*
X136408000Y-138709615D01*
X136403525Y-138694376D01*
X136402135Y-138693171D01*
X136394452Y-138691500D01*
X133610116Y-138691500D01*
X133594877Y-138695975D01*
X133593672Y-138697365D01*
X133592001Y-138705048D01*
X133592001Y-138897095D01*
X133592338Y-138903614D01*
X133602257Y-138999206D01*
X133605149Y-139012600D01*
X133656588Y-139166784D01*
X133662761Y-139179962D01*
X133748063Y-139317807D01*
X133757099Y-139329208D01*
X133871829Y-139443739D01*
X133883240Y-139452751D01*
X134021243Y-139537816D01*
X134034426Y-139543964D01*
X134065911Y-139554407D01*
X134124271Y-139594838D01*
X134151508Y-139660402D01*
X134138975Y-139730283D01*
X134090650Y-139782295D01*
X134026244Y-139800000D01*
X131126000Y-139800000D01*
X131057879Y-139779998D01*
X131011386Y-139726342D01*
X131000000Y-139674000D01*
X131000000Y-138165385D01*
X133592000Y-138165385D01*
X133596475Y-138180624D01*
X133597865Y-138181829D01*
X133605548Y-138183500D01*
X134727885Y-138183500D01*
X134743124Y-138179025D01*
X134744329Y-138177635D01*
X134746000Y-138169952D01*
X134746000Y-138165385D01*
X135254000Y-138165385D01*
X135258475Y-138180624D01*
X135259865Y-138181829D01*
X135267548Y-138183500D01*
X136389884Y-138183500D01*
X136405123Y-138179025D01*
X136406328Y-138177635D01*
X136407999Y-138169952D01*
X136407999Y-138165385D01*
X137592000Y-138165385D01*
X137596475Y-138180624D01*
X137597865Y-138181829D01*
X137605548Y-138183500D01*
X138727885Y-138183500D01*
X138743124Y-138179025D01*
X138744329Y-138177635D01*
X138746000Y-138169952D01*
X138746000Y-138165385D01*
X139254000Y-138165385D01*
X139258475Y-138180624D01*
X139259865Y-138181829D01*
X139267548Y-138183500D01*
X140389884Y-138183500D01*
X140405123Y-138179025D01*
X140406328Y-138177635D01*
X140407999Y-138169952D01*
X140407999Y-138165385D01*
X141592000Y-138165385D01*
X141596475Y-138180624D01*
X141597865Y-138181829D01*
X141605548Y-138183500D01*
X142727885Y-138183500D01*
X142743124Y-138179025D01*
X142744329Y-138177635D01*
X142746000Y-138169952D01*
X142746000Y-138165385D01*
X143254000Y-138165385D01*
X143258475Y-138180624D01*
X143259865Y-138181829D01*
X143267548Y-138183500D01*
X144389884Y-138183500D01*
X144405123Y-138179025D01*
X144406328Y-138177635D01*
X144407999Y-138169952D01*
X144407999Y-137977905D01*
X144407662Y-137971386D01*
X144397743Y-137875794D01*
X144394851Y-137862400D01*
X144343412Y-137708216D01*
X144337239Y-137695038D01*
X144251937Y-137557193D01*
X144242901Y-137545792D01*
X144128171Y-137431261D01*
X144116760Y-137422249D01*
X143978757Y-137337184D01*
X143965576Y-137331037D01*
X143811290Y-137279862D01*
X143797914Y-137276995D01*
X143703562Y-137267328D01*
X143697145Y-137267000D01*
X143272115Y-137267000D01*
X143256876Y-137271475D01*
X143255671Y-137272865D01*
X143254000Y-137280548D01*
X143254000Y-138165385D01*
X142746000Y-138165385D01*
X142746000Y-137285116D01*
X142741525Y-137269877D01*
X142740135Y-137268672D01*
X142732452Y-137267001D01*
X142302905Y-137267001D01*
X142296386Y-137267338D01*
X142200794Y-137277257D01*
X142187400Y-137280149D01*
X142033216Y-137331588D01*
X142020038Y-137337761D01*
X141882193Y-137423063D01*
X141870792Y-137432099D01*
X141756261Y-137546829D01*
X141747249Y-137558240D01*
X141662184Y-137696243D01*
X141656037Y-137709424D01*
X141604862Y-137863710D01*
X141601995Y-137877086D01*
X141592328Y-137971438D01*
X141592000Y-137977855D01*
X141592000Y-138165385D01*
X140407999Y-138165385D01*
X140407999Y-137977905D01*
X140407662Y-137971386D01*
X140397743Y-137875794D01*
X140394851Y-137862400D01*
X140343412Y-137708216D01*
X140337239Y-137695038D01*
X140251937Y-137557193D01*
X140242901Y-137545792D01*
X140128171Y-137431261D01*
X140116760Y-137422249D01*
X139978757Y-137337184D01*
X139965576Y-137331037D01*
X139811290Y-137279862D01*
X139797914Y-137276995D01*
X139703562Y-137267328D01*
X139697145Y-137267000D01*
X139272115Y-137267000D01*
X139256876Y-137271475D01*
X139255671Y-137272865D01*
X139254000Y-137280548D01*
X139254000Y-138165385D01*
X138746000Y-138165385D01*
X138746000Y-137285116D01*
X138741525Y-137269877D01*
X138740135Y-137268672D01*
X138732452Y-137267001D01*
X138302905Y-137267001D01*
X138296386Y-137267338D01*
X138200794Y-137277257D01*
X138187400Y-137280149D01*
X138033216Y-137331588D01*
X138020038Y-137337761D01*
X137882193Y-137423063D01*
X137870792Y-137432099D01*
X137756261Y-137546829D01*
X137747249Y-137558240D01*
X137662184Y-137696243D01*
X137656037Y-137709424D01*
X137604862Y-137863710D01*
X137601995Y-137877086D01*
X137592328Y-137971438D01*
X137592000Y-137977855D01*
X137592000Y-138165385D01*
X136407999Y-138165385D01*
X136407999Y-137977905D01*
X136407662Y-137971386D01*
X136397743Y-137875794D01*
X136394851Y-137862400D01*
X136343412Y-137708216D01*
X136337239Y-137695038D01*
X136251937Y-137557193D01*
X136242901Y-137545792D01*
X136128171Y-137431261D01*
X136116760Y-137422249D01*
X135978757Y-137337184D01*
X135965576Y-137331037D01*
X135811290Y-137279862D01*
X135797914Y-137276995D01*
X135703562Y-137267328D01*
X135697145Y-137267000D01*
X135272115Y-137267000D01*
X135256876Y-137271475D01*
X135255671Y-137272865D01*
X135254000Y-137280548D01*
X135254000Y-138165385D01*
X134746000Y-138165385D01*
X134746000Y-137285116D01*
X134741525Y-137269877D01*
X134740135Y-137268672D01*
X134732452Y-137267001D01*
X134302905Y-137267001D01*
X134296386Y-137267338D01*
X134200794Y-137277257D01*
X134187400Y-137280149D01*
X134033216Y-137331588D01*
X134020038Y-137337761D01*
X133882193Y-137423063D01*
X133870792Y-137432099D01*
X133756261Y-137546829D01*
X133747249Y-137558240D01*
X133662184Y-137696243D01*
X133656037Y-137709424D01*
X133604862Y-137863710D01*
X133601995Y-137877086D01*
X133592328Y-137971438D01*
X133592000Y-137977855D01*
X133592000Y-138165385D01*
X131000000Y-138165385D01*
X131000000Y-136500000D01*
X124500000Y-136500000D01*
X124500000Y-137860016D01*
X124496544Y-137889323D01*
X124457729Y-138051622D01*
X124457728Y-138051628D01*
X124456534Y-138056621D01*
X124449500Y-138154747D01*
X124449500Y-138374000D01*
X124429498Y-138442121D01*
X124375842Y-138488614D01*
X124323500Y-138500000D01*
X123384390Y-138500000D01*
X123316269Y-138479998D01*
X123269776Y-138426342D01*
X123259672Y-138356068D01*
X123289166Y-138291488D01*
X123355247Y-138251417D01*
X123367602Y-138248480D01*
X123488054Y-138203324D01*
X123503649Y-138194786D01*
X123605724Y-138118285D01*
X123618285Y-138105724D01*
X123694786Y-138003649D01*
X123703324Y-137988054D01*
X123748478Y-137867606D01*
X123752105Y-137852351D01*
X123757631Y-137801486D01*
X123758000Y-137794672D01*
X123758000Y-136272115D01*
X123753525Y-136256876D01*
X123752135Y-136255671D01*
X123744452Y-136254000D01*
X119260116Y-136254000D01*
X119244877Y-136258475D01*
X119243672Y-136259865D01*
X119242001Y-136267548D01*
X119242001Y-137794669D01*
X119242371Y-137801490D01*
X119247895Y-137852352D01*
X119251521Y-137867604D01*
X119296676Y-137988054D01*
X119305214Y-138003649D01*
X119381715Y-138105724D01*
X119394276Y-138118285D01*
X119496351Y-138194786D01*
X119511946Y-138203324D01*
X119632394Y-138248478D01*
X119644754Y-138251417D01*
X119706400Y-138286634D01*
X119739221Y-138349589D01*
X119732795Y-138420295D01*
X119689163Y-138476302D01*
X119615608Y-138500000D01*
X118126000Y-138500000D01*
X118057879Y-138479998D01*
X118011386Y-138426342D01*
X118000000Y-138374000D01*
X118000000Y-135727885D01*
X119242000Y-135727885D01*
X119246475Y-135743124D01*
X119247865Y-135744329D01*
X119255548Y-135746000D01*
X121227885Y-135746000D01*
X121243124Y-135741525D01*
X121244329Y-135740135D01*
X121246000Y-135732452D01*
X121246000Y-135727885D01*
X121754000Y-135727885D01*
X121758475Y-135743124D01*
X121759865Y-135744329D01*
X121767548Y-135746000D01*
X123739884Y-135746000D01*
X123755123Y-135741525D01*
X123756328Y-135740135D01*
X123757999Y-135732452D01*
X123757999Y-134205331D01*
X123757629Y-134198510D01*
X123752105Y-134147648D01*
X123748479Y-134132396D01*
X123703324Y-134011946D01*
X123694786Y-133996351D01*
X123618285Y-133894276D01*
X123605724Y-133881715D01*
X123503649Y-133805214D01*
X123488054Y-133796676D01*
X123367606Y-133751522D01*
X123352351Y-133747895D01*
X123301486Y-133742369D01*
X123294672Y-133742000D01*
X121772115Y-133742000D01*
X121756876Y-133746475D01*
X121755671Y-133747865D01*
X121754000Y-133755548D01*
X121754000Y-135727885D01*
X121246000Y-135727885D01*
X121246000Y-133760116D01*
X121241525Y-133744877D01*
X121240135Y-133743672D01*
X121232452Y-133742001D01*
X119705331Y-133742001D01*
X119698510Y-133742371D01*
X119647648Y-133747895D01*
X119632396Y-133751521D01*
X119511946Y-133796676D01*
X119496351Y-133805214D01*
X119394276Y-133881715D01*
X119381715Y-133894276D01*
X119305214Y-133996351D01*
X119296676Y-134011946D01*
X119251522Y-134132394D01*
X119247895Y-134147649D01*
X119242369Y-134198514D01*
X119242000Y-134205328D01*
X119242000Y-135727885D01*
X118000000Y-135727885D01*
X118000000Y-132626000D01*
X118020002Y-132557879D01*
X118073658Y-132511386D01*
X118126000Y-132500000D01*
X145374000Y-132500000D01*
X145442121Y-132520002D01*
G37*
G04 #@! TD.AperFunction*
G04 #@! TA.AperFunction,Conductor*
G36*
X124217832Y-138820002D02*
G01*
X124232223Y-138830775D01*
X124247865Y-138844329D01*
X124255548Y-138846000D01*
X128739885Y-138846000D01*
X128757615Y-138840794D01*
X128813149Y-138805104D01*
X128848648Y-138800000D01*
X130574000Y-138800000D01*
X130642121Y-138820002D01*
X130688614Y-138873658D01*
X130700000Y-138926000D01*
X130700000Y-139674000D01*
X130706856Y-139737768D01*
X130718242Y-139790110D01*
X130729002Y-139827631D01*
X130732979Y-139834431D01*
X130782765Y-139919558D01*
X130795498Y-139966552D01*
X130800000Y-139981884D01*
X130800000Y-140000000D01*
X130813547Y-140000000D01*
X130826783Y-140002879D01*
X130826418Y-140004558D01*
X130874170Y-140019675D01*
X130875084Y-140017876D01*
X130973360Y-140067846D01*
X130978946Y-140069486D01*
X130978948Y-140069487D01*
X131020740Y-140081758D01*
X131041481Y-140087848D01*
X131045921Y-140088486D01*
X131045924Y-140088487D01*
X131121554Y-140099361D01*
X131121557Y-140099361D01*
X131126000Y-140100000D01*
X134026244Y-140100000D01*
X134030437Y-140099434D01*
X134030439Y-140099434D01*
X134058885Y-140095595D01*
X134105763Y-140089269D01*
X134109835Y-140088150D01*
X134109838Y-140088149D01*
X134167368Y-140072334D01*
X134170169Y-140071564D01*
X134172881Y-140070542D01*
X134172887Y-140070540D01*
X134187037Y-140065207D01*
X134221822Y-140052098D01*
X134258780Y-140024735D01*
X134325429Y-140000275D01*
X134333755Y-140000000D01*
X135659517Y-140000000D01*
X135721667Y-140019675D01*
X135722581Y-140017876D01*
X135820857Y-140067846D01*
X135826443Y-140069486D01*
X135826445Y-140069487D01*
X135868237Y-140081758D01*
X135888978Y-140087848D01*
X135893418Y-140088486D01*
X135893421Y-140088487D01*
X135969051Y-140099361D01*
X135969054Y-140099361D01*
X135973497Y-140100000D01*
X138026244Y-140100000D01*
X138030437Y-140099434D01*
X138030439Y-140099434D01*
X138058885Y-140095595D01*
X138105763Y-140089269D01*
X138109835Y-140088150D01*
X138109838Y-140088149D01*
X138167368Y-140072334D01*
X138170169Y-140071564D01*
X138172881Y-140070542D01*
X138172887Y-140070540D01*
X138187037Y-140065207D01*
X138221822Y-140052098D01*
X138258780Y-140024735D01*
X138325429Y-140000275D01*
X138333755Y-140000000D01*
X139659517Y-140000000D01*
X139721667Y-140019675D01*
X139722581Y-140017876D01*
X139820857Y-140067846D01*
X139826443Y-140069486D01*
X139826445Y-140069487D01*
X139868237Y-140081758D01*
X139888978Y-140087848D01*
X139893418Y-140088486D01*
X139893421Y-140088487D01*
X139969051Y-140099361D01*
X139969054Y-140099361D01*
X139973497Y-140100000D01*
X142026244Y-140100000D01*
X142030437Y-140099434D01*
X142030439Y-140099434D01*
X142058885Y-140095595D01*
X142105763Y-140089269D01*
X142109835Y-140088150D01*
X142109838Y-140088149D01*
X142167368Y-140072334D01*
X142170169Y-140071564D01*
X142172881Y-140070542D01*
X142172887Y-140070540D01*
X142187037Y-140065207D01*
X142221822Y-140052098D01*
X142258780Y-140024735D01*
X142325429Y-140000275D01*
X142333755Y-140000000D01*
X143659517Y-140000000D01*
X143721667Y-140019675D01*
X143722581Y-140017876D01*
X143820857Y-140067846D01*
X143826443Y-140069486D01*
X143826445Y-140069487D01*
X143868237Y-140081758D01*
X143888978Y-140087848D01*
X143893418Y-140088486D01*
X143893421Y-140088487D01*
X143969051Y-140099361D01*
X143969054Y-140099361D01*
X143973497Y-140100000D01*
X145374000Y-140100000D01*
X145437768Y-140093144D01*
X145441210Y-140092395D01*
X145447223Y-140091088D01*
X145518039Y-140096157D01*
X145574872Y-140138706D01*
X145599679Y-140205228D01*
X145600000Y-140214210D01*
X145600000Y-141512020D01*
X145580325Y-141574170D01*
X145582124Y-141575084D01*
X145532154Y-141673360D01*
X145530514Y-141678946D01*
X145530513Y-141678948D01*
X145513418Y-141737169D01*
X145512152Y-141741481D01*
X145511514Y-141745921D01*
X145511513Y-141745924D01*
X145501126Y-141818171D01*
X145500000Y-141826000D01*
X145500000Y-144350481D01*
X145479998Y-144418602D01*
X145426342Y-144465095D01*
X145356068Y-144475199D01*
X145312764Y-144457244D01*
X145311517Y-144459522D01*
X145288054Y-144446676D01*
X145167606Y-144401522D01*
X145152351Y-144397895D01*
X145101486Y-144392369D01*
X145094672Y-144392000D01*
X143572115Y-144392000D01*
X143556876Y-144396475D01*
X143555671Y-144397865D01*
X143554000Y-144405548D01*
X143554000Y-147189884D01*
X143558475Y-147205123D01*
X143559865Y-147206328D01*
X143567548Y-147207999D01*
X145094669Y-147207999D01*
X145101490Y-147207629D01*
X145152352Y-147202105D01*
X145167604Y-147198479D01*
X145288054Y-147153324D01*
X145311517Y-147140478D01*
X145313030Y-147143242D01*
X145364928Y-147123846D01*
X145434312Y-147138892D01*
X145484548Y-147189061D01*
X145500000Y-147249519D01*
X145500000Y-148074000D01*
X145506856Y-148137768D01*
X145518242Y-148190110D01*
X145529002Y-148227631D01*
X145532979Y-148234431D01*
X145582765Y-148319558D01*
X145600000Y-148383168D01*
X145600000Y-149474000D01*
X145579998Y-149542121D01*
X145526342Y-149588614D01*
X145474000Y-149600000D01*
X118126000Y-149600000D01*
X118057879Y-149579998D01*
X118011386Y-149526342D01*
X118000000Y-149474000D01*
X118000000Y-146744669D01*
X141042001Y-146744669D01*
X141042371Y-146751490D01*
X141047895Y-146802352D01*
X141051521Y-146817604D01*
X141096676Y-146938054D01*
X141105214Y-146953649D01*
X141181715Y-147055724D01*
X141194276Y-147068285D01*
X141296351Y-147144786D01*
X141311946Y-147153324D01*
X141432394Y-147198478D01*
X141447649Y-147202105D01*
X141498514Y-147207631D01*
X141505328Y-147208000D01*
X143027885Y-147208000D01*
X143043124Y-147203525D01*
X143044329Y-147202135D01*
X143046000Y-147194452D01*
X143046000Y-146072115D01*
X143041525Y-146056876D01*
X143040135Y-146055671D01*
X143032452Y-146054000D01*
X141060116Y-146054000D01*
X141044877Y-146058475D01*
X141043672Y-146059865D01*
X141042001Y-146067548D01*
X141042001Y-146744669D01*
X118000000Y-146744669D01*
X118000000Y-145527885D01*
X141042000Y-145527885D01*
X141046475Y-145543124D01*
X141047865Y-145544329D01*
X141055548Y-145546000D01*
X143027885Y-145546000D01*
X143043124Y-145541525D01*
X143044329Y-145540135D01*
X143046000Y-145532452D01*
X143046000Y-144410116D01*
X143041525Y-144394877D01*
X143040135Y-144393672D01*
X143032452Y-144392001D01*
X141505331Y-144392001D01*
X141498510Y-144392371D01*
X141447648Y-144397895D01*
X141432396Y-144401521D01*
X141311946Y-144446676D01*
X141296351Y-144455214D01*
X141194276Y-144531715D01*
X141181715Y-144544276D01*
X141105214Y-144646351D01*
X141096676Y-144661946D01*
X141051522Y-144782394D01*
X141047895Y-144797649D01*
X141042369Y-144848514D01*
X141042000Y-144855328D01*
X141042000Y-145527885D01*
X118000000Y-145527885D01*
X118000000Y-143009961D01*
X119242001Y-143009961D01*
X119242209Y-143015071D01*
X119253082Y-143148767D01*
X119254852Y-143159320D01*
X119307967Y-143366185D01*
X119311701Y-143376731D01*
X119400510Y-143570705D01*
X119406046Y-143580412D01*
X119527803Y-143755597D01*
X119534976Y-143764176D01*
X119685824Y-143915024D01*
X119694403Y-143922197D01*
X119869588Y-144043954D01*
X119879295Y-144049490D01*
X120073269Y-144138299D01*
X120083815Y-144142033D01*
X120290679Y-144195147D01*
X120301234Y-144196918D01*
X120434930Y-144207793D01*
X120440036Y-144208000D01*
X121227885Y-144208000D01*
X121243124Y-144203525D01*
X121244329Y-144202135D01*
X121246000Y-144194452D01*
X121246000Y-144189884D01*
X121754000Y-144189884D01*
X121758475Y-144205123D01*
X121759865Y-144206328D01*
X121767548Y-144207999D01*
X122559961Y-144207999D01*
X122565071Y-144207791D01*
X122698767Y-144196918D01*
X122709320Y-144195148D01*
X122916185Y-144142033D01*
X122926731Y-144138299D01*
X123120705Y-144049490D01*
X123130412Y-144043954D01*
X123305597Y-143922197D01*
X123314176Y-143915024D01*
X123465024Y-143764176D01*
X123472197Y-143755597D01*
X123593954Y-143580412D01*
X123599490Y-143570705D01*
X123688299Y-143376731D01*
X123692033Y-143366185D01*
X123745147Y-143159321D01*
X123746918Y-143148766D01*
X123757793Y-143015070D01*
X123758000Y-143009964D01*
X123758000Y-142472115D01*
X123753525Y-142456876D01*
X123752135Y-142455671D01*
X123744452Y-142454000D01*
X121772115Y-142454000D01*
X121756876Y-142458475D01*
X121755671Y-142459865D01*
X121754000Y-142467548D01*
X121754000Y-144189884D01*
X121246000Y-144189884D01*
X121246000Y-142472115D01*
X121241525Y-142456876D01*
X121240135Y-142455671D01*
X121232452Y-142454000D01*
X119260116Y-142454000D01*
X119244877Y-142458475D01*
X119243672Y-142459865D01*
X119242001Y-142467548D01*
X119242001Y-143009961D01*
X118000000Y-143009961D01*
X118000000Y-142022095D01*
X133592001Y-142022095D01*
X133592338Y-142028614D01*
X133602257Y-142124206D01*
X133605149Y-142137600D01*
X133656588Y-142291784D01*
X133662761Y-142304962D01*
X133748063Y-142442807D01*
X133757099Y-142454208D01*
X133871829Y-142568739D01*
X133883240Y-142577751D01*
X134021243Y-142662816D01*
X134034424Y-142668963D01*
X134188710Y-142720138D01*
X134202086Y-142723005D01*
X134296438Y-142732672D01*
X134302854Y-142733000D01*
X134727885Y-142733000D01*
X134743124Y-142728525D01*
X134744329Y-142727135D01*
X134746000Y-142719452D01*
X134746000Y-142714884D01*
X135254000Y-142714884D01*
X135258475Y-142730123D01*
X135259865Y-142731328D01*
X135267548Y-142732999D01*
X135697095Y-142732999D01*
X135703614Y-142732662D01*
X135799206Y-142722743D01*
X135812600Y-142719851D01*
X135966784Y-142668412D01*
X135979962Y-142662239D01*
X136117807Y-142576937D01*
X136129208Y-142567901D01*
X136243739Y-142453171D01*
X136252751Y-142441760D01*
X136337816Y-142303757D01*
X136343963Y-142290576D01*
X136395138Y-142136290D01*
X136398005Y-142122914D01*
X136407672Y-142028562D01*
X136408000Y-142022146D01*
X136408000Y-142022095D01*
X137592001Y-142022095D01*
X137592338Y-142028614D01*
X137602257Y-142124206D01*
X137605149Y-142137600D01*
X137656588Y-142291784D01*
X137662761Y-142304962D01*
X137748063Y-142442807D01*
X137757099Y-142454208D01*
X137871829Y-142568739D01*
X137883240Y-142577751D01*
X138021243Y-142662816D01*
X138034424Y-142668963D01*
X138188710Y-142720138D01*
X138202086Y-142723005D01*
X138296438Y-142732672D01*
X138302854Y-142733000D01*
X138727885Y-142733000D01*
X138743124Y-142728525D01*
X138744329Y-142727135D01*
X138746000Y-142719452D01*
X138746000Y-142714884D01*
X139254000Y-142714884D01*
X139258475Y-142730123D01*
X139259865Y-142731328D01*
X139267548Y-142732999D01*
X139697095Y-142732999D01*
X139703614Y-142732662D01*
X139799206Y-142722743D01*
X139812600Y-142719851D01*
X139966784Y-142668412D01*
X139979962Y-142662239D01*
X140117807Y-142576937D01*
X140129208Y-142567901D01*
X140243739Y-142453171D01*
X140252751Y-142441760D01*
X140337816Y-142303757D01*
X140343963Y-142290576D01*
X140395138Y-142136290D01*
X140398005Y-142122914D01*
X140407672Y-142028562D01*
X140408000Y-142022146D01*
X140408000Y-142022095D01*
X141592001Y-142022095D01*
X141592338Y-142028614D01*
X141602257Y-142124206D01*
X141605149Y-142137600D01*
X141656588Y-142291784D01*
X141662761Y-142304962D01*
X141748063Y-142442807D01*
X141757099Y-142454208D01*
X141871829Y-142568739D01*
X141883240Y-142577751D01*
X142021243Y-142662816D01*
X142034424Y-142668963D01*
X142188710Y-142720138D01*
X142202086Y-142723005D01*
X142296438Y-142732672D01*
X142302854Y-142733000D01*
X142727885Y-142733000D01*
X142743124Y-142728525D01*
X142744329Y-142727135D01*
X142746000Y-142719452D01*
X142746000Y-142714884D01*
X143254000Y-142714884D01*
X143258475Y-142730123D01*
X143259865Y-142731328D01*
X143267548Y-142732999D01*
X143697095Y-142732999D01*
X143703614Y-142732662D01*
X143799206Y-142722743D01*
X143812600Y-142719851D01*
X143966784Y-142668412D01*
X143979962Y-142662239D01*
X144117807Y-142576937D01*
X144129208Y-142567901D01*
X144243739Y-142453171D01*
X144252751Y-142441760D01*
X144337816Y-142303757D01*
X144343963Y-142290576D01*
X144395138Y-142136290D01*
X144398005Y-142122914D01*
X144407672Y-142028562D01*
X144408000Y-142022146D01*
X144408000Y-141834615D01*
X144403525Y-141819376D01*
X144402135Y-141818171D01*
X144394452Y-141816500D01*
X143272115Y-141816500D01*
X143256876Y-141820975D01*
X143255671Y-141822365D01*
X143254000Y-141830048D01*
X143254000Y-142714884D01*
X142746000Y-142714884D01*
X142746000Y-141834615D01*
X142741525Y-141819376D01*
X142740135Y-141818171D01*
X142732452Y-141816500D01*
X141610116Y-141816500D01*
X141594877Y-141820975D01*
X141593672Y-141822365D01*
X141592001Y-141830048D01*
X141592001Y-142022095D01*
X140408000Y-142022095D01*
X140408000Y-141834615D01*
X140403525Y-141819376D01*
X140402135Y-141818171D01*
X140394452Y-141816500D01*
X139272115Y-141816500D01*
X139256876Y-141820975D01*
X139255671Y-141822365D01*
X139254000Y-141830048D01*
X139254000Y-142714884D01*
X138746000Y-142714884D01*
X138746000Y-141834615D01*
X138741525Y-141819376D01*
X138740135Y-141818171D01*
X138732452Y-141816500D01*
X137610116Y-141816500D01*
X137594877Y-141820975D01*
X137593672Y-141822365D01*
X137592001Y-141830048D01*
X137592001Y-142022095D01*
X136408000Y-142022095D01*
X136408000Y-141834615D01*
X136403525Y-141819376D01*
X136402135Y-141818171D01*
X136394452Y-141816500D01*
X135272115Y-141816500D01*
X135256876Y-141820975D01*
X135255671Y-141822365D01*
X135254000Y-141830048D01*
X135254000Y-142714884D01*
X134746000Y-142714884D01*
X134746000Y-141834615D01*
X134741525Y-141819376D01*
X134740135Y-141818171D01*
X134732452Y-141816500D01*
X133610116Y-141816500D01*
X133594877Y-141820975D01*
X133593672Y-141822365D01*
X133592001Y-141830048D01*
X133592001Y-142022095D01*
X118000000Y-142022095D01*
X118000000Y-141927885D01*
X119242000Y-141927885D01*
X119246475Y-141943124D01*
X119247865Y-141944329D01*
X119255548Y-141946000D01*
X121227885Y-141946000D01*
X121243124Y-141941525D01*
X121244329Y-141940135D01*
X121246000Y-141932452D01*
X121246000Y-141927885D01*
X121754000Y-141927885D01*
X121758475Y-141943124D01*
X121759865Y-141944329D01*
X121767548Y-141946000D01*
X123739884Y-141946000D01*
X123755123Y-141941525D01*
X123756328Y-141940135D01*
X123757999Y-141932452D01*
X123757999Y-141390039D01*
X123757791Y-141384929D01*
X123746918Y-141251233D01*
X123745148Y-141240680D01*
X123692033Y-141033815D01*
X123688299Y-141023269D01*
X123599490Y-140829295D01*
X123593954Y-140819588D01*
X123472197Y-140644403D01*
X123465024Y-140635824D01*
X123314176Y-140484976D01*
X123305597Y-140477803D01*
X123130412Y-140356046D01*
X123120705Y-140350510D01*
X122926731Y-140261701D01*
X122916185Y-140257967D01*
X122709321Y-140204853D01*
X122698766Y-140203082D01*
X122565070Y-140192207D01*
X122559964Y-140192000D01*
X121772115Y-140192000D01*
X121756876Y-140196475D01*
X121755671Y-140197865D01*
X121754000Y-140205548D01*
X121754000Y-141927885D01*
X121246000Y-141927885D01*
X121246000Y-140210116D01*
X121241525Y-140194877D01*
X121240135Y-140193672D01*
X121232452Y-140192001D01*
X120440039Y-140192001D01*
X120434929Y-140192209D01*
X120301233Y-140203082D01*
X120290680Y-140204852D01*
X120083815Y-140257967D01*
X120073269Y-140261701D01*
X119879295Y-140350510D01*
X119869588Y-140356046D01*
X119694403Y-140477803D01*
X119685824Y-140484976D01*
X119534976Y-140635824D01*
X119527803Y-140644403D01*
X119406046Y-140819588D01*
X119400510Y-140829295D01*
X119311701Y-141023269D01*
X119307967Y-141033815D01*
X119254853Y-141240679D01*
X119253082Y-141251234D01*
X119242207Y-141384930D01*
X119242000Y-141390036D01*
X119242000Y-141927885D01*
X118000000Y-141927885D01*
X118000000Y-140065631D01*
X124242000Y-140065631D01*
X124242091Y-140069016D01*
X124244882Y-140120545D01*
X124245955Y-140129189D01*
X124289080Y-140350018D01*
X124291994Y-140360246D01*
X124371364Y-140569740D01*
X124375962Y-140579338D01*
X124489493Y-140772460D01*
X124495646Y-140781149D01*
X124640101Y-140952392D01*
X124647608Y-140959899D01*
X124818851Y-141104354D01*
X124827540Y-141110507D01*
X125020662Y-141224038D01*
X125030260Y-141228636D01*
X125239754Y-141308006D01*
X125249982Y-141310920D01*
X125470811Y-141354045D01*
X125479455Y-141355118D01*
X125530984Y-141357909D01*
X125534369Y-141358000D01*
X126227885Y-141358000D01*
X126243124Y-141353525D01*
X126244329Y-141352135D01*
X126246000Y-141344452D01*
X126246000Y-141339885D01*
X126754000Y-141339885D01*
X126758475Y-141355124D01*
X126759865Y-141356329D01*
X126767548Y-141358000D01*
X127465631Y-141358000D01*
X127469016Y-141357909D01*
X127520545Y-141355118D01*
X127529189Y-141354045D01*
X127750018Y-141310920D01*
X127760246Y-141308006D01*
X127806756Y-141290385D01*
X133592000Y-141290385D01*
X133596475Y-141305624D01*
X133597865Y-141306829D01*
X133605548Y-141308500D01*
X134727885Y-141308500D01*
X134743124Y-141304025D01*
X134744329Y-141302635D01*
X134746000Y-141294952D01*
X134746000Y-141290385D01*
X135254000Y-141290385D01*
X135258475Y-141305624D01*
X135259865Y-141306829D01*
X135267548Y-141308500D01*
X136389884Y-141308500D01*
X136405123Y-141304025D01*
X136406328Y-141302635D01*
X136407999Y-141294952D01*
X136407999Y-141290385D01*
X137592000Y-141290385D01*
X137596475Y-141305624D01*
X137597865Y-141306829D01*
X137605548Y-141308500D01*
X138727885Y-141308500D01*
X138743124Y-141304025D01*
X138744329Y-141302635D01*
X138746000Y-141294952D01*
X138746000Y-141290385D01*
X139254000Y-141290385D01*
X139258475Y-141305624D01*
X139259865Y-141306829D01*
X139267548Y-141308500D01*
X140389884Y-141308500D01*
X140405123Y-141304025D01*
X140406328Y-141302635D01*
X140407999Y-141294952D01*
X140407999Y-141290385D01*
X141592000Y-141290385D01*
X141596475Y-141305624D01*
X141597865Y-141306829D01*
X141605548Y-141308500D01*
X142727885Y-141308500D01*
X142743124Y-141304025D01*
X142744329Y-141302635D01*
X142746000Y-141294952D01*
X142746000Y-141290385D01*
X143254000Y-141290385D01*
X143258475Y-141305624D01*
X143259865Y-141306829D01*
X143267548Y-141308500D01*
X144389884Y-141308500D01*
X144405123Y-141304025D01*
X144406328Y-141302635D01*
X144407999Y-141294952D01*
X144407999Y-141102905D01*
X144407662Y-141096386D01*
X144397743Y-141000794D01*
X144394851Y-140987400D01*
X144343412Y-140833216D01*
X144337239Y-140820038D01*
X144251937Y-140682193D01*
X144242901Y-140670792D01*
X144128171Y-140556261D01*
X144116760Y-140547249D01*
X143978757Y-140462184D01*
X143965576Y-140456037D01*
X143811290Y-140404862D01*
X143797914Y-140401995D01*
X143703562Y-140392328D01*
X143697145Y-140392000D01*
X143272115Y-140392000D01*
X143256876Y-140396475D01*
X143255671Y-140397865D01*
X143254000Y-140405548D01*
X143254000Y-141290385D01*
X142746000Y-141290385D01*
X142746000Y-140410116D01*
X142741525Y-140394877D01*
X142740135Y-140393672D01*
X142732452Y-140392001D01*
X142302905Y-140392001D01*
X142296386Y-140392338D01*
X142200794Y-140402257D01*
X142187400Y-140405149D01*
X142033216Y-140456588D01*
X142020038Y-140462761D01*
X141882193Y-140548063D01*
X141870792Y-140557099D01*
X141756261Y-140671829D01*
X141747249Y-140683240D01*
X141662184Y-140821243D01*
X141656037Y-140834424D01*
X141604862Y-140988710D01*
X141601995Y-141002086D01*
X141592328Y-141096438D01*
X141592000Y-141102855D01*
X141592000Y-141290385D01*
X140407999Y-141290385D01*
X140407999Y-141102905D01*
X140407662Y-141096386D01*
X140397743Y-141000794D01*
X140394851Y-140987400D01*
X140343412Y-140833216D01*
X140337239Y-140820038D01*
X140251937Y-140682193D01*
X140242901Y-140670792D01*
X140128171Y-140556261D01*
X140116760Y-140547249D01*
X139978757Y-140462184D01*
X139965576Y-140456037D01*
X139811290Y-140404862D01*
X139797914Y-140401995D01*
X139703562Y-140392328D01*
X139697145Y-140392000D01*
X139272115Y-140392000D01*
X139256876Y-140396475D01*
X139255671Y-140397865D01*
X139254000Y-140405548D01*
X139254000Y-141290385D01*
X138746000Y-141290385D01*
X138746000Y-140410116D01*
X138741525Y-140394877D01*
X138740135Y-140393672D01*
X138732452Y-140392001D01*
X138302905Y-140392001D01*
X138296386Y-140392338D01*
X138200794Y-140402257D01*
X138187400Y-140405149D01*
X138033216Y-140456588D01*
X138020038Y-140462761D01*
X137882193Y-140548063D01*
X137870792Y-140557099D01*
X137756261Y-140671829D01*
X137747249Y-140683240D01*
X137662184Y-140821243D01*
X137656037Y-140834424D01*
X137604862Y-140988710D01*
X137601995Y-141002086D01*
X137592328Y-141096438D01*
X137592000Y-141102855D01*
X137592000Y-141290385D01*
X136407999Y-141290385D01*
X136407999Y-141102905D01*
X136407662Y-141096386D01*
X136397743Y-141000794D01*
X136394851Y-140987400D01*
X136343412Y-140833216D01*
X136337239Y-140820038D01*
X136251937Y-140682193D01*
X136242901Y-140670792D01*
X136128171Y-140556261D01*
X136116760Y-140547249D01*
X135978757Y-140462184D01*
X135965576Y-140456037D01*
X135811290Y-140404862D01*
X135797914Y-140401995D01*
X135703562Y-140392328D01*
X135697145Y-140392000D01*
X135272115Y-140392000D01*
X135256876Y-140396475D01*
X135255671Y-140397865D01*
X135254000Y-140405548D01*
X135254000Y-141290385D01*
X134746000Y-141290385D01*
X134746000Y-140410116D01*
X134741525Y-140394877D01*
X134740135Y-140393672D01*
X134732452Y-140392001D01*
X134302905Y-140392001D01*
X134296386Y-140392338D01*
X134200794Y-140402257D01*
X134187400Y-140405149D01*
X134033216Y-140456588D01*
X134020038Y-140462761D01*
X133882193Y-140548063D01*
X133870792Y-140557099D01*
X133756261Y-140671829D01*
X133747249Y-140683240D01*
X133662184Y-140821243D01*
X133656037Y-140834424D01*
X133604862Y-140988710D01*
X133601995Y-141002086D01*
X133592328Y-141096438D01*
X133592000Y-141102855D01*
X133592000Y-141290385D01*
X127806756Y-141290385D01*
X127969740Y-141228636D01*
X127979338Y-141224038D01*
X128172460Y-141110507D01*
X128181149Y-141104354D01*
X128352392Y-140959899D01*
X128359899Y-140952392D01*
X128504354Y-140781149D01*
X128510507Y-140772460D01*
X128624038Y-140579338D01*
X128628636Y-140569740D01*
X128708006Y-140360246D01*
X128710920Y-140350018D01*
X128754045Y-140129189D01*
X128755118Y-140120545D01*
X128757909Y-140069016D01*
X128758000Y-140065631D01*
X128758000Y-139372115D01*
X128753525Y-139356876D01*
X128752135Y-139355671D01*
X128744452Y-139354000D01*
X126772115Y-139354000D01*
X126756876Y-139358475D01*
X126755671Y-139359865D01*
X126754000Y-139367548D01*
X126754000Y-141339885D01*
X126246000Y-141339885D01*
X126246000Y-139372115D01*
X126241525Y-139356876D01*
X126240135Y-139355671D01*
X126232452Y-139354000D01*
X124260115Y-139354000D01*
X124244876Y-139358475D01*
X124243671Y-139359865D01*
X124242000Y-139367548D01*
X124242000Y-140065631D01*
X118000000Y-140065631D01*
X118000000Y-138926000D01*
X118020002Y-138857879D01*
X118073658Y-138811386D01*
X118126000Y-138800000D01*
X124149711Y-138800000D01*
X124217832Y-138820002D01*
G37*
G04 #@! TD.AperFunction*
G04 #@! TA.AperFunction,Conductor*
G36*
X189942121Y-141020002D02*
G01*
X189988614Y-141073658D01*
X190000000Y-141126000D01*
X190000000Y-148074000D01*
X189979998Y-148142121D01*
X189926342Y-148188614D01*
X189874000Y-148200000D01*
X171926000Y-148200000D01*
X171857879Y-148179998D01*
X171811386Y-148126342D01*
X171800000Y-148074000D01*
X171800000Y-143272096D01*
X172317000Y-143272096D01*
X172317337Y-143278611D01*
X172327256Y-143374203D01*
X172330150Y-143387602D01*
X172381588Y-143541783D01*
X172387762Y-143554962D01*
X172473063Y-143692807D01*
X172482099Y-143704208D01*
X172596830Y-143818739D01*
X172608241Y-143827751D01*
X172746245Y-143912818D01*
X172759423Y-143918962D01*
X172913716Y-143970139D01*
X172927081Y-143973005D01*
X173021439Y-143982672D01*
X173027855Y-143983000D01*
X173727885Y-143983000D01*
X173743124Y-143978525D01*
X173744329Y-143977135D01*
X173746000Y-143969452D01*
X173746000Y-143964885D01*
X174254000Y-143964885D01*
X174258475Y-143980124D01*
X174259865Y-143981329D01*
X174267548Y-143983000D01*
X174972096Y-143983000D01*
X174978611Y-143982663D01*
X175074203Y-143972744D01*
X175087602Y-143969850D01*
X175241783Y-143918412D01*
X175254962Y-143912238D01*
X175392807Y-143826937D01*
X175404208Y-143817901D01*
X175518739Y-143703170D01*
X175527751Y-143691759D01*
X175612818Y-143553755D01*
X175618962Y-143540577D01*
X175670139Y-143386284D01*
X175673005Y-143372919D01*
X175682672Y-143278561D01*
X175683000Y-143272145D01*
X175683000Y-143272096D01*
X177717000Y-143272096D01*
X177717337Y-143278611D01*
X177727256Y-143374203D01*
X177730150Y-143387602D01*
X177781588Y-143541783D01*
X177787762Y-143554962D01*
X177873063Y-143692807D01*
X177882099Y-143704208D01*
X177996830Y-143818739D01*
X178008241Y-143827751D01*
X178146245Y-143912818D01*
X178159423Y-143918962D01*
X178313716Y-143970139D01*
X178327081Y-143973005D01*
X178421439Y-143982672D01*
X178427855Y-143983000D01*
X179127885Y-143983000D01*
X179143124Y-143978525D01*
X179144329Y-143977135D01*
X179146000Y-143969452D01*
X179146000Y-143964885D01*
X179654000Y-143964885D01*
X179658475Y-143980124D01*
X179659865Y-143981329D01*
X179667548Y-143983000D01*
X180372096Y-143983000D01*
X180378611Y-143982663D01*
X180474203Y-143972744D01*
X180487602Y-143969850D01*
X180641783Y-143918412D01*
X180654962Y-143912238D01*
X180792807Y-143826937D01*
X180804208Y-143817901D01*
X180918739Y-143703170D01*
X180927751Y-143691759D01*
X181012818Y-143553755D01*
X181018962Y-143540577D01*
X181070139Y-143386284D01*
X181073005Y-143372919D01*
X181082672Y-143278561D01*
X181083000Y-143272145D01*
X181083000Y-143172096D01*
X183817000Y-143172096D01*
X183817337Y-143178611D01*
X183827256Y-143274203D01*
X183830150Y-143287602D01*
X183881588Y-143441783D01*
X183887762Y-143454962D01*
X183973063Y-143592807D01*
X183982099Y-143604208D01*
X184096830Y-143718739D01*
X184108241Y-143727751D01*
X184246245Y-143812818D01*
X184259423Y-143818962D01*
X184413716Y-143870139D01*
X184427081Y-143873005D01*
X184521439Y-143882672D01*
X184527855Y-143883000D01*
X185227885Y-143883000D01*
X185243124Y-143878525D01*
X185244329Y-143877135D01*
X185246000Y-143869452D01*
X185246000Y-143864885D01*
X185754000Y-143864885D01*
X185758475Y-143880124D01*
X185759865Y-143881329D01*
X185767548Y-143883000D01*
X186472096Y-143883000D01*
X186478611Y-143882663D01*
X186574203Y-143872744D01*
X186587602Y-143869850D01*
X186741783Y-143818412D01*
X186754962Y-143812238D01*
X186892807Y-143726937D01*
X186904208Y-143717901D01*
X187018739Y-143603170D01*
X187027751Y-143591759D01*
X187112818Y-143453755D01*
X187118962Y-143440577D01*
X187170139Y-143286284D01*
X187173005Y-143272919D01*
X187182672Y-143178561D01*
X187183000Y-143172145D01*
X187183000Y-142897115D01*
X187178525Y-142881876D01*
X187177135Y-142880671D01*
X187169452Y-142879000D01*
X185772115Y-142879000D01*
X185756876Y-142883475D01*
X185755671Y-142884865D01*
X185754000Y-142892548D01*
X185754000Y-143864885D01*
X185246000Y-143864885D01*
X185246000Y-142897115D01*
X185241525Y-142881876D01*
X185240135Y-142880671D01*
X185232452Y-142879000D01*
X183835115Y-142879000D01*
X183819876Y-142883475D01*
X183818671Y-142884865D01*
X183817000Y-142892548D01*
X183817000Y-143172096D01*
X181083000Y-143172096D01*
X181083000Y-142997115D01*
X181078525Y-142981876D01*
X181077135Y-142980671D01*
X181069452Y-142979000D01*
X179672115Y-142979000D01*
X179656876Y-142983475D01*
X179655671Y-142984865D01*
X179654000Y-142992548D01*
X179654000Y-143964885D01*
X179146000Y-143964885D01*
X179146000Y-142997115D01*
X179141525Y-142981876D01*
X179140135Y-142980671D01*
X179132452Y-142979000D01*
X177735115Y-142979000D01*
X177719876Y-142983475D01*
X177718671Y-142984865D01*
X177717000Y-142992548D01*
X177717000Y-143272096D01*
X175683000Y-143272096D01*
X175683000Y-142997115D01*
X175678525Y-142981876D01*
X175677135Y-142980671D01*
X175669452Y-142979000D01*
X174272115Y-142979000D01*
X174256876Y-142983475D01*
X174255671Y-142984865D01*
X174254000Y-142992548D01*
X174254000Y-143964885D01*
X173746000Y-143964885D01*
X173746000Y-142997115D01*
X173741525Y-142981876D01*
X173740135Y-142980671D01*
X173732452Y-142979000D01*
X172335115Y-142979000D01*
X172319876Y-142983475D01*
X172318671Y-142984865D01*
X172317000Y-142992548D01*
X172317000Y-143272096D01*
X171800000Y-143272096D01*
X171800000Y-142452885D01*
X172317000Y-142452885D01*
X172321475Y-142468124D01*
X172322865Y-142469329D01*
X172330548Y-142471000D01*
X173727885Y-142471000D01*
X173743124Y-142466525D01*
X173744329Y-142465135D01*
X173746000Y-142457452D01*
X173746000Y-142452885D01*
X174254000Y-142452885D01*
X174258475Y-142468124D01*
X174259865Y-142469329D01*
X174267548Y-142471000D01*
X175664885Y-142471000D01*
X175680124Y-142466525D01*
X175681329Y-142465135D01*
X175683000Y-142457452D01*
X175683000Y-142452885D01*
X177717000Y-142452885D01*
X177721475Y-142468124D01*
X177722865Y-142469329D01*
X177730548Y-142471000D01*
X179127885Y-142471000D01*
X179143124Y-142466525D01*
X179144329Y-142465135D01*
X179146000Y-142457452D01*
X179146000Y-142452885D01*
X179654000Y-142452885D01*
X179658475Y-142468124D01*
X179659865Y-142469329D01*
X179667548Y-142471000D01*
X181064885Y-142471000D01*
X181080124Y-142466525D01*
X181081329Y-142465135D01*
X181083000Y-142457452D01*
X181083000Y-142352885D01*
X183817000Y-142352885D01*
X183821475Y-142368124D01*
X183822865Y-142369329D01*
X183830548Y-142371000D01*
X185227885Y-142371000D01*
X185243124Y-142366525D01*
X185244329Y-142365135D01*
X185246000Y-142357452D01*
X185246000Y-142352885D01*
X185754000Y-142352885D01*
X185758475Y-142368124D01*
X185759865Y-142369329D01*
X185767548Y-142371000D01*
X187164885Y-142371000D01*
X187180124Y-142366525D01*
X187181329Y-142365135D01*
X187183000Y-142357452D01*
X187183000Y-142077904D01*
X187182663Y-142071389D01*
X187172744Y-141975797D01*
X187169850Y-141962398D01*
X187118412Y-141808217D01*
X187112238Y-141795038D01*
X187026937Y-141657193D01*
X187017901Y-141645792D01*
X186903170Y-141531261D01*
X186891759Y-141522249D01*
X186753755Y-141437182D01*
X186740577Y-141431038D01*
X186586284Y-141379861D01*
X186572919Y-141376995D01*
X186478561Y-141367328D01*
X186472144Y-141367000D01*
X185772115Y-141367000D01*
X185756876Y-141371475D01*
X185755671Y-141372865D01*
X185754000Y-141380548D01*
X185754000Y-142352885D01*
X185246000Y-142352885D01*
X185246000Y-141385115D01*
X185241525Y-141369876D01*
X185240135Y-141368671D01*
X185232452Y-141367000D01*
X184527904Y-141367000D01*
X184521389Y-141367337D01*
X184425797Y-141377256D01*
X184412398Y-141380150D01*
X184258217Y-141431588D01*
X184245038Y-141437762D01*
X184107193Y-141523063D01*
X184095792Y-141532099D01*
X183981261Y-141646830D01*
X183972249Y-141658241D01*
X183887182Y-141796245D01*
X183881038Y-141809423D01*
X183829861Y-141963716D01*
X183826995Y-141977081D01*
X183817328Y-142071439D01*
X183817000Y-142077856D01*
X183817000Y-142352885D01*
X181083000Y-142352885D01*
X181083000Y-142177904D01*
X181082663Y-142171389D01*
X181072744Y-142075797D01*
X181069850Y-142062398D01*
X181018412Y-141908217D01*
X181012238Y-141895038D01*
X180926937Y-141757193D01*
X180917901Y-141745792D01*
X180803170Y-141631261D01*
X180791759Y-141622249D01*
X180653755Y-141537182D01*
X180640577Y-141531038D01*
X180486284Y-141479861D01*
X180472919Y-141476995D01*
X180378561Y-141467328D01*
X180372144Y-141467000D01*
X179672115Y-141467000D01*
X179656876Y-141471475D01*
X179655671Y-141472865D01*
X179654000Y-141480548D01*
X179654000Y-142452885D01*
X179146000Y-142452885D01*
X179146000Y-141485115D01*
X179141525Y-141469876D01*
X179140135Y-141468671D01*
X179132452Y-141467000D01*
X178427904Y-141467000D01*
X178421389Y-141467337D01*
X178325797Y-141477256D01*
X178312398Y-141480150D01*
X178158217Y-141531588D01*
X178145038Y-141537762D01*
X178007193Y-141623063D01*
X177995792Y-141632099D01*
X177881261Y-141746830D01*
X177872249Y-141758241D01*
X177787182Y-141896245D01*
X177781038Y-141909423D01*
X177729861Y-142063716D01*
X177726995Y-142077081D01*
X177717328Y-142171439D01*
X177717000Y-142177856D01*
X177717000Y-142452885D01*
X175683000Y-142452885D01*
X175683000Y-142177904D01*
X175682663Y-142171389D01*
X175672744Y-142075797D01*
X175669850Y-142062398D01*
X175618412Y-141908217D01*
X175612238Y-141895038D01*
X175526937Y-141757193D01*
X175517901Y-141745792D01*
X175403170Y-141631261D01*
X175391759Y-141622249D01*
X175253755Y-141537182D01*
X175240577Y-141531038D01*
X175086284Y-141479861D01*
X175072919Y-141476995D01*
X174978561Y-141467328D01*
X174972144Y-141467000D01*
X174272115Y-141467000D01*
X174256876Y-141471475D01*
X174255671Y-141472865D01*
X174254000Y-141480548D01*
X174254000Y-142452885D01*
X173746000Y-142452885D01*
X173746000Y-141485115D01*
X173741525Y-141469876D01*
X173740135Y-141468671D01*
X173732452Y-141467000D01*
X173027904Y-141467000D01*
X173021389Y-141467337D01*
X172925797Y-141477256D01*
X172912398Y-141480150D01*
X172758217Y-141531588D01*
X172745038Y-141537762D01*
X172607193Y-141623063D01*
X172595792Y-141632099D01*
X172481261Y-141746830D01*
X172472249Y-141758241D01*
X172387182Y-141896245D01*
X172381038Y-141909423D01*
X172329861Y-142063716D01*
X172326995Y-142077081D01*
X172317328Y-142171439D01*
X172317000Y-142177856D01*
X172317000Y-142452885D01*
X171800000Y-142452885D01*
X171800000Y-141126000D01*
X171820002Y-141057879D01*
X171873658Y-141011386D01*
X171926000Y-141000000D01*
X189874000Y-141000000D01*
X189942121Y-141020002D01*
G37*
G04 #@! TD.AperFunction*
G04 #@! TA.AperFunction,Conductor*
G36*
X175542121Y-100620002D02*
G01*
X175588614Y-100673658D01*
X175600000Y-100726000D01*
X175600000Y-115674000D01*
X175579998Y-115742121D01*
X175526342Y-115788614D01*
X175474000Y-115800000D01*
X173691548Y-115800000D01*
X173623427Y-115779998D01*
X173576934Y-115726342D01*
X173566830Y-115656068D01*
X173596324Y-115591488D01*
X173647318Y-115556018D01*
X173654504Y-115553324D01*
X173670099Y-115544786D01*
X173772174Y-115468285D01*
X173784735Y-115455724D01*
X173861236Y-115353649D01*
X173869774Y-115338054D01*
X173914928Y-115217606D01*
X173918555Y-115202351D01*
X173924081Y-115151486D01*
X173924450Y-115144672D01*
X173924450Y-114122115D01*
X173919975Y-114106876D01*
X173918585Y-114105671D01*
X173910902Y-114104000D01*
X170626566Y-114104000D01*
X170611327Y-114108475D01*
X170610122Y-114109865D01*
X170608451Y-114117548D01*
X170608451Y-115144669D01*
X170608821Y-115151490D01*
X170614345Y-115202352D01*
X170617971Y-115217604D01*
X170663126Y-115338054D01*
X170671664Y-115353649D01*
X170748165Y-115455724D01*
X170760726Y-115468285D01*
X170862801Y-115544786D01*
X170878396Y-115553324D01*
X170885582Y-115556018D01*
X170942346Y-115598660D01*
X170967046Y-115665222D01*
X170951838Y-115734570D01*
X170901552Y-115784688D01*
X170841352Y-115800000D01*
X170326000Y-115800000D01*
X170257879Y-115779998D01*
X170211386Y-115726342D01*
X170200000Y-115674000D01*
X170200000Y-113577885D01*
X170608450Y-113577885D01*
X170612925Y-113593124D01*
X170614315Y-113594329D01*
X170621998Y-113596000D01*
X171994335Y-113596000D01*
X172009574Y-113591525D01*
X172010779Y-113590135D01*
X172012450Y-113582452D01*
X172012450Y-113577885D01*
X172520450Y-113577885D01*
X172524925Y-113593124D01*
X172526315Y-113594329D01*
X172533998Y-113596000D01*
X173906334Y-113596000D01*
X173921573Y-113591525D01*
X173922778Y-113590135D01*
X173924449Y-113582452D01*
X173924449Y-112555331D01*
X173924079Y-112548510D01*
X173918555Y-112497648D01*
X173914929Y-112482396D01*
X173869774Y-112361946D01*
X173861236Y-112346351D01*
X173784735Y-112244276D01*
X173772174Y-112231715D01*
X173670099Y-112155214D01*
X173654504Y-112146676D01*
X173534056Y-112101522D01*
X173518801Y-112097895D01*
X173467936Y-112092369D01*
X173461122Y-112092000D01*
X172538565Y-112092000D01*
X172523326Y-112096475D01*
X172522121Y-112097865D01*
X172520450Y-112105548D01*
X172520450Y-113577885D01*
X172012450Y-113577885D01*
X172012450Y-112110116D01*
X172007975Y-112094877D01*
X172006585Y-112093672D01*
X171998902Y-112092001D01*
X171071781Y-112092001D01*
X171064960Y-112092371D01*
X171014098Y-112097895D01*
X170998846Y-112101521D01*
X170878396Y-112146676D01*
X170862801Y-112155214D01*
X170760726Y-112231715D01*
X170748165Y-112244276D01*
X170671664Y-112346351D01*
X170663126Y-112361946D01*
X170617972Y-112482394D01*
X170614345Y-112497649D01*
X170608819Y-112548514D01*
X170608450Y-112555328D01*
X170608450Y-113577885D01*
X170200000Y-113577885D01*
X170200000Y-112000000D01*
X167724693Y-112000000D01*
X167656572Y-111979998D01*
X167610079Y-111926342D01*
X167599975Y-111856068D01*
X167629469Y-111791488D01*
X167649128Y-111773174D01*
X167755724Y-111693285D01*
X167768285Y-111680724D01*
X167844786Y-111578649D01*
X167853324Y-111563054D01*
X167898478Y-111442606D01*
X167902105Y-111427351D01*
X167907631Y-111376486D01*
X167908000Y-111369672D01*
X167908000Y-106897115D01*
X167903525Y-106881876D01*
X167902135Y-106880671D01*
X167894452Y-106879000D01*
X156110116Y-106879000D01*
X156094877Y-106883475D01*
X156093672Y-106884865D01*
X156092001Y-106892548D01*
X156092001Y-111369669D01*
X156092371Y-111376490D01*
X156097895Y-111427352D01*
X156101521Y-111442604D01*
X156146676Y-111563054D01*
X156155214Y-111578649D01*
X156231715Y-111680724D01*
X156244276Y-111693285D01*
X156350872Y-111773174D01*
X156393387Y-111830033D01*
X156398413Y-111900851D01*
X156364353Y-111963145D01*
X156302022Y-111997135D01*
X156275307Y-112000000D01*
X155126000Y-112000000D01*
X155057879Y-111979998D01*
X155011386Y-111926342D01*
X155000000Y-111874000D01*
X155000000Y-111200000D01*
X151379899Y-111200000D01*
X151311778Y-111179998D01*
X151265285Y-111126342D01*
X151255181Y-111056068D01*
X151284675Y-110991488D01*
X151301651Y-110976233D01*
X151301289Y-110975800D01*
X151314176Y-110965024D01*
X151465024Y-110814176D01*
X151472197Y-110805597D01*
X151593954Y-110630412D01*
X151599490Y-110620705D01*
X151688299Y-110426731D01*
X151692033Y-110416185D01*
X151745147Y-110209321D01*
X151746918Y-110198766D01*
X151757793Y-110065070D01*
X151758000Y-110059964D01*
X151758000Y-108272115D01*
X151753525Y-108256876D01*
X151752135Y-108255671D01*
X151744452Y-108254000D01*
X147760116Y-108254000D01*
X147744877Y-108258475D01*
X147743672Y-108259865D01*
X147742001Y-108267548D01*
X147742001Y-110059961D01*
X147742209Y-110065071D01*
X147753082Y-110198767D01*
X147754852Y-110209320D01*
X147807967Y-110416185D01*
X147811701Y-110426731D01*
X147900510Y-110620705D01*
X147906046Y-110630412D01*
X148027803Y-110805597D01*
X148034976Y-110814176D01*
X148185824Y-110965024D01*
X148198711Y-110975800D01*
X148197456Y-110977301D01*
X148236530Y-111025832D01*
X148244089Y-111096425D01*
X148212283Y-111159898D01*
X148151209Y-111196099D01*
X148120101Y-111200000D01*
X147126000Y-111200000D01*
X147057879Y-111179998D01*
X147011386Y-111126342D01*
X147000000Y-111074000D01*
X147000000Y-107727885D01*
X147742000Y-107727885D01*
X147746475Y-107743124D01*
X147747865Y-107744329D01*
X147755548Y-107746000D01*
X149477885Y-107746000D01*
X149493124Y-107741525D01*
X149494329Y-107740135D01*
X149496000Y-107732452D01*
X149496000Y-107727885D01*
X150004000Y-107727885D01*
X150008475Y-107743124D01*
X150009865Y-107744329D01*
X150017548Y-107746000D01*
X151739884Y-107746000D01*
X151755123Y-107741525D01*
X151756328Y-107740135D01*
X151757999Y-107732452D01*
X151757999Y-106352885D01*
X156092000Y-106352885D01*
X156096475Y-106368124D01*
X156097865Y-106369329D01*
X156105548Y-106371000D01*
X161727885Y-106371000D01*
X161743124Y-106366525D01*
X161744329Y-106365135D01*
X161746000Y-106357452D01*
X161746000Y-106352885D01*
X162254000Y-106352885D01*
X162258475Y-106368124D01*
X162259865Y-106369329D01*
X162267548Y-106371000D01*
X167889884Y-106371000D01*
X167905123Y-106366525D01*
X167906328Y-106365135D01*
X167907999Y-106357452D01*
X167907999Y-101880331D01*
X167907629Y-101873510D01*
X167902105Y-101822648D01*
X167898479Y-101807396D01*
X167853324Y-101686946D01*
X167844786Y-101671351D01*
X167768285Y-101569276D01*
X167755724Y-101556715D01*
X167653649Y-101480214D01*
X167638054Y-101471676D01*
X167517606Y-101426522D01*
X167502351Y-101422895D01*
X167451486Y-101417369D01*
X167444672Y-101417000D01*
X162272115Y-101417000D01*
X162256876Y-101421475D01*
X162255671Y-101422865D01*
X162254000Y-101430548D01*
X162254000Y-106352885D01*
X161746000Y-106352885D01*
X161746000Y-101435116D01*
X161741525Y-101419877D01*
X161740135Y-101418672D01*
X161732452Y-101417001D01*
X156555331Y-101417001D01*
X156548510Y-101417371D01*
X156497648Y-101422895D01*
X156482396Y-101426521D01*
X156361946Y-101471676D01*
X156346351Y-101480214D01*
X156244276Y-101556715D01*
X156231715Y-101569276D01*
X156155214Y-101671351D01*
X156146676Y-101686946D01*
X156101522Y-101807394D01*
X156097895Y-101822649D01*
X156092369Y-101873514D01*
X156092000Y-101880328D01*
X156092000Y-106352885D01*
X151757999Y-106352885D01*
X151757999Y-105940039D01*
X151757791Y-105934929D01*
X151746918Y-105801233D01*
X151745148Y-105790680D01*
X151692033Y-105583815D01*
X151688299Y-105573269D01*
X151599490Y-105379295D01*
X151593954Y-105369588D01*
X151472197Y-105194403D01*
X151465024Y-105185824D01*
X151314176Y-105034976D01*
X151305597Y-105027803D01*
X151130412Y-104906046D01*
X151120705Y-104900510D01*
X150926731Y-104811701D01*
X150916185Y-104807967D01*
X150709321Y-104754853D01*
X150698766Y-104753082D01*
X150565070Y-104742207D01*
X150559964Y-104742000D01*
X150022115Y-104742000D01*
X150006876Y-104746475D01*
X150005671Y-104747865D01*
X150004000Y-104755548D01*
X150004000Y-107727885D01*
X149496000Y-107727885D01*
X149496000Y-104760116D01*
X149491525Y-104744877D01*
X149490135Y-104743672D01*
X149482452Y-104742001D01*
X148940039Y-104742001D01*
X148934929Y-104742209D01*
X148801233Y-104753082D01*
X148790680Y-104754852D01*
X148583815Y-104807967D01*
X148573269Y-104811701D01*
X148379295Y-104900510D01*
X148369588Y-104906046D01*
X148194403Y-105027803D01*
X148185824Y-105034976D01*
X148034976Y-105185824D01*
X148027803Y-105194403D01*
X147906046Y-105369588D01*
X147900510Y-105379295D01*
X147811701Y-105573269D01*
X147807967Y-105583815D01*
X147754853Y-105790679D01*
X147753082Y-105801234D01*
X147742207Y-105934930D01*
X147742000Y-105940036D01*
X147742000Y-107727885D01*
X147000000Y-107727885D01*
X147000000Y-100726000D01*
X147020002Y-100657879D01*
X147073658Y-100611386D01*
X147126000Y-100600000D01*
X175474000Y-100600000D01*
X175542121Y-100620002D01*
G37*
G04 #@! TD.AperFunction*
G04 #@! TA.AperFunction,Conductor*
G36*
X184258621Y-125520002D02*
G01*
X184305114Y-125573658D01*
X184316500Y-125626000D01*
X184316500Y-126425400D01*
X184327474Y-126531165D01*
X184329655Y-126537701D01*
X184329655Y-126537703D01*
X184347893Y-126592369D01*
X184383450Y-126698945D01*
X184475875Y-126848303D01*
X184476522Y-126849348D01*
X184475487Y-126849988D01*
X184499383Y-126909033D01*
X184500000Y-126921483D01*
X184500000Y-128079348D01*
X184479998Y-128147469D01*
X184472880Y-128157443D01*
X184472247Y-128158244D01*
X184387182Y-128296245D01*
X184381038Y-128309423D01*
X184329861Y-128463716D01*
X184326995Y-128477081D01*
X184317328Y-128571439D01*
X184317000Y-128577856D01*
X184317000Y-128852885D01*
X184321475Y-128868124D01*
X184322865Y-128869329D01*
X184330548Y-128871000D01*
X184500000Y-128871000D01*
X184500000Y-129379000D01*
X184335115Y-129379000D01*
X184319876Y-129383475D01*
X184318671Y-129384865D01*
X184317000Y-129392548D01*
X184317000Y-129672096D01*
X184317337Y-129678611D01*
X184327256Y-129774203D01*
X184330150Y-129787602D01*
X184381588Y-129941783D01*
X184387762Y-129954962D01*
X184476917Y-130099035D01*
X184475726Y-130099772D01*
X184499383Y-130158215D01*
X184500000Y-130170671D01*
X184500000Y-136374000D01*
X184479998Y-136442121D01*
X184426342Y-136488614D01*
X184374000Y-136500000D01*
X178126000Y-136500000D01*
X178057879Y-136479998D01*
X178011386Y-136426342D01*
X178000000Y-136374000D01*
X178000000Y-132000000D01*
X176626000Y-132000000D01*
X176557879Y-131979998D01*
X176511386Y-131926342D01*
X176500000Y-131874000D01*
X176500000Y-130944669D01*
X179642001Y-130944669D01*
X179642371Y-130951490D01*
X179647895Y-131002352D01*
X179651521Y-131017604D01*
X179696676Y-131138054D01*
X179705214Y-131153649D01*
X179781715Y-131255724D01*
X179794276Y-131268285D01*
X179896351Y-131344786D01*
X179911946Y-131353324D01*
X180032394Y-131398478D01*
X180047649Y-131402105D01*
X180098514Y-131407631D01*
X180105328Y-131408000D01*
X180877885Y-131408000D01*
X180893124Y-131403525D01*
X180894329Y-131402135D01*
X180896000Y-131394452D01*
X180896000Y-131389884D01*
X181404000Y-131389884D01*
X181408475Y-131405123D01*
X181409865Y-131406328D01*
X181417548Y-131407999D01*
X182194669Y-131407999D01*
X182201490Y-131407629D01*
X182252352Y-131402105D01*
X182267604Y-131398479D01*
X182388054Y-131353324D01*
X182403649Y-131344786D01*
X182505724Y-131268285D01*
X182518285Y-131255724D01*
X182594786Y-131153649D01*
X182603324Y-131138054D01*
X182648478Y-131017606D01*
X182652105Y-131002351D01*
X182657631Y-130951486D01*
X182658000Y-130944672D01*
X182658000Y-129272115D01*
X182653525Y-129256876D01*
X182652135Y-129255671D01*
X182644452Y-129254000D01*
X181422115Y-129254000D01*
X181406876Y-129258475D01*
X181405671Y-129259865D01*
X181404000Y-129267548D01*
X181404000Y-131389884D01*
X180896000Y-131389884D01*
X180896000Y-129272115D01*
X180891525Y-129256876D01*
X180890135Y-129255671D01*
X180882452Y-129254000D01*
X179660116Y-129254000D01*
X179644877Y-129258475D01*
X179643672Y-129259865D01*
X179642001Y-129267548D01*
X179642001Y-130944669D01*
X176500000Y-130944669D01*
X176500000Y-128727885D01*
X179642000Y-128727885D01*
X179646475Y-128743124D01*
X179647865Y-128744329D01*
X179655548Y-128746000D01*
X180877885Y-128746000D01*
X180893124Y-128741525D01*
X180894329Y-128740135D01*
X180896000Y-128732452D01*
X180896000Y-128727885D01*
X181404000Y-128727885D01*
X181408475Y-128743124D01*
X181409865Y-128744329D01*
X181417548Y-128746000D01*
X182639884Y-128746000D01*
X182655123Y-128741525D01*
X182656328Y-128740135D01*
X182657999Y-128732452D01*
X182657999Y-127055331D01*
X182657629Y-127048510D01*
X182652105Y-126997648D01*
X182648479Y-126982396D01*
X182603324Y-126861946D01*
X182594786Y-126846351D01*
X182518285Y-126744276D01*
X182505724Y-126731715D01*
X182403649Y-126655214D01*
X182388054Y-126646676D01*
X182267606Y-126601522D01*
X182252351Y-126597895D01*
X182201486Y-126592369D01*
X182194672Y-126592000D01*
X181422115Y-126592000D01*
X181406876Y-126596475D01*
X181405671Y-126597865D01*
X181404000Y-126605548D01*
X181404000Y-128727885D01*
X180896000Y-128727885D01*
X180896000Y-126610116D01*
X180891525Y-126594877D01*
X180890135Y-126593672D01*
X180882452Y-126592001D01*
X180105331Y-126592001D01*
X180098510Y-126592371D01*
X180047648Y-126597895D01*
X180032396Y-126601521D01*
X179911946Y-126646676D01*
X179896351Y-126655214D01*
X179794276Y-126731715D01*
X179781715Y-126744276D01*
X179705214Y-126846351D01*
X179696676Y-126861946D01*
X179651522Y-126982394D01*
X179647895Y-126997649D01*
X179642369Y-127048514D01*
X179642000Y-127055328D01*
X179642000Y-128727885D01*
X176500000Y-128727885D01*
X176500000Y-125626000D01*
X176520002Y-125557879D01*
X176573658Y-125511386D01*
X176626000Y-125500000D01*
X184190500Y-125500000D01*
X184258621Y-125520002D01*
G37*
G04 #@! TD.AperFunction*
G04 #@! TA.AperFunction,Conductor*
G36*
X146961738Y-139420002D02*
G01*
X147008231Y-139473658D01*
X147018880Y-139539610D01*
X147017369Y-139553519D01*
X147017000Y-139560328D01*
X147017000Y-139632885D01*
X147021475Y-139648124D01*
X147022865Y-139649329D01*
X147030548Y-139651000D01*
X148428000Y-139651000D01*
X148496121Y-139671002D01*
X148542614Y-139724658D01*
X148554000Y-139777000D01*
X148554000Y-140694884D01*
X148558475Y-140710123D01*
X148559865Y-140711328D01*
X148567548Y-140712999D01*
X149074000Y-140712999D01*
X149142121Y-140733001D01*
X149188614Y-140786657D01*
X149200000Y-140838999D01*
X149200000Y-141400000D01*
X151074000Y-141400000D01*
X151142121Y-141420002D01*
X151188614Y-141473658D01*
X151200000Y-141526000D01*
X151200000Y-144800000D01*
X152701813Y-144800000D01*
X152769934Y-144820002D01*
X152816427Y-144873658D01*
X152826531Y-144943932D01*
X152809073Y-144992116D01*
X152737184Y-145108743D01*
X152731037Y-145121924D01*
X152679862Y-145276210D01*
X152676995Y-145289586D01*
X152667328Y-145383938D01*
X152667000Y-145390355D01*
X152667000Y-145502885D01*
X152671475Y-145518124D01*
X152672865Y-145519329D01*
X152680548Y-145521000D01*
X155114884Y-145521000D01*
X155130123Y-145516525D01*
X155131328Y-145515135D01*
X155132999Y-145507452D01*
X155132999Y-145390405D01*
X155132662Y-145383886D01*
X155126517Y-145324669D01*
X159002001Y-145324669D01*
X159002371Y-145331490D01*
X159007895Y-145382352D01*
X159011521Y-145397604D01*
X159056676Y-145518054D01*
X159065214Y-145533649D01*
X159141715Y-145635724D01*
X159154276Y-145648285D01*
X159256351Y-145724786D01*
X159271946Y-145733324D01*
X159392394Y-145778478D01*
X159407649Y-145782105D01*
X159458514Y-145787631D01*
X159465328Y-145788000D01*
X160127885Y-145788000D01*
X160143124Y-145783525D01*
X160144329Y-145782135D01*
X160146000Y-145774452D01*
X160146000Y-145769884D01*
X160654000Y-145769884D01*
X160658475Y-145785123D01*
X160659865Y-145786328D01*
X160667548Y-145787999D01*
X161334669Y-145787999D01*
X161341490Y-145787629D01*
X161392352Y-145782105D01*
X161407604Y-145778479D01*
X161528054Y-145733324D01*
X161543649Y-145724786D01*
X161645724Y-145648285D01*
X161658285Y-145635724D01*
X161734786Y-145533649D01*
X161743324Y-145518054D01*
X161788478Y-145397606D01*
X161792105Y-145382351D01*
X161797631Y-145331486D01*
X161798000Y-145324672D01*
X161798000Y-143772115D01*
X161793525Y-143756876D01*
X161792135Y-143755671D01*
X161784452Y-143754000D01*
X160672115Y-143754000D01*
X160656876Y-143758475D01*
X160655671Y-143759865D01*
X160654000Y-143767548D01*
X160654000Y-145769884D01*
X160146000Y-145769884D01*
X160146000Y-143772115D01*
X160141525Y-143756876D01*
X160140135Y-143755671D01*
X160132452Y-143754000D01*
X159020116Y-143754000D01*
X159004877Y-143758475D01*
X159003672Y-143759865D01*
X159002001Y-143767548D01*
X159002001Y-145324669D01*
X155126517Y-145324669D01*
X155122743Y-145288294D01*
X155119851Y-145274900D01*
X155068412Y-145120716D01*
X155062238Y-145107538D01*
X154990929Y-144992303D01*
X154972091Y-144923851D01*
X154993252Y-144856081D01*
X155047693Y-144810510D01*
X155098073Y-144800000D01*
X157400000Y-144800000D01*
X157400000Y-143227885D01*
X159002000Y-143227885D01*
X159006475Y-143243124D01*
X159007865Y-143244329D01*
X159015548Y-143246000D01*
X160127885Y-143246000D01*
X160143124Y-143241525D01*
X160144329Y-143240135D01*
X160146000Y-143232452D01*
X160146000Y-143227885D01*
X160654000Y-143227885D01*
X160658475Y-143243124D01*
X160659865Y-143244329D01*
X160667548Y-143246000D01*
X161779884Y-143246000D01*
X161795123Y-143241525D01*
X161796328Y-143240135D01*
X161797999Y-143232452D01*
X161797999Y-141675331D01*
X161797629Y-141668510D01*
X161792105Y-141617648D01*
X161788479Y-141602396D01*
X161743324Y-141481946D01*
X161734786Y-141466351D01*
X161658285Y-141364276D01*
X161645724Y-141351715D01*
X161543649Y-141275214D01*
X161528054Y-141266676D01*
X161407606Y-141221522D01*
X161392351Y-141217895D01*
X161341486Y-141212369D01*
X161334672Y-141212000D01*
X160672115Y-141212000D01*
X160656876Y-141216475D01*
X160655671Y-141217865D01*
X160654000Y-141225548D01*
X160654000Y-143227885D01*
X160146000Y-143227885D01*
X160146000Y-141230116D01*
X160141525Y-141214877D01*
X160140135Y-141213672D01*
X160132452Y-141212001D01*
X159465331Y-141212001D01*
X159458510Y-141212371D01*
X159407648Y-141217895D01*
X159392396Y-141221521D01*
X159271946Y-141266676D01*
X159256351Y-141275214D01*
X159154276Y-141351715D01*
X159141715Y-141364276D01*
X159065214Y-141466351D01*
X159056676Y-141481946D01*
X159011522Y-141602394D01*
X159007895Y-141617649D01*
X159002369Y-141668514D01*
X159002000Y-141675328D01*
X159002000Y-143227885D01*
X157400000Y-143227885D01*
X157400000Y-141026000D01*
X157420002Y-140957879D01*
X157473658Y-140911386D01*
X157526000Y-140900000D01*
X162874000Y-140900000D01*
X162942121Y-140920002D01*
X162988614Y-140973658D01*
X163000000Y-141026000D01*
X163000000Y-148074000D01*
X162979998Y-148142121D01*
X162926342Y-148188614D01*
X162874000Y-148200000D01*
X145926000Y-148200000D01*
X145857879Y-148179998D01*
X145811386Y-148126342D01*
X145800000Y-148074000D01*
X145800000Y-146834390D01*
X145820002Y-146766269D01*
X145873658Y-146719776D01*
X145943932Y-146709672D01*
X146008512Y-146739166D01*
X146048583Y-146805247D01*
X146051520Y-146817602D01*
X146096676Y-146938054D01*
X146105214Y-146953649D01*
X146181715Y-147055724D01*
X146194276Y-147068285D01*
X146296351Y-147144786D01*
X146311946Y-147153324D01*
X146432394Y-147198478D01*
X146447649Y-147202105D01*
X146498514Y-147207631D01*
X146505328Y-147208000D01*
X148027885Y-147208000D01*
X148043124Y-147203525D01*
X148044329Y-147202135D01*
X148046000Y-147194452D01*
X148046000Y-147189884D01*
X148554000Y-147189884D01*
X148558475Y-147205123D01*
X148559865Y-147206328D01*
X148567548Y-147207999D01*
X150094669Y-147207999D01*
X150101490Y-147207629D01*
X150152352Y-147202105D01*
X150167604Y-147198479D01*
X150288054Y-147153324D01*
X150303649Y-147144786D01*
X150405724Y-147068285D01*
X150418285Y-147055724D01*
X150494786Y-146953649D01*
X150503324Y-146938054D01*
X150548478Y-146817606D01*
X150552105Y-146802351D01*
X150557631Y-146751486D01*
X150558000Y-146744672D01*
X150558000Y-146159595D01*
X152667001Y-146159595D01*
X152667338Y-146166114D01*
X152677257Y-146261706D01*
X152680149Y-146275100D01*
X152731588Y-146429284D01*
X152737761Y-146442462D01*
X152823063Y-146580307D01*
X152832099Y-146591708D01*
X152946829Y-146706239D01*
X152958240Y-146715251D01*
X153096243Y-146800316D01*
X153109424Y-146806463D01*
X153263710Y-146857638D01*
X153277086Y-146860505D01*
X153371438Y-146870172D01*
X153377854Y-146870500D01*
X153627885Y-146870500D01*
X153643124Y-146866025D01*
X153644329Y-146864635D01*
X153646000Y-146856952D01*
X153646000Y-146852384D01*
X154154000Y-146852384D01*
X154158475Y-146867623D01*
X154159865Y-146868828D01*
X154167548Y-146870499D01*
X154422095Y-146870499D01*
X154428614Y-146870162D01*
X154524206Y-146860243D01*
X154537600Y-146857351D01*
X154691784Y-146805912D01*
X154704962Y-146799739D01*
X154842807Y-146714437D01*
X154854208Y-146705401D01*
X154968739Y-146590671D01*
X154977751Y-146579260D01*
X155062816Y-146441257D01*
X155068963Y-146428076D01*
X155120138Y-146273790D01*
X155123005Y-146260414D01*
X155132672Y-146166062D01*
X155133000Y-146159646D01*
X155133000Y-146047115D01*
X155128525Y-146031876D01*
X155127135Y-146030671D01*
X155119452Y-146029000D01*
X154172115Y-146029000D01*
X154156876Y-146033475D01*
X154155671Y-146034865D01*
X154154000Y-146042548D01*
X154154000Y-146852384D01*
X153646000Y-146852384D01*
X153646000Y-146047115D01*
X153641525Y-146031876D01*
X153640135Y-146030671D01*
X153632452Y-146029000D01*
X152685116Y-146029000D01*
X152669877Y-146033475D01*
X152668672Y-146034865D01*
X152667001Y-146042548D01*
X152667001Y-146159595D01*
X150558000Y-146159595D01*
X150558000Y-146072115D01*
X150553525Y-146056876D01*
X150552135Y-146055671D01*
X150544452Y-146054000D01*
X148572115Y-146054000D01*
X148556876Y-146058475D01*
X148555671Y-146059865D01*
X148554000Y-146067548D01*
X148554000Y-147189884D01*
X148046000Y-147189884D01*
X148046000Y-145527885D01*
X148554000Y-145527885D01*
X148558475Y-145543124D01*
X148559865Y-145544329D01*
X148567548Y-145546000D01*
X150539884Y-145546000D01*
X150555123Y-145541525D01*
X150556328Y-145540135D01*
X150557999Y-145532452D01*
X150557999Y-144855331D01*
X150557629Y-144848510D01*
X150552105Y-144797648D01*
X150548479Y-144782396D01*
X150503324Y-144661946D01*
X150494786Y-144646351D01*
X150418285Y-144544276D01*
X150405724Y-144531715D01*
X150303649Y-144455214D01*
X150288054Y-144446676D01*
X150167606Y-144401522D01*
X150152351Y-144397895D01*
X150101486Y-144392369D01*
X150094672Y-144392000D01*
X148572115Y-144392000D01*
X148556876Y-144396475D01*
X148555671Y-144397865D01*
X148554000Y-144405548D01*
X148554000Y-145527885D01*
X148046000Y-145527885D01*
X148046000Y-144410116D01*
X148041525Y-144394877D01*
X148040135Y-144393672D01*
X148032452Y-144392001D01*
X146505331Y-144392001D01*
X146498510Y-144392371D01*
X146447648Y-144397895D01*
X146432396Y-144401521D01*
X146311946Y-144446676D01*
X146296351Y-144455214D01*
X146194276Y-144531715D01*
X146181715Y-144544276D01*
X146105214Y-144646351D01*
X146096676Y-144661946D01*
X146051522Y-144782394D01*
X146048583Y-144794754D01*
X146013366Y-144856400D01*
X145950411Y-144889221D01*
X145879705Y-144882795D01*
X145823698Y-144839163D01*
X145800000Y-144765608D01*
X145800000Y-141826000D01*
X145820002Y-141757879D01*
X145873658Y-141711386D01*
X145926000Y-141700000D01*
X146400000Y-141700000D01*
X146400000Y-140249669D01*
X147017001Y-140249669D01*
X147017371Y-140256490D01*
X147022895Y-140307352D01*
X147026521Y-140322604D01*
X147071676Y-140443054D01*
X147080214Y-140458649D01*
X147156715Y-140560724D01*
X147169276Y-140573285D01*
X147271351Y-140649786D01*
X147286946Y-140658324D01*
X147407394Y-140703478D01*
X147422649Y-140707105D01*
X147473514Y-140712631D01*
X147480328Y-140713000D01*
X148027885Y-140713000D01*
X148043124Y-140708525D01*
X148044329Y-140707135D01*
X148046000Y-140699452D01*
X148046000Y-140177115D01*
X148041525Y-140161876D01*
X148040135Y-140160671D01*
X148032452Y-140159000D01*
X147035116Y-140159000D01*
X147019877Y-140163475D01*
X147018672Y-140164865D01*
X147017001Y-140172548D01*
X147017001Y-140249669D01*
X146400000Y-140249669D01*
X146400000Y-139526000D01*
X146420002Y-139457879D01*
X146473658Y-139411386D01*
X146526000Y-139400000D01*
X146893617Y-139400000D01*
X146961738Y-139420002D01*
G37*
G04 #@! TD.AperFunction*
M02*
