G04 #@! TF.GenerationSoftware,KiCad,Pcbnew,(6.0.10)*
G04 #@! TF.CreationDate,2023-01-08T15:34:45+00:00*
G04 #@! TF.ProjectId,NixiePowerAlternate,4e697869-6550-46f7-9765-72416c746572,rev?*
G04 #@! TF.SameCoordinates,Original*
G04 #@! TF.FileFunction,Copper,L2,Bot*
G04 #@! TF.FilePolarity,Positive*
%FSLAX46Y46*%
G04 Gerber Fmt 4.6, Leading zero omitted, Abs format (unit mm)*
G04 Created by KiCad (PCBNEW (6.0.10)) date 2023-01-08 15:34:45*
%MOMM*%
%LPD*%
G01*
G04 APERTURE LIST*
G04 Aperture macros list*
%AMRoundRect*
0 Rectangle with rounded corners*
0 $1 Rounding radius*
0 $2 $3 $4 $5 $6 $7 $8 $9 X,Y pos of 4 corners*
0 Add a 4 corners polygon primitive as box body*
4,1,4,$2,$3,$4,$5,$6,$7,$8,$9,$2,$3,0*
0 Add four circle primitives for the rounded corners*
1,1,$1+$1,$2,$3*
1,1,$1+$1,$4,$5*
1,1,$1+$1,$6,$7*
1,1,$1+$1,$8,$9*
0 Add four rect primitives between the rounded corners*
20,1,$1+$1,$2,$3,$4,$5,0*
20,1,$1+$1,$4,$5,$6,$7,0*
20,1,$1+$1,$6,$7,$8,$9,0*
20,1,$1+$1,$8,$9,$2,$3,0*%
G04 Aperture macros list end*
G04 #@! TA.AperFunction,ComponentPad*
%ADD10R,3.500000X3.500000*%
G04 #@! TD*
G04 #@! TA.AperFunction,ComponentPad*
%ADD11RoundRect,0.750000X1.000000X-0.750000X1.000000X0.750000X-1.000000X0.750000X-1.000000X-0.750000X0*%
G04 #@! TD*
G04 #@! TA.AperFunction,ComponentPad*
%ADD12RoundRect,0.875000X0.875000X-0.875000X0.875000X0.875000X-0.875000X0.875000X-0.875000X-0.875000X0*%
G04 #@! TD*
G04 #@! TA.AperFunction,ComponentPad*
%ADD13C,1.440000*%
G04 #@! TD*
G04 #@! TA.AperFunction,ComponentPad*
%ADD14C,4.000000*%
G04 #@! TD*
G04 #@! TA.AperFunction,ComponentPad*
%ADD15R,2.600000X2.600000*%
G04 #@! TD*
G04 #@! TA.AperFunction,ComponentPad*
%ADD16C,2.600000*%
G04 #@! TD*
G04 #@! TA.AperFunction,ComponentPad*
%ADD17R,2.000000X2.000000*%
G04 #@! TD*
G04 #@! TA.AperFunction,ComponentPad*
%ADD18C,2.000000*%
G04 #@! TD*
G04 #@! TA.AperFunction,ViaPad*
%ADD19C,0.800000*%
G04 #@! TD*
G04 #@! TA.AperFunction,ViaPad*
%ADD20C,0.600000*%
G04 #@! TD*
G04 #@! TA.AperFunction,Conductor*
%ADD21C,1.200000*%
G04 #@! TD*
G04 #@! TA.AperFunction,Conductor*
%ADD22C,1.400000*%
G04 #@! TD*
G04 #@! TA.AperFunction,Conductor*
%ADD23C,0.400000*%
G04 #@! TD*
G04 #@! TA.AperFunction,Conductor*
%ADD24C,1.000000*%
G04 #@! TD*
G04 APERTURE END LIST*
D10*
X121500000Y-136000000D03*
D11*
X121500000Y-142200000D03*
D12*
X126500000Y-139100000D03*
D13*
X142985000Y-128000000D03*
X140445000Y-130540000D03*
X142985000Y-133080000D03*
D14*
X147500000Y-144600000D03*
D15*
X105000000Y-120000000D03*
D16*
X105000000Y-125080000D03*
X105000000Y-130160000D03*
D15*
X194805000Y-118500000D03*
D16*
X194805000Y-113420000D03*
D17*
X121500000Y-108000000D03*
D18*
X121500000Y-113000000D03*
D15*
X194805000Y-136096000D03*
D16*
X194805000Y-131016000D03*
X194805000Y-125936000D03*
D18*
X182500000Y-113441807D03*
D17*
X182500000Y-118441807D03*
D19*
X158000000Y-125000000D03*
X155000000Y-125000000D03*
X176000000Y-136500000D03*
X188500000Y-142000000D03*
X175000000Y-124000000D03*
X167500000Y-127000000D03*
X166550000Y-124050000D03*
X152000000Y-122000000D03*
X162500000Y-138000000D03*
D20*
X156500000Y-148000000D03*
D21*
X188500000Y-132241000D02*
X194805000Y-125936000D01*
X188500000Y-132730000D02*
X188500000Y-132241000D01*
D22*
X195000000Y-118500000D02*
X182400000Y-118500000D01*
X182400000Y-113467677D02*
X194952323Y-113467677D01*
D23*
X155000000Y-125000000D02*
X158000000Y-125000000D01*
D24*
X188500000Y-142000000D02*
X188500000Y-132730000D01*
D22*
X182400000Y-113467677D02*
X174532323Y-113467677D01*
X182402677Y-113465000D02*
X182400000Y-113467677D01*
X104695000Y-119915000D02*
X106885000Y-119915000D01*
X106885000Y-119915000D02*
X118800000Y-108000000D01*
X104695000Y-119915000D02*
X112115000Y-119915000D01*
X121417500Y-129217500D02*
X121417500Y-136200000D01*
X112115000Y-119915000D02*
X121417500Y-129217500D01*
X118800000Y-108000000D02*
X121500000Y-108000000D01*
G04 #@! TA.AperFunction,Conductor*
G36*
X176942121Y-100528502D02*
G01*
X176988614Y-100582158D01*
X177000000Y-100634500D01*
X177000000Y-149365500D01*
X176979998Y-149433621D01*
X176926342Y-149480114D01*
X176874000Y-149491500D01*
X100634500Y-149491500D01*
X100566379Y-149471498D01*
X100519886Y-149417842D01*
X100508500Y-149365500D01*
X100508500Y-145132703D01*
X102890743Y-145132703D01*
X102891302Y-145136947D01*
X102891302Y-145136951D01*
X102903384Y-145228723D01*
X102928268Y-145417734D01*
X103004129Y-145695036D01*
X103005813Y-145698984D01*
X103051904Y-145807041D01*
X103116923Y-145959476D01*
X103264561Y-146206161D01*
X103444313Y-146430528D01*
X103652851Y-146628423D01*
X103886317Y-146796186D01*
X103890112Y-146798195D01*
X103890113Y-146798196D01*
X103911869Y-146809715D01*
X104140392Y-146930712D01*
X104410373Y-147029511D01*
X104691264Y-147090755D01*
X104719841Y-147093004D01*
X104914282Y-147108307D01*
X104914291Y-147108307D01*
X104916739Y-147108500D01*
X105072271Y-147108500D01*
X105074407Y-147108354D01*
X105074418Y-147108354D01*
X105282548Y-147094165D01*
X105282554Y-147094164D01*
X105286825Y-147093873D01*
X105291020Y-147093004D01*
X105291022Y-147093004D01*
X105427584Y-147064723D01*
X105568342Y-147035574D01*
X105839343Y-146939607D01*
X106094812Y-146807750D01*
X106098313Y-146805289D01*
X106098317Y-146805287D01*
X106220479Y-146719430D01*
X106330023Y-146642441D01*
X106433820Y-146545987D01*
X145918721Y-146545987D01*
X145927548Y-146557605D01*
X146150281Y-146719430D01*
X146156961Y-146723670D01*
X146426572Y-146871890D01*
X146433707Y-146875247D01*
X146719770Y-146988508D01*
X146727296Y-146990953D01*
X147025279Y-147067462D01*
X147033050Y-147068945D01*
X147338278Y-147107503D01*
X147346169Y-147108000D01*
X147653831Y-147108000D01*
X147661722Y-147107503D01*
X147966950Y-147068945D01*
X147974721Y-147067462D01*
X148272704Y-146990953D01*
X148280230Y-146988508D01*
X148566293Y-146875247D01*
X148573428Y-146871890D01*
X148843039Y-146723670D01*
X148849719Y-146719430D01*
X149072823Y-146557336D01*
X149081246Y-146546413D01*
X149074342Y-146533552D01*
X147512812Y-144972022D01*
X147498868Y-144964408D01*
X147497035Y-144964539D01*
X147490420Y-144968790D01*
X145925334Y-146533876D01*
X145918721Y-146545987D01*
X106433820Y-146545987D01*
X106540622Y-146446740D01*
X106722713Y-146224268D01*
X106872927Y-145979142D01*
X106988483Y-145715898D01*
X107067244Y-145439406D01*
X107107751Y-145154784D01*
X107107845Y-145136951D01*
X107109235Y-144871583D01*
X107109235Y-144871576D01*
X107109257Y-144867297D01*
X107074588Y-144603958D01*
X144987290Y-144603958D01*
X145006607Y-144910994D01*
X145007600Y-144918855D01*
X145065246Y-145221046D01*
X145067217Y-145228723D01*
X145162284Y-145521309D01*
X145165199Y-145528672D01*
X145296189Y-145807041D01*
X145300001Y-145813974D01*
X145464851Y-146073736D01*
X145469495Y-146080129D01*
X145544497Y-146170790D01*
X145557014Y-146179245D01*
X145567752Y-146173038D01*
X147127978Y-144612812D01*
X147134356Y-144601132D01*
X147864408Y-144601132D01*
X147864539Y-144602965D01*
X147868790Y-144609580D01*
X149431145Y-146171935D01*
X149444407Y-146179177D01*
X149454512Y-146171988D01*
X149530505Y-146080129D01*
X149535149Y-146073736D01*
X149699999Y-145813974D01*
X149703811Y-145807041D01*
X149834801Y-145528672D01*
X149837716Y-145521309D01*
X149932783Y-145228723D01*
X149934754Y-145221046D01*
X149992400Y-144918855D01*
X149993393Y-144910994D01*
X150012710Y-144603958D01*
X150012710Y-144596042D01*
X149993393Y-144289006D01*
X149992400Y-144281145D01*
X149934754Y-143978954D01*
X149932783Y-143971277D01*
X149837716Y-143678691D01*
X149834801Y-143671328D01*
X149703811Y-143392959D01*
X149699999Y-143386026D01*
X149535149Y-143126264D01*
X149530505Y-143119871D01*
X149455503Y-143029210D01*
X149442986Y-143020755D01*
X149432248Y-143026962D01*
X147872022Y-144587188D01*
X147864408Y-144601132D01*
X147134356Y-144601132D01*
X147135592Y-144598868D01*
X147135461Y-144597035D01*
X147131210Y-144590420D01*
X145568855Y-143028065D01*
X145555593Y-143020823D01*
X145545488Y-143028012D01*
X145469495Y-143119871D01*
X145464851Y-143126264D01*
X145300001Y-143386026D01*
X145296189Y-143392959D01*
X145165199Y-143671328D01*
X145162284Y-143678691D01*
X145067217Y-143971277D01*
X145065246Y-143978954D01*
X145007600Y-144281145D01*
X145006607Y-144289006D01*
X144987290Y-144596042D01*
X144987290Y-144603958D01*
X107074588Y-144603958D01*
X107071732Y-144582266D01*
X106995871Y-144304964D01*
X106964412Y-144231210D01*
X106884763Y-144044476D01*
X106884761Y-144044472D01*
X106883077Y-144040524D01*
X106735439Y-143793839D01*
X106555687Y-143569472D01*
X106362375Y-143386026D01*
X106350258Y-143374527D01*
X106350255Y-143374525D01*
X106347149Y-143371577D01*
X106113683Y-143203814D01*
X106091843Y-143192250D01*
X106029650Y-143159321D01*
X105859608Y-143069288D01*
X105697489Y-143009961D01*
X119242001Y-143009961D01*
X119242209Y-143015071D01*
X119253082Y-143148767D01*
X119254852Y-143159320D01*
X119307967Y-143366185D01*
X119311701Y-143376731D01*
X119400510Y-143570705D01*
X119406046Y-143580412D01*
X119527803Y-143755597D01*
X119534976Y-143764176D01*
X119685824Y-143915024D01*
X119694403Y-143922197D01*
X119869588Y-144043954D01*
X119879295Y-144049490D01*
X120073269Y-144138299D01*
X120083815Y-144142033D01*
X120290679Y-144195147D01*
X120301234Y-144196918D01*
X120434930Y-144207793D01*
X120440036Y-144208000D01*
X121227885Y-144208000D01*
X121243124Y-144203525D01*
X121244329Y-144202135D01*
X121246000Y-144194452D01*
X121246000Y-144189884D01*
X121754000Y-144189884D01*
X121758475Y-144205123D01*
X121759865Y-144206328D01*
X121767548Y-144207999D01*
X122559961Y-144207999D01*
X122565071Y-144207791D01*
X122698767Y-144196918D01*
X122709320Y-144195148D01*
X122916185Y-144142033D01*
X122926731Y-144138299D01*
X123120705Y-144049490D01*
X123130412Y-144043954D01*
X123305597Y-143922197D01*
X123314176Y-143915024D01*
X123465024Y-143764176D01*
X123472197Y-143755597D01*
X123593954Y-143580412D01*
X123599490Y-143570705D01*
X123688299Y-143376731D01*
X123692033Y-143366185D01*
X123745147Y-143159321D01*
X123746918Y-143148766D01*
X123757793Y-143015070D01*
X123758000Y-143009964D01*
X123758000Y-142653587D01*
X145918754Y-142653587D01*
X145925658Y-142666448D01*
X147487188Y-144227978D01*
X147501132Y-144235592D01*
X147502965Y-144235461D01*
X147509580Y-144231210D01*
X149074666Y-142666124D01*
X149081279Y-142654013D01*
X149072452Y-142642395D01*
X148849719Y-142480570D01*
X148843039Y-142476330D01*
X148573428Y-142328110D01*
X148566293Y-142324753D01*
X148280230Y-142211492D01*
X148272704Y-142209047D01*
X147974721Y-142132538D01*
X147966950Y-142131055D01*
X147661722Y-142092497D01*
X147653831Y-142092000D01*
X147346169Y-142092000D01*
X147338278Y-142092497D01*
X147033050Y-142131055D01*
X147025279Y-142132538D01*
X146727296Y-142209047D01*
X146719770Y-142211492D01*
X146433707Y-142324753D01*
X146426572Y-142328110D01*
X146156961Y-142476330D01*
X146150281Y-142480570D01*
X145927177Y-142642664D01*
X145918754Y-142653587D01*
X123758000Y-142653587D01*
X123758000Y-142472115D01*
X123753525Y-142456876D01*
X123752135Y-142455671D01*
X123744452Y-142454000D01*
X121772115Y-142454000D01*
X121756876Y-142458475D01*
X121755671Y-142459865D01*
X121754000Y-142467548D01*
X121754000Y-144189884D01*
X121246000Y-144189884D01*
X121246000Y-142472115D01*
X121241525Y-142456876D01*
X121240135Y-142455671D01*
X121232452Y-142454000D01*
X119260116Y-142454000D01*
X119244877Y-142458475D01*
X119243672Y-142459865D01*
X119242001Y-142467548D01*
X119242001Y-143009961D01*
X105697489Y-143009961D01*
X105589627Y-142970489D01*
X105308736Y-142909245D01*
X105277685Y-142906801D01*
X105085718Y-142891693D01*
X105085709Y-142891693D01*
X105083261Y-142891500D01*
X104927729Y-142891500D01*
X104925593Y-142891646D01*
X104925582Y-142891646D01*
X104717452Y-142905835D01*
X104717446Y-142905836D01*
X104713175Y-142906127D01*
X104708980Y-142906996D01*
X104708978Y-142906996D01*
X104572416Y-142935277D01*
X104431658Y-142964426D01*
X104160657Y-143060393D01*
X103905188Y-143192250D01*
X103901687Y-143194711D01*
X103901683Y-143194713D01*
X103891594Y-143201804D01*
X103669977Y-143357559D01*
X103459378Y-143553260D01*
X103277287Y-143775732D01*
X103127073Y-144020858D01*
X103125347Y-144024791D01*
X103125346Y-144024792D01*
X103050565Y-144195148D01*
X103011517Y-144284102D01*
X102932756Y-144560594D01*
X102892249Y-144845216D01*
X102892227Y-144849505D01*
X102892226Y-144849512D01*
X102890765Y-145128417D01*
X102890743Y-145132703D01*
X100508500Y-145132703D01*
X100508500Y-141927885D01*
X119242000Y-141927885D01*
X119246475Y-141943124D01*
X119247865Y-141944329D01*
X119255548Y-141946000D01*
X121227885Y-141946000D01*
X121243124Y-141941525D01*
X121244329Y-141940135D01*
X121246000Y-141932452D01*
X121246000Y-141927885D01*
X121754000Y-141927885D01*
X121758475Y-141943124D01*
X121759865Y-141944329D01*
X121767548Y-141946000D01*
X123739884Y-141946000D01*
X123755123Y-141941525D01*
X123756328Y-141940135D01*
X123757999Y-141932452D01*
X123757999Y-141390039D01*
X123757791Y-141384929D01*
X123746918Y-141251233D01*
X123745148Y-141240680D01*
X123692033Y-141033815D01*
X123688299Y-141023269D01*
X123599490Y-140829295D01*
X123593954Y-140819588D01*
X123472197Y-140644403D01*
X123465024Y-140635824D01*
X123314176Y-140484976D01*
X123305597Y-140477803D01*
X123130412Y-140356046D01*
X123120705Y-140350510D01*
X122926731Y-140261701D01*
X122916185Y-140257967D01*
X122709321Y-140204853D01*
X122698766Y-140203082D01*
X122565070Y-140192207D01*
X122559964Y-140192000D01*
X121772115Y-140192000D01*
X121756876Y-140196475D01*
X121755671Y-140197865D01*
X121754000Y-140205548D01*
X121754000Y-141927885D01*
X121246000Y-141927885D01*
X121246000Y-140210116D01*
X121241525Y-140194877D01*
X121240135Y-140193672D01*
X121232452Y-140192001D01*
X120440039Y-140192001D01*
X120434929Y-140192209D01*
X120301233Y-140203082D01*
X120290680Y-140204852D01*
X120083815Y-140257967D01*
X120073269Y-140261701D01*
X119879295Y-140350510D01*
X119869588Y-140356046D01*
X119694403Y-140477803D01*
X119685824Y-140484976D01*
X119534976Y-140635824D01*
X119527803Y-140644403D01*
X119406046Y-140819588D01*
X119400510Y-140829295D01*
X119311701Y-141023269D01*
X119307967Y-141033815D01*
X119254853Y-141240679D01*
X119253082Y-141251234D01*
X119242207Y-141384930D01*
X119242000Y-141390036D01*
X119242000Y-141927885D01*
X100508500Y-141927885D01*
X100508500Y-140065631D01*
X124242000Y-140065631D01*
X124242091Y-140069016D01*
X124244882Y-140120545D01*
X124245955Y-140129189D01*
X124289080Y-140350018D01*
X124291994Y-140360246D01*
X124371364Y-140569740D01*
X124375962Y-140579338D01*
X124489493Y-140772460D01*
X124495646Y-140781149D01*
X124640101Y-140952392D01*
X124647608Y-140959899D01*
X124818851Y-141104354D01*
X124827540Y-141110507D01*
X125020662Y-141224038D01*
X125030260Y-141228636D01*
X125239754Y-141308006D01*
X125249982Y-141310920D01*
X125470811Y-141354045D01*
X125479455Y-141355118D01*
X125530984Y-141357909D01*
X125534369Y-141358000D01*
X126227885Y-141358000D01*
X126243124Y-141353525D01*
X126244329Y-141352135D01*
X126246000Y-141344452D01*
X126246000Y-141339885D01*
X126754000Y-141339885D01*
X126758475Y-141355124D01*
X126759865Y-141356329D01*
X126767548Y-141358000D01*
X127465631Y-141358000D01*
X127469016Y-141357909D01*
X127520545Y-141355118D01*
X127529189Y-141354045D01*
X127750018Y-141310920D01*
X127760246Y-141308006D01*
X127969740Y-141228636D01*
X127979338Y-141224038D01*
X128172460Y-141110507D01*
X128181149Y-141104354D01*
X128352392Y-140959899D01*
X128359899Y-140952392D01*
X128504354Y-140781149D01*
X128510507Y-140772460D01*
X128624038Y-140579338D01*
X128628636Y-140569740D01*
X128708006Y-140360246D01*
X128710920Y-140350018D01*
X128754045Y-140129189D01*
X128755118Y-140120545D01*
X128757909Y-140069016D01*
X128758000Y-140065631D01*
X128758000Y-139372115D01*
X128753525Y-139356876D01*
X128752135Y-139355671D01*
X128744452Y-139354000D01*
X126772115Y-139354000D01*
X126756876Y-139358475D01*
X126755671Y-139359865D01*
X126754000Y-139367548D01*
X126754000Y-141339885D01*
X126246000Y-141339885D01*
X126246000Y-139372115D01*
X126241525Y-139356876D01*
X126240135Y-139355671D01*
X126232452Y-139354000D01*
X124260115Y-139354000D01*
X124244876Y-139358475D01*
X124243671Y-139359865D01*
X124242000Y-139367548D01*
X124242000Y-140065631D01*
X100508500Y-140065631D01*
X100508500Y-138827885D01*
X124242000Y-138827885D01*
X124246475Y-138843124D01*
X124247865Y-138844329D01*
X124255548Y-138846000D01*
X126227885Y-138846000D01*
X126243124Y-138841525D01*
X126244329Y-138840135D01*
X126246000Y-138832452D01*
X126246000Y-138827885D01*
X126754000Y-138827885D01*
X126758475Y-138843124D01*
X126759865Y-138844329D01*
X126767548Y-138846000D01*
X128739885Y-138846000D01*
X128755124Y-138841525D01*
X128756329Y-138840135D01*
X128758000Y-138832452D01*
X128758000Y-138134370D01*
X128757909Y-138130984D01*
X128755118Y-138079455D01*
X128754045Y-138070811D01*
X128710920Y-137849982D01*
X128708006Y-137839754D01*
X128628636Y-137630260D01*
X128624038Y-137620662D01*
X128510507Y-137427540D01*
X128504354Y-137418851D01*
X128359899Y-137247608D01*
X128352392Y-137240101D01*
X128181149Y-137095646D01*
X128172460Y-137089493D01*
X127979338Y-136975962D01*
X127969740Y-136971364D01*
X127760246Y-136891994D01*
X127750018Y-136889080D01*
X127529189Y-136845955D01*
X127520545Y-136844882D01*
X127469016Y-136842091D01*
X127465630Y-136842000D01*
X126772115Y-136842000D01*
X126756876Y-136846475D01*
X126755671Y-136847865D01*
X126754000Y-136855548D01*
X126754000Y-138827885D01*
X126246000Y-138827885D01*
X126246000Y-136860115D01*
X126241525Y-136844876D01*
X126240135Y-136843671D01*
X126232452Y-136842000D01*
X125534370Y-136842000D01*
X125530984Y-136842091D01*
X125479455Y-136844882D01*
X125470811Y-136845955D01*
X125249982Y-136889080D01*
X125239754Y-136891994D01*
X125030260Y-136971364D01*
X125020662Y-136975962D01*
X124827540Y-137089493D01*
X124818851Y-137095646D01*
X124647608Y-137240101D01*
X124640101Y-137247608D01*
X124495646Y-137418851D01*
X124489493Y-137427540D01*
X124375962Y-137620662D01*
X124371364Y-137630260D01*
X124291994Y-137839754D01*
X124289080Y-137849982D01*
X124245955Y-138070811D01*
X124244882Y-138079455D01*
X124242091Y-138130984D01*
X124242000Y-138134370D01*
X124242000Y-138827885D01*
X100508500Y-138827885D01*
X100508500Y-131604906D01*
X103919839Y-131604906D01*
X103928553Y-131616427D01*
X104035452Y-131694809D01*
X104043351Y-131699745D01*
X104272905Y-131820519D01*
X104281454Y-131824236D01*
X104526327Y-131909749D01*
X104535336Y-131912163D01*
X104790166Y-131960544D01*
X104799423Y-131961598D01*
X105058607Y-131971783D01*
X105067921Y-131971457D01*
X105325753Y-131943220D01*
X105334930Y-131941519D01*
X105585758Y-131875481D01*
X105594574Y-131872445D01*
X105832880Y-131770062D01*
X105841167Y-131765748D01*
X106061718Y-131629266D01*
X106069268Y-131623780D01*
X106074559Y-131619301D01*
X106082997Y-131606497D01*
X106076935Y-131596145D01*
X105012812Y-130532022D01*
X104998868Y-130524408D01*
X104997035Y-130524539D01*
X104990420Y-130528790D01*
X103926497Y-131592713D01*
X103919839Y-131604906D01*
X100508500Y-131604906D01*
X100508500Y-130117211D01*
X103187775Y-130117211D01*
X103200220Y-130376288D01*
X103201356Y-130385543D01*
X103251961Y-130639945D01*
X103254449Y-130648917D01*
X103342095Y-130893033D01*
X103345895Y-130901568D01*
X103468658Y-131130042D01*
X103473666Y-131137904D01*
X103543720Y-131231716D01*
X103554979Y-131240165D01*
X103567397Y-131233393D01*
X104627978Y-130172812D01*
X104634356Y-130161132D01*
X105364408Y-130161132D01*
X105364539Y-130162965D01*
X105368790Y-130169580D01*
X106436094Y-131236884D01*
X106448474Y-131243644D01*
X106456815Y-131237400D01*
X106590832Y-131029048D01*
X106595275Y-131020864D01*
X106701807Y-130784370D01*
X106704997Y-130775605D01*
X106775402Y-130525972D01*
X106777262Y-130516830D01*
X106810187Y-130258019D01*
X106810668Y-130251733D01*
X106812987Y-130163160D01*
X106812836Y-130156851D01*
X106793501Y-129896663D01*
X106792125Y-129887457D01*
X106734878Y-129634467D01*
X106732154Y-129625556D01*
X106638143Y-129383806D01*
X106634132Y-129375397D01*
X106505422Y-129150202D01*
X106500211Y-129142476D01*
X106456996Y-129087658D01*
X106445071Y-129079187D01*
X106433537Y-129085673D01*
X105372022Y-130147188D01*
X105364408Y-130161132D01*
X104634356Y-130161132D01*
X104635592Y-130158868D01*
X104635461Y-130157035D01*
X104631210Y-130150420D01*
X103565816Y-129085026D01*
X103552507Y-129077758D01*
X103542472Y-129084878D01*
X103526937Y-129103556D01*
X103521531Y-129111135D01*
X103386965Y-129332891D01*
X103382736Y-129341192D01*
X103282432Y-129580389D01*
X103279471Y-129589239D01*
X103215628Y-129840625D01*
X103214006Y-129849822D01*
X103188020Y-130107885D01*
X103187775Y-130117211D01*
X100508500Y-130117211D01*
X100508500Y-128712689D01*
X103917102Y-128712689D01*
X103921675Y-128722465D01*
X104987188Y-129787978D01*
X105001132Y-129795592D01*
X105002965Y-129795461D01*
X105009580Y-129791210D01*
X106074349Y-128726441D01*
X106080733Y-128714751D01*
X106071321Y-128702641D01*
X105924045Y-128600471D01*
X105916010Y-128595738D01*
X105683376Y-128481016D01*
X105674743Y-128477528D01*
X105427703Y-128398450D01*
X105418643Y-128396274D01*
X105162630Y-128354580D01*
X105153343Y-128353768D01*
X104893992Y-128350373D01*
X104884681Y-128350943D01*
X104627682Y-128385919D01*
X104618546Y-128387860D01*
X104369543Y-128460439D01*
X104360800Y-128463707D01*
X104125252Y-128572296D01*
X104117097Y-128576816D01*
X103926240Y-128701947D01*
X103917102Y-128712689D01*
X100508500Y-128712689D01*
X100508500Y-125032526D01*
X103187050Y-125032526D01*
X103199947Y-125301019D01*
X103252388Y-125564656D01*
X103343220Y-125817646D01*
X103470450Y-126054431D01*
X103473241Y-126058168D01*
X103473245Y-126058175D01*
X103554887Y-126167506D01*
X103631281Y-126269810D01*
X103634590Y-126273090D01*
X103634595Y-126273096D01*
X103818863Y-126455762D01*
X103822180Y-126459050D01*
X103825942Y-126461808D01*
X103825945Y-126461811D01*
X103938299Y-126544192D01*
X104038954Y-126617995D01*
X104043089Y-126620171D01*
X104043093Y-126620173D01*
X104272698Y-126740975D01*
X104276840Y-126743154D01*
X104530613Y-126831775D01*
X104535206Y-126832647D01*
X104790109Y-126881042D01*
X104790112Y-126881042D01*
X104794698Y-126881913D01*
X104922370Y-126886929D01*
X105058625Y-126892283D01*
X105058630Y-126892283D01*
X105063293Y-126892466D01*
X105167607Y-126881042D01*
X105325844Y-126863713D01*
X105325850Y-126863712D01*
X105330497Y-126863203D01*
X105405330Y-126843501D01*
X105585918Y-126795956D01*
X105585920Y-126795955D01*
X105590441Y-126794765D01*
X105655515Y-126766807D01*
X105833120Y-126690502D01*
X105833122Y-126690501D01*
X105837414Y-126688657D01*
X105956071Y-126615230D01*
X106062017Y-126549669D01*
X106062021Y-126549666D01*
X106065990Y-126547210D01*
X106271149Y-126373530D01*
X106448382Y-126171434D01*
X106593797Y-125945361D01*
X106704199Y-125700278D01*
X106741209Y-125569051D01*
X106775893Y-125446072D01*
X106775894Y-125446069D01*
X106777163Y-125441568D01*
X106795043Y-125301019D01*
X106810688Y-125178045D01*
X106810688Y-125178041D01*
X106811086Y-125174915D01*
X106813571Y-125080000D01*
X106793650Y-124811937D01*
X106792619Y-124807379D01*
X106735361Y-124554331D01*
X106735360Y-124554326D01*
X106734327Y-124549763D01*
X106636902Y-124299238D01*
X106503518Y-124065864D01*
X106337105Y-123854769D01*
X106141317Y-123670591D01*
X105920457Y-123517374D01*
X105916264Y-123515306D01*
X105683564Y-123400551D01*
X105683561Y-123400550D01*
X105679376Y-123398486D01*
X105631745Y-123383239D01*
X105577621Y-123365914D01*
X105423370Y-123316538D01*
X105418763Y-123315788D01*
X105418760Y-123315787D01*
X105162674Y-123274081D01*
X105162675Y-123274081D01*
X105158063Y-123273330D01*
X105027719Y-123271624D01*
X104893961Y-123269873D01*
X104893958Y-123269873D01*
X104889284Y-123269812D01*
X104622937Y-123306060D01*
X104364874Y-123381278D01*
X104120763Y-123493815D01*
X104116854Y-123496378D01*
X103899881Y-123638631D01*
X103899876Y-123638635D01*
X103895968Y-123641197D01*
X103695426Y-123820188D01*
X103523544Y-124026854D01*
X103384096Y-124256656D01*
X103382287Y-124260970D01*
X103382285Y-124260974D01*
X103357058Y-124321134D01*
X103280148Y-124504545D01*
X103213981Y-124765077D01*
X103187050Y-125032526D01*
X100508500Y-125032526D01*
X100508500Y-121348134D01*
X103191500Y-121348134D01*
X103198255Y-121410316D01*
X103249385Y-121546705D01*
X103336739Y-121663261D01*
X103453295Y-121750615D01*
X103589684Y-121801745D01*
X103651866Y-121808500D01*
X106348134Y-121808500D01*
X106410316Y-121801745D01*
X106546705Y-121750615D01*
X106663261Y-121663261D01*
X106750615Y-121546705D01*
X106801745Y-121410316D01*
X106808500Y-121348134D01*
X106808500Y-121249500D01*
X106828502Y-121181379D01*
X106882158Y-121134886D01*
X106934500Y-121123500D01*
X111562233Y-121123500D01*
X111630354Y-121143502D01*
X111651328Y-121160405D01*
X120172095Y-129681172D01*
X120206121Y-129743484D01*
X120209000Y-129770267D01*
X120209000Y-133615500D01*
X120188998Y-133683621D01*
X120135342Y-133730114D01*
X120083000Y-133741500D01*
X119701866Y-133741500D01*
X119639684Y-133748255D01*
X119503295Y-133799385D01*
X119386739Y-133886739D01*
X119299385Y-134003295D01*
X119248255Y-134139684D01*
X119241500Y-134201866D01*
X119241500Y-137798134D01*
X119248255Y-137860316D01*
X119299385Y-137996705D01*
X119386739Y-138113261D01*
X119503295Y-138200615D01*
X119639684Y-138251745D01*
X119701866Y-138258500D01*
X123298134Y-138258500D01*
X123360316Y-138251745D01*
X123496705Y-138200615D01*
X123613261Y-138113261D01*
X123700615Y-137996705D01*
X123751745Y-137860316D01*
X123758500Y-137798134D01*
X123758500Y-134201866D01*
X123751745Y-134139684D01*
X123740100Y-134108621D01*
X142320933Y-134108621D01*
X142330227Y-134120635D01*
X142364146Y-134144385D01*
X142373641Y-134149868D01*
X142558413Y-134236028D01*
X142568705Y-134239774D01*
X142765632Y-134292540D01*
X142776425Y-134294443D01*
X142979525Y-134312212D01*
X142990475Y-134312212D01*
X143193575Y-134294443D01*
X143204368Y-134292540D01*
X143401295Y-134239774D01*
X143411587Y-134236028D01*
X143596359Y-134149868D01*
X143605854Y-134144385D01*
X143640607Y-134120051D01*
X143648983Y-134109572D01*
X143641916Y-134096127D01*
X142997811Y-133452021D01*
X142983868Y-133444408D01*
X142982034Y-133444539D01*
X142975420Y-133448790D01*
X142327360Y-134096851D01*
X142320933Y-134108621D01*
X123740100Y-134108621D01*
X123700615Y-134003295D01*
X123613261Y-133886739D01*
X123496705Y-133799385D01*
X123360316Y-133748255D01*
X123298134Y-133741500D01*
X122752000Y-133741500D01*
X122683879Y-133721498D01*
X122637386Y-133667842D01*
X122626000Y-133615500D01*
X122626000Y-133085475D01*
X141752788Y-133085475D01*
X141770557Y-133288575D01*
X141772460Y-133299368D01*
X141825226Y-133496295D01*
X141828972Y-133506587D01*
X141915135Y-133691364D01*
X141920613Y-133700850D01*
X141944949Y-133735607D01*
X141955428Y-133743983D01*
X141968872Y-133736917D01*
X142612979Y-133092811D01*
X142619356Y-133081132D01*
X143349408Y-133081132D01*
X143349539Y-133082966D01*
X143353790Y-133089580D01*
X144001851Y-133737640D01*
X144013621Y-133744067D01*
X144025635Y-133734772D01*
X144049387Y-133700850D01*
X144054865Y-133691364D01*
X144141028Y-133506587D01*
X144144774Y-133496295D01*
X144197540Y-133299368D01*
X144199443Y-133288575D01*
X144217212Y-133085475D01*
X144217212Y-133074525D01*
X144199443Y-132871425D01*
X144197540Y-132860632D01*
X144144774Y-132663705D01*
X144141028Y-132653413D01*
X144054865Y-132468636D01*
X144049387Y-132459150D01*
X144025051Y-132424393D01*
X144014572Y-132416017D01*
X144001128Y-132423083D01*
X143357021Y-133067189D01*
X143349408Y-133081132D01*
X142619356Y-133081132D01*
X142620592Y-133078868D01*
X142620461Y-133077034D01*
X142616210Y-133070420D01*
X141968149Y-132422360D01*
X141956379Y-132415933D01*
X141944365Y-132425228D01*
X141920613Y-132459150D01*
X141915135Y-132468636D01*
X141828972Y-132653413D01*
X141825226Y-132663705D01*
X141772460Y-132860632D01*
X141770557Y-132871425D01*
X141752788Y-133074525D01*
X141752788Y-133085475D01*
X122626000Y-133085475D01*
X122626000Y-132050428D01*
X142321017Y-132050428D01*
X142328083Y-132063872D01*
X142972189Y-132707979D01*
X142986132Y-132715592D01*
X142987966Y-132715461D01*
X142994580Y-132711210D01*
X143642640Y-132063149D01*
X143649067Y-132051379D01*
X143639773Y-132039365D01*
X143605854Y-132015615D01*
X143596359Y-132010132D01*
X143411587Y-131923972D01*
X143401295Y-131920226D01*
X143204368Y-131867460D01*
X143193575Y-131865557D01*
X142990475Y-131847788D01*
X142979525Y-131847788D01*
X142776425Y-131865557D01*
X142765632Y-131867460D01*
X142568705Y-131920226D01*
X142558413Y-131923972D01*
X142373636Y-132010135D01*
X142364150Y-132015613D01*
X142329393Y-132039949D01*
X142321017Y-132050428D01*
X122626000Y-132050428D01*
X122626000Y-131568621D01*
X139780933Y-131568621D01*
X139790227Y-131580635D01*
X139824146Y-131604385D01*
X139833641Y-131609868D01*
X140018413Y-131696028D01*
X140028705Y-131699774D01*
X140225632Y-131752540D01*
X140236425Y-131754443D01*
X140439525Y-131772212D01*
X140450475Y-131772212D01*
X140653575Y-131754443D01*
X140664368Y-131752540D01*
X140861295Y-131699774D01*
X140871587Y-131696028D01*
X141056359Y-131609868D01*
X141065854Y-131604385D01*
X141100607Y-131580051D01*
X141108983Y-131569572D01*
X141101916Y-131556127D01*
X140457811Y-130912021D01*
X140443868Y-130904408D01*
X140442034Y-130904539D01*
X140435420Y-130908790D01*
X139787360Y-131556851D01*
X139780933Y-131568621D01*
X122626000Y-131568621D01*
X122626000Y-130545475D01*
X139212788Y-130545475D01*
X139230557Y-130748575D01*
X139232460Y-130759368D01*
X139285226Y-130956295D01*
X139288972Y-130966587D01*
X139375135Y-131151364D01*
X139380613Y-131160850D01*
X139404949Y-131195607D01*
X139415428Y-131203983D01*
X139428872Y-131196917D01*
X140072979Y-130552811D01*
X140079356Y-130541132D01*
X140809408Y-130541132D01*
X140809539Y-130542966D01*
X140813790Y-130549580D01*
X141461851Y-131197640D01*
X141473621Y-131204067D01*
X141485635Y-131194772D01*
X141509387Y-131160850D01*
X141514865Y-131151364D01*
X141601028Y-130966587D01*
X141604774Y-130956295D01*
X141657540Y-130759368D01*
X141659443Y-130748575D01*
X141677212Y-130545475D01*
X141677212Y-130534525D01*
X141659443Y-130331425D01*
X141657540Y-130320632D01*
X141604774Y-130123705D01*
X141601028Y-130113413D01*
X141514865Y-129928636D01*
X141509387Y-129919150D01*
X141485051Y-129884393D01*
X141474572Y-129876017D01*
X141461128Y-129883083D01*
X140817021Y-130527189D01*
X140809408Y-130541132D01*
X140079356Y-130541132D01*
X140080592Y-130538868D01*
X140080461Y-130537034D01*
X140076210Y-130530420D01*
X139428149Y-129882360D01*
X139416379Y-129875933D01*
X139404365Y-129885228D01*
X139380613Y-129919150D01*
X139375135Y-129928636D01*
X139288972Y-130113413D01*
X139285226Y-130123705D01*
X139232460Y-130320632D01*
X139230557Y-130331425D01*
X139212788Y-130534525D01*
X139212788Y-130545475D01*
X122626000Y-130545475D01*
X122626000Y-129510428D01*
X139781017Y-129510428D01*
X139788083Y-129523872D01*
X140432189Y-130167979D01*
X140446132Y-130175592D01*
X140447966Y-130175461D01*
X140454580Y-130171210D01*
X141102640Y-129523149D01*
X141109067Y-129511379D01*
X141099773Y-129499365D01*
X141065854Y-129475615D01*
X141056359Y-129470132D01*
X140871587Y-129383972D01*
X140861295Y-129380226D01*
X140664368Y-129327460D01*
X140653575Y-129325557D01*
X140450475Y-129307788D01*
X140439525Y-129307788D01*
X140236425Y-129325557D01*
X140225632Y-129327460D01*
X140028705Y-129380226D01*
X140018413Y-129383972D01*
X139833636Y-129470135D01*
X139824150Y-129475613D01*
X139789393Y-129499949D01*
X139781017Y-129510428D01*
X122626000Y-129510428D01*
X122626000Y-129305594D01*
X122627078Y-129289148D01*
X122629088Y-129273883D01*
X122629088Y-129273878D01*
X122629821Y-129268312D01*
X122626140Y-129190263D01*
X122626000Y-129184327D01*
X122626000Y-129162765D01*
X122623782Y-129137909D01*
X122623423Y-129132647D01*
X122619922Y-129058424D01*
X122619658Y-129052825D01*
X122615889Y-129036368D01*
X122613208Y-129019437D01*
X122612207Y-129008222D01*
X122611708Y-129002628D01*
X122610227Y-128997216D01*
X122610226Y-128997208D01*
X122590625Y-128925559D01*
X122589339Y-128920441D01*
X122572751Y-128848014D01*
X122571498Y-128842543D01*
X122564872Y-128827009D01*
X122559239Y-128810832D01*
X122554784Y-128794548D01*
X122520397Y-128722455D01*
X122518224Y-128717644D01*
X122510616Y-128699807D01*
X122486861Y-128644114D01*
X122477586Y-128629994D01*
X122469177Y-128615070D01*
X122461911Y-128599837D01*
X122458639Y-128595284D01*
X122458634Y-128595275D01*
X122415278Y-128534938D01*
X122412290Y-128530591D01*
X122368422Y-128463809D01*
X122350812Y-128444044D01*
X122342564Y-128433748D01*
X122339301Y-128429206D01*
X122339297Y-128429202D01*
X122336026Y-128424649D01*
X122332001Y-128420749D01*
X122331998Y-128420745D01*
X122262350Y-128353252D01*
X122260940Y-128351863D01*
X121909077Y-128000000D01*
X141751807Y-128000000D01*
X141770542Y-128214142D01*
X141771966Y-128219455D01*
X141771966Y-128219457D01*
X141819928Y-128398450D01*
X141826178Y-128421777D01*
X141828500Y-128426757D01*
X141828501Y-128426759D01*
X141911570Y-128604899D01*
X141917024Y-128616596D01*
X142040319Y-128792681D01*
X142192319Y-128944681D01*
X142368403Y-129067976D01*
X142373381Y-129070297D01*
X142373384Y-129070299D01*
X142544737Y-129150202D01*
X142563223Y-129158822D01*
X142568531Y-129160244D01*
X142568533Y-129160245D01*
X142765543Y-129213034D01*
X142765545Y-129213034D01*
X142770858Y-129214458D01*
X142985000Y-129233193D01*
X143199142Y-129214458D01*
X143204455Y-129213034D01*
X143204457Y-129213034D01*
X143401467Y-129160245D01*
X143401469Y-129160244D01*
X143406777Y-129158822D01*
X143425263Y-129150202D01*
X143596616Y-129070299D01*
X143596619Y-129070297D01*
X143601597Y-129067976D01*
X143777681Y-128944681D01*
X143929681Y-128792681D01*
X144052976Y-128616596D01*
X144058431Y-128604899D01*
X144141499Y-128426759D01*
X144141500Y-128426757D01*
X144143822Y-128421777D01*
X144150073Y-128398450D01*
X144198034Y-128219457D01*
X144198034Y-128219455D01*
X144199458Y-128214142D01*
X144218193Y-128000000D01*
X144199458Y-127785858D01*
X144143822Y-127578223D01*
X144052976Y-127383404D01*
X143929681Y-127207319D01*
X143777681Y-127055319D01*
X143601597Y-126932024D01*
X143596619Y-126929703D01*
X143596616Y-126929701D01*
X143411759Y-126843501D01*
X143411758Y-126843500D01*
X143406777Y-126841178D01*
X143401469Y-126839756D01*
X143401467Y-126839755D01*
X143204457Y-126786966D01*
X143204455Y-126786966D01*
X143199142Y-126785542D01*
X142985000Y-126766807D01*
X142770858Y-126785542D01*
X142765545Y-126786966D01*
X142765543Y-126786966D01*
X142568533Y-126839755D01*
X142568531Y-126839756D01*
X142563223Y-126841178D01*
X142558243Y-126843500D01*
X142558241Y-126843501D01*
X142373385Y-126929701D01*
X142373382Y-126929703D01*
X142368404Y-126932024D01*
X142192319Y-127055319D01*
X142040319Y-127207319D01*
X141917024Y-127383404D01*
X141826178Y-127578223D01*
X141770542Y-127785858D01*
X141751807Y-128000000D01*
X121909077Y-128000000D01*
X118909077Y-125000000D01*
X154086496Y-125000000D01*
X154087186Y-125006565D01*
X154090406Y-125037197D01*
X154106458Y-125189928D01*
X154165473Y-125371556D01*
X154260960Y-125536944D01*
X154388747Y-125678866D01*
X154543248Y-125791118D01*
X154549276Y-125793802D01*
X154549278Y-125793803D01*
X154711681Y-125866109D01*
X154717712Y-125868794D01*
X154811112Y-125888647D01*
X154898056Y-125907128D01*
X154898061Y-125907128D01*
X154904513Y-125908500D01*
X155095487Y-125908500D01*
X155101939Y-125907128D01*
X155101944Y-125907128D01*
X155188888Y-125888647D01*
X155282288Y-125868794D01*
X155288319Y-125866109D01*
X155450722Y-125793803D01*
X155450724Y-125793802D01*
X155456752Y-125791118D01*
X155537344Y-125732564D01*
X155604211Y-125708706D01*
X155611405Y-125708500D01*
X157388595Y-125708500D01*
X157456716Y-125728502D01*
X157462656Y-125732564D01*
X157543248Y-125791118D01*
X157549276Y-125793802D01*
X157549278Y-125793803D01*
X157711681Y-125866109D01*
X157717712Y-125868794D01*
X157811112Y-125888647D01*
X157898056Y-125907128D01*
X157898061Y-125907128D01*
X157904513Y-125908500D01*
X158095487Y-125908500D01*
X158101939Y-125907128D01*
X158101944Y-125907128D01*
X158188888Y-125888647D01*
X158282288Y-125868794D01*
X158288319Y-125866109D01*
X158450722Y-125793803D01*
X158450724Y-125793802D01*
X158456752Y-125791118D01*
X158611253Y-125678866D01*
X158739040Y-125536944D01*
X158834527Y-125371556D01*
X158893542Y-125189928D01*
X158909595Y-125037197D01*
X158912814Y-125006565D01*
X158913504Y-125000000D01*
X158893542Y-124810072D01*
X158834527Y-124628444D01*
X158739040Y-124463056D01*
X158611253Y-124321134D01*
X158456752Y-124208882D01*
X158450724Y-124206198D01*
X158450722Y-124206197D01*
X158288319Y-124133891D01*
X158288318Y-124133891D01*
X158282288Y-124131206D01*
X158188887Y-124111353D01*
X158101944Y-124092872D01*
X158101939Y-124092872D01*
X158095487Y-124091500D01*
X157904513Y-124091500D01*
X157898061Y-124092872D01*
X157898056Y-124092872D01*
X157811113Y-124111353D01*
X157717712Y-124131206D01*
X157711682Y-124133891D01*
X157711681Y-124133891D01*
X157549278Y-124206197D01*
X157549276Y-124206198D01*
X157543248Y-124208882D01*
X157537907Y-124212762D01*
X157537906Y-124212763D01*
X157462656Y-124267436D01*
X157395789Y-124291294D01*
X157388595Y-124291500D01*
X155611405Y-124291500D01*
X155543284Y-124271498D01*
X155537344Y-124267436D01*
X155462094Y-124212763D01*
X155462093Y-124212762D01*
X155456752Y-124208882D01*
X155450724Y-124206198D01*
X155450722Y-124206197D01*
X155288319Y-124133891D01*
X155288318Y-124133891D01*
X155282288Y-124131206D01*
X155188887Y-124111353D01*
X155101944Y-124092872D01*
X155101939Y-124092872D01*
X155095487Y-124091500D01*
X154904513Y-124091500D01*
X154898061Y-124092872D01*
X154898056Y-124092872D01*
X154811113Y-124111353D01*
X154717712Y-124131206D01*
X154711682Y-124133891D01*
X154711681Y-124133891D01*
X154549278Y-124206197D01*
X154549276Y-124206198D01*
X154543248Y-124208882D01*
X154388747Y-124321134D01*
X154260960Y-124463056D01*
X154165473Y-124628444D01*
X154106458Y-124810072D01*
X154086496Y-125000000D01*
X118909077Y-125000000D01*
X113031829Y-119122752D01*
X113020962Y-119110361D01*
X113011585Y-119098140D01*
X113011581Y-119098136D01*
X113008169Y-119093689D01*
X112950372Y-119041098D01*
X112946076Y-119036999D01*
X112930835Y-119021758D01*
X112911678Y-119005740D01*
X112907699Y-119002269D01*
X112852761Y-118952279D01*
X112852760Y-118952278D01*
X112848611Y-118948503D01*
X112843856Y-118945520D01*
X112834307Y-118939529D01*
X112820447Y-118929459D01*
X112818981Y-118928233D01*
X112807495Y-118918630D01*
X112738075Y-118879033D01*
X112733578Y-118876342D01*
X112665865Y-118833866D01*
X112650201Y-118827569D01*
X112634771Y-118820110D01*
X112620109Y-118811747D01*
X112614826Y-118809876D01*
X112614819Y-118809873D01*
X112544776Y-118785070D01*
X112539868Y-118783215D01*
X112465707Y-118753403D01*
X112460209Y-118752264D01*
X112460208Y-118752264D01*
X112449170Y-118749978D01*
X112432674Y-118745373D01*
X112416756Y-118739736D01*
X112411222Y-118738830D01*
X112411219Y-118738829D01*
X112337917Y-118726826D01*
X112332726Y-118725864D01*
X112319150Y-118723053D01*
X112254463Y-118709656D01*
X112249852Y-118709390D01*
X112249851Y-118709390D01*
X112228034Y-118708132D01*
X112214929Y-118706685D01*
X112209411Y-118705782D01*
X112203866Y-118704874D01*
X112198252Y-118704962D01*
X112198250Y-118704962D01*
X112101365Y-118706484D01*
X112099386Y-118706500D01*
X110106767Y-118706500D01*
X110038646Y-118686498D01*
X109992153Y-118632842D01*
X109982049Y-118562568D01*
X110011543Y-118497988D01*
X110017672Y-118491405D01*
X114276407Y-114232670D01*
X120632160Y-114232670D01*
X120637887Y-114240320D01*
X120809042Y-114345205D01*
X120817837Y-114349687D01*
X121027988Y-114436734D01*
X121037373Y-114439783D01*
X121258554Y-114492885D01*
X121268301Y-114494428D01*
X121495070Y-114512275D01*
X121504930Y-114512275D01*
X121731699Y-114494428D01*
X121741446Y-114492885D01*
X121962627Y-114439783D01*
X121972012Y-114436734D01*
X122182163Y-114349687D01*
X122190958Y-114345205D01*
X122358445Y-114242568D01*
X122367907Y-114232110D01*
X122364124Y-114223334D01*
X121512812Y-113372022D01*
X121498868Y-113364408D01*
X121497035Y-113364539D01*
X121490420Y-113368790D01*
X120638920Y-114220290D01*
X120632160Y-114232670D01*
X114276407Y-114232670D01*
X115504147Y-113004930D01*
X119987725Y-113004930D01*
X120005572Y-113231699D01*
X120007115Y-113241446D01*
X120060217Y-113462627D01*
X120063266Y-113472012D01*
X120150313Y-113682163D01*
X120154795Y-113690958D01*
X120257432Y-113858445D01*
X120267890Y-113867907D01*
X120276666Y-113864124D01*
X121127978Y-113012812D01*
X121134356Y-113001132D01*
X121864408Y-113001132D01*
X121864539Y-113002965D01*
X121868790Y-113009580D01*
X122720290Y-113861080D01*
X122732670Y-113867840D01*
X122740320Y-113862113D01*
X122845205Y-113690958D01*
X122849687Y-113682163D01*
X122936734Y-113472012D01*
X122939783Y-113462627D01*
X122992885Y-113241446D01*
X122994428Y-113231699D01*
X123012275Y-113004930D01*
X123012275Y-112995070D01*
X122994428Y-112768301D01*
X122992885Y-112758554D01*
X122939783Y-112537373D01*
X122936734Y-112527988D01*
X122849687Y-112317837D01*
X122845205Y-112309042D01*
X122742568Y-112141555D01*
X122732110Y-112132093D01*
X122723334Y-112135876D01*
X121872022Y-112987188D01*
X121864408Y-113001132D01*
X121134356Y-113001132D01*
X121135592Y-112998868D01*
X121135461Y-112997035D01*
X121131210Y-112990420D01*
X120279710Y-112138920D01*
X120267330Y-112132160D01*
X120259680Y-112137887D01*
X120154795Y-112309042D01*
X120150313Y-112317837D01*
X120063266Y-112527988D01*
X120060217Y-112537373D01*
X120007115Y-112758554D01*
X120005572Y-112768301D01*
X119987725Y-112995070D01*
X119987725Y-113004930D01*
X115504147Y-113004930D01*
X116741187Y-111767890D01*
X120632093Y-111767890D01*
X120635876Y-111776666D01*
X121487188Y-112627978D01*
X121501132Y-112635592D01*
X121502965Y-112635461D01*
X121509580Y-112631210D01*
X122361080Y-111779710D01*
X122367840Y-111767330D01*
X122362113Y-111759680D01*
X122190958Y-111654795D01*
X122182163Y-111650313D01*
X121972012Y-111563266D01*
X121962627Y-111560217D01*
X121741446Y-111507115D01*
X121731699Y-111505572D01*
X121504930Y-111487725D01*
X121495070Y-111487725D01*
X121268301Y-111505572D01*
X121258554Y-111507115D01*
X121037373Y-111560217D01*
X121027988Y-111563266D01*
X120817837Y-111650313D01*
X120809042Y-111654795D01*
X120641555Y-111757432D01*
X120632093Y-111767890D01*
X116741187Y-111767890D01*
X119263672Y-109245405D01*
X119325984Y-109211379D01*
X119352767Y-109208500D01*
X119957725Y-109208500D01*
X120025846Y-109228502D01*
X120058551Y-109258935D01*
X120136739Y-109363261D01*
X120253295Y-109450615D01*
X120389684Y-109501745D01*
X120451866Y-109508500D01*
X122548134Y-109508500D01*
X122610316Y-109501745D01*
X122746705Y-109450615D01*
X122863261Y-109363261D01*
X122950615Y-109246705D01*
X123001745Y-109110316D01*
X123008500Y-109048134D01*
X123008500Y-106951866D01*
X123001745Y-106889684D01*
X122950615Y-106753295D01*
X122863261Y-106636739D01*
X122746705Y-106549385D01*
X122610316Y-106498255D01*
X122548134Y-106491500D01*
X120451866Y-106491500D01*
X120389684Y-106498255D01*
X120253295Y-106549385D01*
X120136739Y-106636739D01*
X120131358Y-106643919D01*
X120058551Y-106741065D01*
X120001692Y-106783580D01*
X119957725Y-106791500D01*
X118888094Y-106791500D01*
X118871648Y-106790422D01*
X118856383Y-106788412D01*
X118856378Y-106788412D01*
X118850812Y-106787679D01*
X118777082Y-106791156D01*
X118772763Y-106791360D01*
X118766827Y-106791500D01*
X118745265Y-106791500D01*
X118722144Y-106793563D01*
X118720409Y-106793718D01*
X118715147Y-106794077D01*
X118635325Y-106797842D01*
X118629866Y-106799092D01*
X118629861Y-106799093D01*
X118618868Y-106801611D01*
X118601937Y-106804292D01*
X118597826Y-106804659D01*
X118585128Y-106805792D01*
X118579716Y-106807273D01*
X118579708Y-106807274D01*
X118508059Y-106826875D01*
X118502941Y-106828161D01*
X118437071Y-106843247D01*
X118425043Y-106846002D01*
X118409511Y-106852627D01*
X118393332Y-106858261D01*
X118377048Y-106862716D01*
X118371980Y-106865133D01*
X118371981Y-106865133D01*
X118304955Y-106897103D01*
X118300144Y-106899276D01*
X118282307Y-106906884D01*
X118226614Y-106930639D01*
X118212494Y-106939914D01*
X118197570Y-106948323D01*
X118182337Y-106955589D01*
X118177784Y-106958861D01*
X118177775Y-106958866D01*
X118117438Y-107002222D01*
X118113093Y-107005209D01*
X118046309Y-107049078D01*
X118042857Y-107052154D01*
X118026548Y-107066685D01*
X118016248Y-107074936D01*
X118011706Y-107078199D01*
X118011702Y-107078203D01*
X118007149Y-107081474D01*
X118003249Y-107085499D01*
X118003245Y-107085502D01*
X117935752Y-107155150D01*
X117934363Y-107156560D01*
X106792478Y-118298445D01*
X106730166Y-118332471D01*
X106659351Y-118327406D01*
X106627818Y-118310176D01*
X106546705Y-118249385D01*
X106410316Y-118198255D01*
X106348134Y-118191500D01*
X103651866Y-118191500D01*
X103589684Y-118198255D01*
X103453295Y-118249385D01*
X103336739Y-118336739D01*
X103249385Y-118453295D01*
X103198255Y-118589684D01*
X103191500Y-118651866D01*
X103191500Y-121348134D01*
X100508500Y-121348134D01*
X100508500Y-105132703D01*
X102890743Y-105132703D01*
X102928268Y-105417734D01*
X103004129Y-105695036D01*
X103116923Y-105959476D01*
X103264561Y-106206161D01*
X103444313Y-106430528D01*
X103652851Y-106628423D01*
X103675787Y-106644904D01*
X103878296Y-106790422D01*
X103886317Y-106796186D01*
X103890112Y-106798195D01*
X103890113Y-106798196D01*
X103911869Y-106809715D01*
X104140392Y-106930712D01*
X104410373Y-107029511D01*
X104691264Y-107090755D01*
X104719841Y-107093004D01*
X104914282Y-107108307D01*
X104914291Y-107108307D01*
X104916739Y-107108500D01*
X105072271Y-107108500D01*
X105074407Y-107108354D01*
X105074418Y-107108354D01*
X105282548Y-107094165D01*
X105282554Y-107094164D01*
X105286825Y-107093873D01*
X105291020Y-107093004D01*
X105291022Y-107093004D01*
X105427583Y-107064724D01*
X105568342Y-107035574D01*
X105839343Y-106939607D01*
X106094812Y-106807750D01*
X106098313Y-106805289D01*
X106098317Y-106805287D01*
X106212417Y-106725096D01*
X106330023Y-106642441D01*
X106482200Y-106501029D01*
X106537479Y-106449661D01*
X106537481Y-106449658D01*
X106540622Y-106446740D01*
X106722713Y-106224268D01*
X106872927Y-105979142D01*
X106988483Y-105715898D01*
X107067244Y-105439406D01*
X107107751Y-105154784D01*
X107107845Y-105136951D01*
X107109235Y-104871583D01*
X107109235Y-104871576D01*
X107109257Y-104867297D01*
X107071732Y-104582266D01*
X106995871Y-104304964D01*
X106883077Y-104040524D01*
X106735439Y-103793839D01*
X106555687Y-103569472D01*
X106347149Y-103371577D01*
X106113683Y-103203814D01*
X106091843Y-103192250D01*
X106068654Y-103179972D01*
X105859608Y-103069288D01*
X105589627Y-102970489D01*
X105308736Y-102909245D01*
X105277685Y-102906801D01*
X105085718Y-102891693D01*
X105085709Y-102891693D01*
X105083261Y-102891500D01*
X104927729Y-102891500D01*
X104925593Y-102891646D01*
X104925582Y-102891646D01*
X104717452Y-102905835D01*
X104717446Y-102905836D01*
X104713175Y-102906127D01*
X104708980Y-102906996D01*
X104708978Y-102906996D01*
X104572417Y-102935276D01*
X104431658Y-102964426D01*
X104160657Y-103060393D01*
X103905188Y-103192250D01*
X103901687Y-103194711D01*
X103901683Y-103194713D01*
X103891594Y-103201804D01*
X103669977Y-103357559D01*
X103459378Y-103553260D01*
X103277287Y-103775732D01*
X103127073Y-104020858D01*
X103011517Y-104284102D01*
X102932756Y-104560594D01*
X102892249Y-104845216D01*
X102892227Y-104849505D01*
X102892226Y-104849512D01*
X102890765Y-105128417D01*
X102890743Y-105132703D01*
X100508500Y-105132703D01*
X100508500Y-100634500D01*
X100528502Y-100566379D01*
X100582158Y-100519886D01*
X100634500Y-100508500D01*
X176874000Y-100508500D01*
X176942121Y-100528502D01*
G37*
G04 #@! TD.AperFunction*
M02*
