G04 #@! TF.GenerationSoftware,KiCad,Pcbnew,6.0.2+dfsg-1*
G04 #@! TF.CreationDate,2023-02-09T09:42:12+00:00*
G04 #@! TF.ProjectId,NixiePowerAlternate,4e697869-6550-46f7-9765-72416c746572,rev?*
G04 #@! TF.SameCoordinates,Original*
G04 #@! TF.FileFunction,Soldermask,Top*
G04 #@! TF.FilePolarity,Negative*
%FSLAX46Y46*%
G04 Gerber Fmt 4.6, Leading zero omitted, Abs format (unit mm)*
G04 Created by KiCad (PCBNEW 6.0.2+dfsg-1) date 2023-02-09 09:42:12*
%MOMM*%
%LPD*%
G01*
G04 APERTURE LIST*
G04 Aperture macros list*
%AMRoundRect*
0 Rectangle with rounded corners*
0 $1 Rounding radius*
0 $2 $3 $4 $5 $6 $7 $8 $9 X,Y pos of 4 corners*
0 Add a 4 corners polygon primitive as box body*
4,1,4,$2,$3,$4,$5,$6,$7,$8,$9,$2,$3,0*
0 Add four circle primitives for the rounded corners*
1,1,$1+$1,$2,$3*
1,1,$1+$1,$4,$5*
1,1,$1+$1,$6,$7*
1,1,$1+$1,$8,$9*
0 Add four rect primitives between the rounded corners*
20,1,$1+$1,$2,$3,$4,$5,0*
20,1,$1+$1,$4,$5,$6,$7,0*
20,1,$1+$1,$6,$7,$8,$9,0*
20,1,$1+$1,$8,$9,$2,$3,0*%
G04 Aperture macros list end*
%ADD10C,3.200000*%
%ADD11RoundRect,0.250000X-0.475000X0.337500X-0.475000X-0.337500X0.475000X-0.337500X0.475000X0.337500X0*%
%ADD12RoundRect,0.250000X-0.350000X-0.450000X0.350000X-0.450000X0.350000X0.450000X-0.350000X0.450000X0*%
%ADD13R,1.780000X3.560000*%
%ADD14R,1.100000X4.600000*%
%ADD15R,10.800000X9.400000*%
%ADD16RoundRect,0.250000X0.350000X0.450000X-0.350000X0.450000X-0.350000X-0.450000X0.350000X-0.450000X0*%
%ADD17RoundRect,0.250000X-0.650000X0.412500X-0.650000X-0.412500X0.650000X-0.412500X0.650000X0.412500X0*%
%ADD18RoundRect,0.250001X-0.924999X0.499999X-0.924999X-0.499999X0.924999X-0.499999X0.924999X0.499999X0*%
%ADD19RoundRect,0.250000X0.400000X0.625000X-0.400000X0.625000X-0.400000X-0.625000X0.400000X-0.625000X0*%
%ADD20R,2.300000X2.500000*%
%ADD21RoundRect,0.250001X0.924999X-0.499999X0.924999X0.499999X-0.924999X0.499999X-0.924999X-0.499999X0*%
%ADD22RoundRect,0.250000X0.412500X0.650000X-0.412500X0.650000X-0.412500X-0.650000X0.412500X-0.650000X0*%
%ADD23R,3.500000X1.800000*%
%ADD24R,3.500000X3.500000*%
%ADD25RoundRect,0.750000X1.000000X-0.750000X1.000000X0.750000X-1.000000X0.750000X-1.000000X-0.750000X0*%
%ADD26RoundRect,0.875000X0.875000X-0.875000X0.875000X0.875000X-0.875000X0.875000X-0.875000X-0.875000X0*%
%ADD27RoundRect,0.250000X0.250000X0.475000X-0.250000X0.475000X-0.250000X-0.475000X0.250000X-0.475000X0*%
%ADD28C,4.000000*%
%ADD29R,1.550000X0.600000*%
%ADD30R,2.600000X3.100000*%
%ADD31R,2.000000X1.500000*%
%ADD32R,2.000000X3.800000*%
%ADD33RoundRect,0.150000X-0.725000X-0.150000X0.725000X-0.150000X0.725000X0.150000X-0.725000X0.150000X0*%
%ADD34RoundRect,0.250000X-0.625000X0.400000X-0.625000X-0.400000X0.625000X-0.400000X0.625000X0.400000X0*%
%ADD35R,2.600000X2.600000*%
%ADD36C,2.600000*%
%ADD37RoundRect,0.250000X-0.337500X-0.475000X0.337500X-0.475000X0.337500X0.475000X-0.337500X0.475000X0*%
%ADD38RoundRect,0.250000X0.450000X-0.350000X0.450000X0.350000X-0.450000X0.350000X-0.450000X-0.350000X0*%
%ADD39R,2.000000X2.000000*%
%ADD40C,2.000000*%
%ADD41RoundRect,0.250000X-0.250000X-0.475000X0.250000X-0.475000X0.250000X0.475000X-0.250000X0.475000X0*%
%ADD42RoundRect,0.750000X-0.750000X2.000000X-0.750000X-2.000000X0.750000X-2.000000X0.750000X2.000000X0*%
G04 APERTURE END LIST*
D10*
X195000000Y-105000000D03*
D11*
X153900000Y-143700000D03*
X153900000Y-145775000D03*
D12*
X162500000Y-135000000D03*
X164500000Y-135000000D03*
D13*
X160400000Y-143500000D03*
X169800000Y-143500000D03*
D14*
X159460000Y-115775000D03*
D15*
X162000000Y-106625000D03*
D14*
X164540000Y-115775000D03*
D16*
X153000000Y-128000000D03*
X151000000Y-128000000D03*
D17*
X139000000Y-138437500D03*
X139000000Y-141562500D03*
X135000000Y-138437500D03*
X135000000Y-141562500D03*
D18*
X174000000Y-139475000D03*
X174000000Y-142725000D03*
D19*
X159550000Y-128000000D03*
X156450000Y-128000000D03*
D20*
X172266450Y-118150000D03*
X172266450Y-113850000D03*
D21*
X186000000Y-129125000D03*
X186000000Y-125875000D03*
D22*
X159562500Y-132500000D03*
X156437500Y-132500000D03*
D23*
X148300000Y-145800000D03*
X143300000Y-145800000D03*
D24*
X121500000Y-136000000D03*
D25*
X121500000Y-142200000D03*
D26*
X126500000Y-139100000D03*
D27*
X155550000Y-122000000D03*
X153650000Y-122000000D03*
D28*
X134000000Y-117000000D03*
D29*
X153700000Y-139905000D03*
X153700000Y-138635000D03*
X153700000Y-137365000D03*
X153700000Y-136095000D03*
X148300000Y-136095000D03*
X148300000Y-137365000D03*
X148300000Y-138635000D03*
X148300000Y-139905000D03*
D30*
X151000000Y-138000000D03*
D31*
X174850000Y-126700000D03*
X174850000Y-129000000D03*
D32*
X181150000Y-129000000D03*
D31*
X174850000Y-131300000D03*
D33*
X159425000Y-121095000D03*
X159425000Y-122365000D03*
X159425000Y-123635000D03*
X159425000Y-124905000D03*
X164575000Y-124905000D03*
X164575000Y-123635000D03*
X164575000Y-122365000D03*
X164575000Y-121095000D03*
D34*
X168500000Y-120950000D03*
X168500000Y-124050000D03*
D18*
X185500000Y-139375000D03*
X185500000Y-142625000D03*
D35*
X105000000Y-120000000D03*
D36*
X105000000Y-125080000D03*
X105000000Y-130160000D03*
D37*
X174462500Y-134500000D03*
X176537500Y-134500000D03*
D35*
X194805000Y-118500000D03*
D36*
X194805000Y-113420000D03*
D38*
X157400000Y-138000000D03*
X157400000Y-136000000D03*
D39*
X121500000Y-108000000D03*
D40*
X121500000Y-113000000D03*
D10*
X195000000Y-145000000D03*
D41*
X164550000Y-128250000D03*
X166450000Y-128250000D03*
D35*
X194805000Y-136096000D03*
D36*
X194805000Y-131016000D03*
X194805000Y-125936000D03*
D18*
X179400000Y-139475000D03*
X179400000Y-142725000D03*
D10*
X105000000Y-105000000D03*
D17*
X143000000Y-138437500D03*
X143000000Y-141562500D03*
D42*
X149750000Y-108000000D03*
X140250000Y-108000000D03*
D39*
X182500000Y-118441807D03*
D40*
X182500000Y-113441807D03*
D10*
X105000000Y-145000000D03*
M02*
