M48
; DRILL file {KiCad 6.0.2+dfsg-1} date Thu 09 Feb 2023 09:42:40 GMT
; FORMAT={-:-/ absolute / metric / decimal}
; #@! TF.CreationDate,2023-02-09T09:42:40+00:00
; #@! TF.GenerationSoftware,Kicad,Pcbnew,6.0.2+dfsg-1
; #@! TF.FileFunction,Plated,1,2,PTH
FMAT,2
METRIC
; #@! TA.AperFunction,Plated,PTH,ViaDrill
T1C0.300
; #@! TA.AperFunction,Plated,PTH,ComponentDrill
T2C0.300
; #@! TA.AperFunction,Plated,PTH,ViaDrill
T3C0.400
; #@! TA.AperFunction,Plated,PTH,ComponentDrill
T4C1.000
; #@! TA.AperFunction,Plated,PTH,ComponentDrill
T5C1.300
; #@! TA.AperFunction,Plated,PTH,ComponentDrill
T6C2.000
%
G90
G05
T1
X149.0Y-128.0
X166.3Y-135.0
X174.0Y-145.0
X179.4Y-144.8
X185.6Y-145.0
X188.6Y-125.9
T2
X150.4Y-136.2
X150.4Y-137.3
X150.4Y-138.6
X150.4Y-139.8
X151.6Y-136.2
X151.6Y-137.3
X151.6Y-138.6
X151.6Y-139.8
T3
X149.0Y-125.0
X152.0Y-122.0
X158.0Y-125.0
X166.55Y-124.05
X167.5Y-127.0
X175.0Y-124.0
X176.0Y-136.5
X188.5Y-142.0
T4
X121.5Y-108.0
X121.5Y-113.0
X182.5Y-113.442
X182.5Y-118.442
T5
X105.0Y-120.0
X105.0Y-125.08
X105.0Y-130.16
X194.805Y-113.42
X194.805Y-118.5
X194.805Y-125.936
X194.805Y-131.016
X194.805Y-136.096
T6
X134.0Y-117.0
T4
X120.5Y-136.0G85X122.5Y-136.0
G05
X120.5Y-142.2G85X122.5Y-142.2
G05
X126.5Y-140.1G85X126.5Y-138.1
G05
T0
M30
