G04 #@! TF.GenerationSoftware,KiCad,Pcbnew,(6.0.10)*
G04 #@! TF.CreationDate,2023-01-08T15:34:45+00:00*
G04 #@! TF.ProjectId,NixiePowerAlternate,4e697869-6550-46f7-9765-72416c746572,rev?*
G04 #@! TF.SameCoordinates,Original*
G04 #@! TF.FileFunction,Paste,Top*
G04 #@! TF.FilePolarity,Positive*
%FSLAX46Y46*%
G04 Gerber Fmt 4.6, Leading zero omitted, Abs format (unit mm)*
G04 Created by KiCad (PCBNEW (6.0.10)) date 2023-01-08 15:34:45*
%MOMM*%
%LPD*%
G01*
G04 APERTURE LIST*
G04 Aperture macros list*
%AMRoundRect*
0 Rectangle with rounded corners*
0 $1 Rounding radius*
0 $2 $3 $4 $5 $6 $7 $8 $9 X,Y pos of 4 corners*
0 Add a 4 corners polygon primitive as box body*
4,1,4,$2,$3,$4,$5,$6,$7,$8,$9,$2,$3,0*
0 Add four circle primitives for the rounded corners*
1,1,$1+$1,$2,$3*
1,1,$1+$1,$4,$5*
1,1,$1+$1,$6,$7*
1,1,$1+$1,$8,$9*
0 Add four rect primitives between the rounded corners*
20,1,$1+$1,$2,$3,$4,$5,0*
20,1,$1+$1,$4,$5,$6,$7,0*
20,1,$1+$1,$6,$7,$8,$9,0*
20,1,$1+$1,$8,$9,$2,$3,0*%
G04 Aperture macros list end*
%ADD10R,5.250000X4.550000*%
%ADD11R,1.100000X4.600000*%
%ADD12RoundRect,0.250000X0.350000X0.450000X-0.350000X0.450000X-0.350000X-0.450000X0.350000X-0.450000X0*%
%ADD13RoundRect,0.250000X0.400000X0.625000X-0.400000X0.625000X-0.400000X-0.625000X0.400000X-0.625000X0*%
%ADD14RoundRect,0.250000X0.425000X-0.450000X0.425000X0.450000X-0.425000X0.450000X-0.425000X-0.450000X0*%
%ADD15R,2.300000X2.500000*%
%ADD16RoundRect,0.250000X-0.475000X0.337500X-0.475000X-0.337500X0.475000X-0.337500X0.475000X0.337500X0*%
%ADD17RoundRect,0.250000X0.250000X0.475000X-0.250000X0.475000X-0.250000X-0.475000X0.250000X-0.475000X0*%
%ADD18R,2.000000X1.500000*%
%ADD19R,2.000000X3.800000*%
%ADD20RoundRect,0.150000X-0.725000X-0.150000X0.725000X-0.150000X0.725000X0.150000X-0.725000X0.150000X0*%
%ADD21RoundRect,0.250000X-0.625000X0.400000X-0.625000X-0.400000X0.625000X-0.400000X0.625000X0.400000X0*%
%ADD22RoundRect,0.250000X-0.425000X0.450000X-0.425000X-0.450000X0.425000X-0.450000X0.425000X0.450000X0*%
%ADD23RoundRect,0.250000X-0.337500X-0.475000X0.337500X-0.475000X0.337500X0.475000X-0.337500X0.475000X0*%
%ADD24RoundRect,0.250000X-0.250000X-0.475000X0.250000X-0.475000X0.250000X0.475000X-0.250000X0.475000X0*%
%ADD25RoundRect,0.750000X-0.750000X2.000000X-0.750000X-2.000000X0.750000X-2.000000X0.750000X2.000000X0*%
G04 APERTURE END LIST*
D10*
X159225000Y-109050000D03*
X164775000Y-109050000D03*
X164775000Y-104200000D03*
X159225000Y-104200000D03*
D11*
X159460000Y-115775000D03*
X164540000Y-115775000D03*
D12*
X153000000Y-128000000D03*
X151000000Y-128000000D03*
D13*
X159550000Y-128000000D03*
X156450000Y-128000000D03*
D14*
X186300000Y-128350000D03*
X186300000Y-125650000D03*
D15*
X172266450Y-118150000D03*
X172266450Y-113850000D03*
D16*
X158375000Y-144823752D03*
X158375000Y-146898752D03*
D17*
X155550000Y-122000000D03*
X153650000Y-122000000D03*
D18*
X174850000Y-126700000D03*
X174850000Y-129000000D03*
D19*
X181150000Y-129000000D03*
D18*
X174850000Y-131300000D03*
D20*
X159425000Y-121095000D03*
X159425000Y-122365000D03*
X159425000Y-123635000D03*
X159425000Y-124905000D03*
X164575000Y-124905000D03*
X164575000Y-123635000D03*
X164575000Y-122365000D03*
X164575000Y-121095000D03*
D21*
X168500000Y-120950000D03*
X168500000Y-124050000D03*
D22*
X185500000Y-139650000D03*
X185500000Y-142350000D03*
D23*
X174462500Y-134500000D03*
X176537500Y-134500000D03*
D18*
X162350000Y-140200000D03*
X162350000Y-142500000D03*
D19*
X168650000Y-142500000D03*
D18*
X162350000Y-144800000D03*
D24*
X164550000Y-128250000D03*
X166450000Y-128250000D03*
D25*
X149750000Y-108000000D03*
X140250000Y-108000000D03*
M02*
