M48
; DRILL file {KiCad (6.0.10)} date Sun Jan  8 15:35:17 2023
; FORMAT={-:-/ absolute / metric / decimal}
; #@! TF.CreationDate,2023-01-08T15:35:17+00:00
; #@! TF.GenerationSoftware,Kicad,Pcbnew,(6.0.10)
; #@! TF.FileFunction,Plated,1,2,PTH
FMAT,2
METRIC
; #@! TA.AperFunction,Plated,PTH,ViaDrill
T1C0.300
; #@! TA.AperFunction,Plated,PTH,ViaDrill
T2C0.400
; #@! TA.AperFunction,Plated,PTH,ComponentDrill
T3C0.800
; #@! TA.AperFunction,Plated,PTH,ComponentDrill
T4C1.000
; #@! TA.AperFunction,Plated,PTH,ComponentDrill
T5C1.300
; #@! TA.AperFunction,Plated,PTH,ComponentDrill
T6C2.000
%
G90
G05
T1
X156.5Y-148.0
T2
X152.0Y-122.0
X155.0Y-125.0
X158.0Y-125.0
X162.5Y-138.0
X166.55Y-124.05
X167.5Y-127.0
X175.0Y-124.0
X176.0Y-136.5
X188.5Y-142.0
T3
X140.445Y-130.54
X142.985Y-128.0
X142.985Y-133.08
T4
X121.5Y-108.0
X121.5Y-113.0
X182.5Y-113.442
X182.5Y-118.442
T5
X105.0Y-120.0
X105.0Y-125.08
X105.0Y-130.16
X194.805Y-113.42
X194.805Y-118.5
X194.805Y-125.936
X194.805Y-131.016
X194.805Y-136.096
T6
X147.5Y-144.6
T4
X120.5Y-136.0G85X122.5Y-136.0
G05
X120.5Y-142.2G85X122.5Y-142.2
G05
X126.5Y-140.1G85X126.5Y-138.1
G05
T0
M30
