G04 #@! TF.GenerationSoftware,KiCad,Pcbnew,6.0.2+dfsg-1*
G04 #@! TF.CreationDate,2023-02-09T09:42:11+00:00*
G04 #@! TF.ProjectId,NixiePowerAlternate,4e697869-6550-46f7-9765-72416c746572,rev?*
G04 #@! TF.SameCoordinates,Original*
G04 #@! TF.FileFunction,Legend,Top*
G04 #@! TF.FilePolarity,Positive*
%FSLAX46Y46*%
G04 Gerber Fmt 4.6, Leading zero omitted, Abs format (unit mm)*
G04 Created by KiCad (PCBNEW 6.0.2+dfsg-1) date 2023-02-09 09:42:11*
%MOMM*%
%LPD*%
G01*
G04 APERTURE LIST*
G04 Aperture macros list*
%AMRoundRect*
0 Rectangle with rounded corners*
0 $1 Rounding radius*
0 $2 $3 $4 $5 $6 $7 $8 $9 X,Y pos of 4 corners*
0 Add a 4 corners polygon primitive as box body*
4,1,4,$2,$3,$4,$5,$6,$7,$8,$9,$2,$3,0*
0 Add four circle primitives for the rounded corners*
1,1,$1+$1,$2,$3*
1,1,$1+$1,$4,$5*
1,1,$1+$1,$6,$7*
1,1,$1+$1,$8,$9*
0 Add four rect primitives between the rounded corners*
20,1,$1+$1,$2,$3,$4,$5,0*
20,1,$1+$1,$4,$5,$6,$7,0*
20,1,$1+$1,$6,$7,$8,$9,0*
20,1,$1+$1,$8,$9,$2,$3,0*%
G04 Aperture macros list end*
%ADD10C,0.180000*%
%ADD11C,0.150000*%
%ADD12C,0.200000*%
%ADD13C,0.120000*%
%ADD14C,3.200000*%
%ADD15RoundRect,0.250000X-0.475000X0.337500X-0.475000X-0.337500X0.475000X-0.337500X0.475000X0.337500X0*%
%ADD16RoundRect,0.250000X-0.350000X-0.450000X0.350000X-0.450000X0.350000X0.450000X-0.350000X0.450000X0*%
%ADD17R,1.780000X3.560000*%
%ADD18R,1.100000X4.600000*%
%ADD19R,10.800000X9.400000*%
%ADD20RoundRect,0.250000X0.350000X0.450000X-0.350000X0.450000X-0.350000X-0.450000X0.350000X-0.450000X0*%
%ADD21RoundRect,0.250000X-0.650000X0.412500X-0.650000X-0.412500X0.650000X-0.412500X0.650000X0.412500X0*%
%ADD22RoundRect,0.250001X-0.924999X0.499999X-0.924999X-0.499999X0.924999X-0.499999X0.924999X0.499999X0*%
%ADD23RoundRect,0.250000X0.400000X0.625000X-0.400000X0.625000X-0.400000X-0.625000X0.400000X-0.625000X0*%
%ADD24R,2.300000X2.500000*%
%ADD25RoundRect,0.250001X0.924999X-0.499999X0.924999X0.499999X-0.924999X0.499999X-0.924999X-0.499999X0*%
%ADD26RoundRect,0.250000X0.412500X0.650000X-0.412500X0.650000X-0.412500X-0.650000X0.412500X-0.650000X0*%
%ADD27R,3.500000X1.800000*%
%ADD28R,3.500000X3.500000*%
%ADD29RoundRect,0.750000X1.000000X-0.750000X1.000000X0.750000X-1.000000X0.750000X-1.000000X-0.750000X0*%
%ADD30RoundRect,0.875000X0.875000X-0.875000X0.875000X0.875000X-0.875000X0.875000X-0.875000X-0.875000X0*%
%ADD31RoundRect,0.250000X0.250000X0.475000X-0.250000X0.475000X-0.250000X-0.475000X0.250000X-0.475000X0*%
%ADD32C,4.000000*%
%ADD33R,1.550000X0.600000*%
%ADD34R,2.600000X3.100000*%
%ADD35R,2.000000X1.500000*%
%ADD36R,2.000000X3.800000*%
%ADD37RoundRect,0.150000X-0.725000X-0.150000X0.725000X-0.150000X0.725000X0.150000X-0.725000X0.150000X0*%
%ADD38RoundRect,0.250000X-0.625000X0.400000X-0.625000X-0.400000X0.625000X-0.400000X0.625000X0.400000X0*%
%ADD39R,2.600000X2.600000*%
%ADD40C,2.600000*%
%ADD41RoundRect,0.250000X-0.337500X-0.475000X0.337500X-0.475000X0.337500X0.475000X-0.337500X0.475000X0*%
%ADD42RoundRect,0.250000X0.450000X-0.350000X0.450000X0.350000X-0.450000X0.350000X-0.450000X-0.350000X0*%
%ADD43R,2.000000X2.000000*%
%ADD44C,2.000000*%
%ADD45RoundRect,0.250000X-0.250000X-0.475000X0.250000X-0.475000X0.250000X0.475000X-0.250000X0.475000X0*%
%ADD46RoundRect,0.750000X-0.750000X2.000000X-0.750000X-2.000000X0.750000X-2.000000X0.750000X2.000000X0*%
G04 APERTURE END LIST*
D10*
X188614285Y-138371428D02*
X188614285Y-137152380D01*
X189223809Y-137761904D02*
X188004761Y-137761904D01*
X187623809Y-135628571D02*
X187623809Y-136390476D01*
X188385714Y-136466666D01*
X188309523Y-136390476D01*
X188233333Y-136238095D01*
X188233333Y-135857142D01*
X188309523Y-135704761D01*
X188385714Y-135628571D01*
X188538095Y-135552380D01*
X188919047Y-135552380D01*
X189071428Y-135628571D01*
X189147619Y-135704761D01*
X189223809Y-135857142D01*
X189223809Y-136238095D01*
X189147619Y-136390476D01*
X189071428Y-136466666D01*
X188607142Y-122214285D02*
X188607142Y-121071428D01*
X189178571Y-121642857D02*
X188035714Y-121642857D01*
X189178571Y-119571428D02*
X189178571Y-120428571D01*
X189178571Y-120000000D02*
X187678571Y-120000000D01*
X187892857Y-120142857D01*
X188035714Y-120285714D01*
X188107142Y-120428571D01*
X188321428Y-118714285D02*
X188250000Y-118857142D01*
X188178571Y-118928571D01*
X188035714Y-119000000D01*
X187964285Y-119000000D01*
X187821428Y-118928571D01*
X187750000Y-118857142D01*
X187678571Y-118714285D01*
X187678571Y-118428571D01*
X187750000Y-118285714D01*
X187821428Y-118214285D01*
X187964285Y-118142857D01*
X188035714Y-118142857D01*
X188178571Y-118214285D01*
X188250000Y-118285714D01*
X188321428Y-118428571D01*
X188321428Y-118714285D01*
X188392857Y-118857142D01*
X188464285Y-118928571D01*
X188607142Y-119000000D01*
X188892857Y-119000000D01*
X189035714Y-118928571D01*
X189107142Y-118857142D01*
X189178571Y-118714285D01*
X189178571Y-118428571D01*
X189107142Y-118285714D01*
X189035714Y-118214285D01*
X188892857Y-118142857D01*
X188607142Y-118142857D01*
X188464285Y-118214285D01*
X188392857Y-118285714D01*
X188321428Y-118428571D01*
X187678571Y-117214285D02*
X187678571Y-117071428D01*
X187750000Y-116928571D01*
X187821428Y-116857142D01*
X187964285Y-116785714D01*
X188250000Y-116714285D01*
X188607142Y-116714285D01*
X188892857Y-116785714D01*
X189035714Y-116857142D01*
X189107142Y-116928571D01*
X189178571Y-117071428D01*
X189178571Y-117214285D01*
X189107142Y-117357142D01*
X189035714Y-117428571D01*
X188892857Y-117500000D01*
X188607142Y-117571428D01*
X188250000Y-117571428D01*
X187964285Y-117500000D01*
X187821428Y-117428571D01*
X187750000Y-117357142D01*
X187678571Y-117214285D01*
X188714285Y-134014285D02*
X188714285Y-132795238D01*
X189323809Y-133404761D02*
X188104761Y-133404761D01*
X187723809Y-132185714D02*
X187723809Y-131195238D01*
X188333333Y-131728571D01*
X188333333Y-131500000D01*
X188409523Y-131347619D01*
X188485714Y-131271428D01*
X188638095Y-131195238D01*
X189019047Y-131195238D01*
X189171428Y-131271428D01*
X189247619Y-131347619D01*
X189323809Y-131500000D01*
X189323809Y-131957142D01*
X189247619Y-132109523D01*
X189171428Y-132185714D01*
X189171428Y-130509523D02*
X189247619Y-130433333D01*
X189323809Y-130509523D01*
X189247619Y-130585714D01*
X189171428Y-130509523D01*
X189323809Y-130509523D01*
X187723809Y-129900000D02*
X187723809Y-128909523D01*
X188333333Y-129442857D01*
X188333333Y-129214285D01*
X188409523Y-129061904D01*
X188485714Y-128985714D01*
X188638095Y-128909523D01*
X189019047Y-128909523D01*
X189171428Y-128985714D01*
X189247619Y-129061904D01*
X189323809Y-129214285D01*
X189323809Y-129671428D01*
X189247619Y-129823809D01*
X189171428Y-129900000D01*
D11*
X194238095Y-101252380D02*
X194238095Y-100252380D01*
X194238095Y-100728571D02*
X194809523Y-100728571D01*
X194809523Y-101252380D02*
X194809523Y-100252380D01*
X195714285Y-100585714D02*
X195714285Y-101252380D01*
X195476190Y-100204761D02*
X195238095Y-100919047D01*
X195857142Y-100919047D01*
X155937142Y-144904166D02*
X155984761Y-144951785D01*
X156032380Y-145094642D01*
X156032380Y-145189880D01*
X155984761Y-145332738D01*
X155889523Y-145427976D01*
X155794285Y-145475595D01*
X155603809Y-145523214D01*
X155460952Y-145523214D01*
X155270476Y-145475595D01*
X155175238Y-145427976D01*
X155080000Y-145332738D01*
X155032380Y-145189880D01*
X155032380Y-145094642D01*
X155080000Y-144951785D01*
X155127619Y-144904166D01*
X155460952Y-144332738D02*
X155413333Y-144427976D01*
X155365714Y-144475595D01*
X155270476Y-144523214D01*
X155222857Y-144523214D01*
X155127619Y-144475595D01*
X155080000Y-144427976D01*
X155032380Y-144332738D01*
X155032380Y-144142261D01*
X155080000Y-144047023D01*
X155127619Y-143999404D01*
X155222857Y-143951785D01*
X155270476Y-143951785D01*
X155365714Y-143999404D01*
X155413333Y-144047023D01*
X155460952Y-144142261D01*
X155460952Y-144332738D01*
X155508571Y-144427976D01*
X155556190Y-144475595D01*
X155651428Y-144523214D01*
X155841904Y-144523214D01*
X155937142Y-144475595D01*
X155984761Y-144427976D01*
X156032380Y-144332738D01*
X156032380Y-144142261D01*
X155984761Y-144047023D01*
X155937142Y-143999404D01*
X155841904Y-143951785D01*
X155651428Y-143951785D01*
X155556190Y-143999404D01*
X155508571Y-144047023D01*
X155460952Y-144142261D01*
X163333333Y-133802380D02*
X163000000Y-133326190D01*
X162761904Y-133802380D02*
X162761904Y-132802380D01*
X163142857Y-132802380D01*
X163238095Y-132850000D01*
X163285714Y-132897619D01*
X163333333Y-132992857D01*
X163333333Y-133135714D01*
X163285714Y-133230952D01*
X163238095Y-133278571D01*
X163142857Y-133326190D01*
X162761904Y-133326190D01*
X164238095Y-132802380D02*
X163761904Y-132802380D01*
X163714285Y-133278571D01*
X163761904Y-133230952D01*
X163857142Y-133183333D01*
X164095238Y-133183333D01*
X164190476Y-133230952D01*
X164238095Y-133278571D01*
X164285714Y-133373809D01*
X164285714Y-133611904D01*
X164238095Y-133707142D01*
X164190476Y-133754761D01*
X164095238Y-133802380D01*
X163857142Y-133802380D01*
X163761904Y-133754761D01*
X163714285Y-133707142D01*
X165052380Y-143666666D02*
X165052380Y-144142857D01*
X164052380Y-144142857D01*
X164147619Y-143380952D02*
X164100000Y-143333333D01*
X164052380Y-143238095D01*
X164052380Y-143000000D01*
X164100000Y-142904761D01*
X164147619Y-142857142D01*
X164242857Y-142809523D01*
X164338095Y-142809523D01*
X164480952Y-142857142D01*
X165052380Y-143428571D01*
X165052380Y-142809523D01*
X155897619Y-110095238D02*
X155850000Y-110190476D01*
X155754761Y-110285714D01*
X155611904Y-110428571D01*
X155564285Y-110523809D01*
X155564285Y-110619047D01*
X155802380Y-110571428D02*
X155754761Y-110666666D01*
X155659523Y-110761904D01*
X155469047Y-110809523D01*
X155135714Y-110809523D01*
X154945238Y-110761904D01*
X154850000Y-110666666D01*
X154802380Y-110571428D01*
X154802380Y-110380952D01*
X154850000Y-110285714D01*
X154945238Y-110190476D01*
X155135714Y-110142857D01*
X155469047Y-110142857D01*
X155659523Y-110190476D01*
X155754761Y-110285714D01*
X155802380Y-110380952D01*
X155802380Y-110571428D01*
X155802380Y-109190476D02*
X155802380Y-109761904D01*
X155802380Y-109476190D02*
X154802380Y-109476190D01*
X154945238Y-109571428D01*
X155040476Y-109666666D01*
X155088095Y-109761904D01*
X151833333Y-130102380D02*
X151500000Y-129626190D01*
X151261904Y-130102380D02*
X151261904Y-129102380D01*
X151642857Y-129102380D01*
X151738095Y-129150000D01*
X151785714Y-129197619D01*
X151833333Y-129292857D01*
X151833333Y-129435714D01*
X151785714Y-129530952D01*
X151738095Y-129578571D01*
X151642857Y-129626190D01*
X151261904Y-129626190D01*
X152166666Y-129102380D02*
X152785714Y-129102380D01*
X152452380Y-129483333D01*
X152595238Y-129483333D01*
X152690476Y-129530952D01*
X152738095Y-129578571D01*
X152785714Y-129673809D01*
X152785714Y-129911904D01*
X152738095Y-130007142D01*
X152690476Y-130054761D01*
X152595238Y-130102380D01*
X152309523Y-130102380D01*
X152214285Y-130054761D01*
X152166666Y-130007142D01*
X141207142Y-140642857D02*
X141254761Y-140690476D01*
X141302380Y-140833333D01*
X141302380Y-140928571D01*
X141254761Y-141071428D01*
X141159523Y-141166666D01*
X141064285Y-141214285D01*
X140873809Y-141261904D01*
X140730952Y-141261904D01*
X140540476Y-141214285D01*
X140445238Y-141166666D01*
X140350000Y-141071428D01*
X140302380Y-140928571D01*
X140302380Y-140833333D01*
X140350000Y-140690476D01*
X140397619Y-140642857D01*
X141302380Y-139690476D02*
X141302380Y-140261904D01*
X141302380Y-139976190D02*
X140302380Y-139976190D01*
X140445238Y-140071428D01*
X140540476Y-140166666D01*
X140588095Y-140261904D01*
X140302380Y-139357142D02*
X140302380Y-138738095D01*
X140683333Y-139071428D01*
X140683333Y-138928571D01*
X140730952Y-138833333D01*
X140778571Y-138785714D01*
X140873809Y-138738095D01*
X141111904Y-138738095D01*
X141207142Y-138785714D01*
X141254761Y-138833333D01*
X141302380Y-138928571D01*
X141302380Y-139214285D01*
X141254761Y-139309523D01*
X141207142Y-139357142D01*
X133737142Y-144197142D02*
X133689523Y-144244761D01*
X133546666Y-144292380D01*
X133451428Y-144292380D01*
X133308571Y-144244761D01*
X133213333Y-144149523D01*
X133165714Y-144054285D01*
X133118095Y-143863809D01*
X133118095Y-143720952D01*
X133165714Y-143530476D01*
X133213333Y-143435238D01*
X133308571Y-143340000D01*
X133451428Y-143292380D01*
X133546666Y-143292380D01*
X133689523Y-143340000D01*
X133737142Y-143387619D01*
X134689523Y-144292380D02*
X134118095Y-144292380D01*
X134403809Y-144292380D02*
X134403809Y-143292380D01*
X134308571Y-143435238D01*
X134213333Y-143530476D01*
X134118095Y-143578095D01*
X135070476Y-143387619D02*
X135118095Y-143340000D01*
X135213333Y-143292380D01*
X135451428Y-143292380D01*
X135546666Y-143340000D01*
X135594285Y-143387619D01*
X135641904Y-143482857D01*
X135641904Y-143578095D01*
X135594285Y-143720952D01*
X135022857Y-144292380D01*
X135641904Y-144292380D01*
X176707142Y-141742857D02*
X176754761Y-141790476D01*
X176802380Y-141933333D01*
X176802380Y-142028571D01*
X176754761Y-142171428D01*
X176659523Y-142266666D01*
X176564285Y-142314285D01*
X176373809Y-142361904D01*
X176230952Y-142361904D01*
X176040476Y-142314285D01*
X175945238Y-142266666D01*
X175850000Y-142171428D01*
X175802380Y-142028571D01*
X175802380Y-141933333D01*
X175850000Y-141790476D01*
X175897619Y-141742857D01*
X176802380Y-140790476D02*
X176802380Y-141361904D01*
X176802380Y-141076190D02*
X175802380Y-141076190D01*
X175945238Y-141171428D01*
X176040476Y-141266666D01*
X176088095Y-141361904D01*
X176802380Y-139838095D02*
X176802380Y-140409523D01*
X176802380Y-140123809D02*
X175802380Y-140123809D01*
X175945238Y-140219047D01*
X176040476Y-140314285D01*
X176088095Y-140409523D01*
X157833333Y-130272380D02*
X157500000Y-129796190D01*
X157261904Y-130272380D02*
X157261904Y-129272380D01*
X157642857Y-129272380D01*
X157738095Y-129320000D01*
X157785714Y-129367619D01*
X157833333Y-129462857D01*
X157833333Y-129605714D01*
X157785714Y-129700952D01*
X157738095Y-129748571D01*
X157642857Y-129796190D01*
X157261904Y-129796190D01*
X158785714Y-130272380D02*
X158214285Y-130272380D01*
X158500000Y-130272380D02*
X158500000Y-129272380D01*
X158404761Y-129415238D01*
X158309523Y-129510476D01*
X158214285Y-129558095D01*
X169718830Y-116738095D02*
X168718830Y-116738095D01*
X168718830Y-116500000D01*
X168766450Y-116357142D01*
X168861688Y-116261904D01*
X168956926Y-116214285D01*
X169147402Y-116166666D01*
X169290259Y-116166666D01*
X169480735Y-116214285D01*
X169575973Y-116261904D01*
X169671211Y-116357142D01*
X169718830Y-116500000D01*
X169718830Y-116738095D01*
X169718830Y-115214285D02*
X169718830Y-115785714D01*
X169718830Y-115500000D02*
X168718830Y-115500000D01*
X168861688Y-115595238D01*
X168956926Y-115690476D01*
X169004545Y-115785714D01*
X184007142Y-127666666D02*
X184054761Y-127714285D01*
X184102380Y-127857142D01*
X184102380Y-127952380D01*
X184054761Y-128095238D01*
X183959523Y-128190476D01*
X183864285Y-128238095D01*
X183673809Y-128285714D01*
X183530952Y-128285714D01*
X183340476Y-128238095D01*
X183245238Y-128190476D01*
X183150000Y-128095238D01*
X183102380Y-127952380D01*
X183102380Y-127857142D01*
X183150000Y-127714285D01*
X183197619Y-127666666D01*
X183102380Y-127333333D02*
X183102380Y-126666666D01*
X184102380Y-127095238D01*
X157833333Y-134707142D02*
X157785714Y-134754761D01*
X157642857Y-134802380D01*
X157547619Y-134802380D01*
X157404761Y-134754761D01*
X157309523Y-134659523D01*
X157261904Y-134564285D01*
X157214285Y-134373809D01*
X157214285Y-134230952D01*
X157261904Y-134040476D01*
X157309523Y-133945238D01*
X157404761Y-133850000D01*
X157547619Y-133802380D01*
X157642857Y-133802380D01*
X157785714Y-133850000D01*
X157833333Y-133897619D01*
X158690476Y-134135714D02*
X158690476Y-134802380D01*
X158452380Y-133754761D02*
X158214285Y-134469047D01*
X158833333Y-134469047D01*
X145061904Y-148752380D02*
X145061904Y-147752380D01*
X145300000Y-147752380D01*
X145442857Y-147800000D01*
X145538095Y-147895238D01*
X145585714Y-147990476D01*
X145633333Y-148180952D01*
X145633333Y-148323809D01*
X145585714Y-148514285D01*
X145538095Y-148609523D01*
X145442857Y-148704761D01*
X145300000Y-148752380D01*
X145061904Y-148752380D01*
X146014285Y-147847619D02*
X146061904Y-147800000D01*
X146157142Y-147752380D01*
X146395238Y-147752380D01*
X146490476Y-147800000D01*
X146538095Y-147847619D01*
X146585714Y-147942857D01*
X146585714Y-148038095D01*
X146538095Y-148180952D01*
X145966666Y-148752380D01*
X146585714Y-148752380D01*
X126702380Y-144783333D02*
X127416666Y-144783333D01*
X127559523Y-144830952D01*
X127654761Y-144926190D01*
X127702380Y-145069047D01*
X127702380Y-145164285D01*
X126702380Y-144402380D02*
X126702380Y-143783333D01*
X127083333Y-144116666D01*
X127083333Y-143973809D01*
X127130952Y-143878571D01*
X127178571Y-143830952D01*
X127273809Y-143783333D01*
X127511904Y-143783333D01*
X127607142Y-143830952D01*
X127654761Y-143878571D01*
X127702380Y-143973809D01*
X127702380Y-144259523D01*
X127654761Y-144354761D01*
X127607142Y-144402380D01*
X154433333Y-124037142D02*
X154385714Y-124084761D01*
X154242857Y-124132380D01*
X154147619Y-124132380D01*
X154004761Y-124084761D01*
X153909523Y-123989523D01*
X153861904Y-123894285D01*
X153814285Y-123703809D01*
X153814285Y-123560952D01*
X153861904Y-123370476D01*
X153909523Y-123275238D01*
X154004761Y-123180000D01*
X154147619Y-123132380D01*
X154242857Y-123132380D01*
X154385714Y-123180000D01*
X154433333Y-123227619D01*
X154814285Y-123227619D02*
X154861904Y-123180000D01*
X154957142Y-123132380D01*
X155195238Y-123132380D01*
X155290476Y-123180000D01*
X155338095Y-123227619D01*
X155385714Y-123322857D01*
X155385714Y-123418095D01*
X155338095Y-123560952D01*
X154766666Y-124132380D01*
X155385714Y-124132380D01*
D12*
X132764285Y-119800000D02*
X132650000Y-119742857D01*
X132478571Y-119742857D01*
X132307142Y-119800000D01*
X132192857Y-119914285D01*
X132135714Y-120028571D01*
X132078571Y-120257142D01*
X132078571Y-120428571D01*
X132135714Y-120657142D01*
X132192857Y-120771428D01*
X132307142Y-120885714D01*
X132478571Y-120942857D01*
X132592857Y-120942857D01*
X132764285Y-120885714D01*
X132821428Y-120828571D01*
X132821428Y-120428571D01*
X132592857Y-120428571D01*
X133335714Y-120942857D02*
X133335714Y-119742857D01*
X134021428Y-120942857D01*
X134021428Y-119742857D01*
X134592857Y-120942857D02*
X134592857Y-119742857D01*
X134878571Y-119742857D01*
X135050000Y-119800000D01*
X135164285Y-119914285D01*
X135221428Y-120028571D01*
X135278571Y-120257142D01*
X135278571Y-120428571D01*
X135221428Y-120657142D01*
X135164285Y-120771428D01*
X135050000Y-120885714D01*
X134878571Y-120942857D01*
X134592857Y-120942857D01*
X136421428Y-120942857D02*
X135735714Y-120942857D01*
X136078571Y-120942857D02*
X136078571Y-119742857D01*
X135964285Y-119914285D01*
X135850000Y-120028571D01*
X135735714Y-120085714D01*
D11*
X150238095Y-140952380D02*
X150238095Y-141761904D01*
X150285714Y-141857142D01*
X150333333Y-141904761D01*
X150428571Y-141952380D01*
X150619047Y-141952380D01*
X150714285Y-141904761D01*
X150761904Y-141857142D01*
X150809523Y-141761904D01*
X150809523Y-140952380D01*
X151190476Y-140952380D02*
X151809523Y-140952380D01*
X151476190Y-141333333D01*
X151619047Y-141333333D01*
X151714285Y-141380952D01*
X151761904Y-141428571D01*
X151809523Y-141523809D01*
X151809523Y-141761904D01*
X151761904Y-141857142D01*
X151714285Y-141904761D01*
X151619047Y-141952380D01*
X151333333Y-141952380D01*
X151238095Y-141904761D01*
X151190476Y-141857142D01*
X177238095Y-123952380D02*
X177238095Y-124761904D01*
X177285714Y-124857142D01*
X177333333Y-124904761D01*
X177428571Y-124952380D01*
X177619047Y-124952380D01*
X177714285Y-124904761D01*
X177761904Y-124857142D01*
X177809523Y-124761904D01*
X177809523Y-123952380D01*
X178238095Y-124047619D02*
X178285714Y-124000000D01*
X178380952Y-123952380D01*
X178619047Y-123952380D01*
X178714285Y-124000000D01*
X178761904Y-124047619D01*
X178809523Y-124142857D01*
X178809523Y-124238095D01*
X178761904Y-124380952D01*
X178190476Y-124952380D01*
X178809523Y-124952380D01*
X161238095Y-119052380D02*
X161238095Y-119861904D01*
X161285714Y-119957142D01*
X161333333Y-120004761D01*
X161428571Y-120052380D01*
X161619047Y-120052380D01*
X161714285Y-120004761D01*
X161761904Y-119957142D01*
X161809523Y-119861904D01*
X161809523Y-119052380D01*
X162809523Y-120052380D02*
X162238095Y-120052380D01*
X162523809Y-120052380D02*
X162523809Y-119052380D01*
X162428571Y-119195238D01*
X162333333Y-119290476D01*
X162238095Y-119338095D01*
X170772380Y-122666666D02*
X170296190Y-123000000D01*
X170772380Y-123238095D02*
X169772380Y-123238095D01*
X169772380Y-122857142D01*
X169820000Y-122761904D01*
X169867619Y-122714285D01*
X169962857Y-122666666D01*
X170105714Y-122666666D01*
X170200952Y-122714285D01*
X170248571Y-122761904D01*
X170296190Y-122857142D01*
X170296190Y-123238095D01*
X169867619Y-122285714D02*
X169820000Y-122238095D01*
X169772380Y-122142857D01*
X169772380Y-121904761D01*
X169820000Y-121809523D01*
X169867619Y-121761904D01*
X169962857Y-121714285D01*
X170058095Y-121714285D01*
X170200952Y-121761904D01*
X170772380Y-122333333D01*
X170772380Y-121714285D01*
X188207142Y-141166666D02*
X188254761Y-141214285D01*
X188302380Y-141357142D01*
X188302380Y-141452380D01*
X188254761Y-141595238D01*
X188159523Y-141690476D01*
X188064285Y-141738095D01*
X187873809Y-141785714D01*
X187730952Y-141785714D01*
X187540476Y-141738095D01*
X187445238Y-141690476D01*
X187350000Y-141595238D01*
X187302380Y-141452380D01*
X187302380Y-141357142D01*
X187350000Y-141214285D01*
X187397619Y-141166666D01*
X188302380Y-140690476D02*
X188302380Y-140500000D01*
X188254761Y-140404761D01*
X188207142Y-140357142D01*
X188064285Y-140261904D01*
X187873809Y-140214285D01*
X187492857Y-140214285D01*
X187397619Y-140261904D01*
X187350000Y-140309523D01*
X187302380Y-140404761D01*
X187302380Y-140595238D01*
X187350000Y-140690476D01*
X187397619Y-140738095D01*
X187492857Y-140785714D01*
X187730952Y-140785714D01*
X187826190Y-140738095D01*
X187873809Y-140690476D01*
X187921428Y-140595238D01*
X187921428Y-140404761D01*
X187873809Y-140309523D01*
X187826190Y-140261904D01*
X187730952Y-140214285D01*
X110712380Y-125413333D02*
X111426666Y-125413333D01*
X111569523Y-125460952D01*
X111664761Y-125556190D01*
X111712380Y-125699047D01*
X111712380Y-125794285D01*
X110807619Y-124984761D02*
X110760000Y-124937142D01*
X110712380Y-124841904D01*
X110712380Y-124603809D01*
X110760000Y-124508571D01*
X110807619Y-124460952D01*
X110902857Y-124413333D01*
X110998095Y-124413333D01*
X111140952Y-124460952D01*
X111712380Y-125032380D01*
X111712380Y-124413333D01*
D12*
X171800000Y-134928571D02*
X171742857Y-134985714D01*
X171571428Y-135042857D01*
X171457142Y-135042857D01*
X171285714Y-134985714D01*
X171171428Y-134871428D01*
X171114285Y-134757142D01*
X171057142Y-134528571D01*
X171057142Y-134357142D01*
X171114285Y-134128571D01*
X171171428Y-134014285D01*
X171285714Y-133900000D01*
X171457142Y-133842857D01*
X171571428Y-133842857D01*
X171742857Y-133900000D01*
X171800000Y-133957142D01*
X172828571Y-133842857D02*
X172600000Y-133842857D01*
X172485714Y-133900000D01*
X172428571Y-133957142D01*
X172314285Y-134128571D01*
X172257142Y-134357142D01*
X172257142Y-134814285D01*
X172314285Y-134928571D01*
X172371428Y-134985714D01*
X172485714Y-135042857D01*
X172714285Y-135042857D01*
X172828571Y-134985714D01*
X172885714Y-134928571D01*
X172942857Y-134814285D01*
X172942857Y-134528571D01*
X172885714Y-134414285D01*
X172828571Y-134357142D01*
X172714285Y-134300000D01*
X172485714Y-134300000D01*
X172371428Y-134357142D01*
X172314285Y-134414285D01*
X172257142Y-134528571D01*
D11*
X156202380Y-137166666D02*
X155726190Y-137500000D01*
X156202380Y-137738095D02*
X155202380Y-137738095D01*
X155202380Y-137357142D01*
X155250000Y-137261904D01*
X155297619Y-137214285D01*
X155392857Y-137166666D01*
X155535714Y-137166666D01*
X155630952Y-137214285D01*
X155678571Y-137261904D01*
X155726190Y-137357142D01*
X155726190Y-137738095D01*
X155535714Y-136309523D02*
X156202380Y-136309523D01*
X155154761Y-136547619D02*
X155869047Y-136785714D01*
X155869047Y-136166666D01*
D12*
X121200000Y-118392857D02*
X121114285Y-118478571D01*
X120857142Y-118564285D01*
X120685714Y-118564285D01*
X120428571Y-118478571D01*
X120257142Y-118307142D01*
X120171428Y-118135714D01*
X120085714Y-117792857D01*
X120085714Y-117535714D01*
X120171428Y-117192857D01*
X120257142Y-117021428D01*
X120428571Y-116850000D01*
X120685714Y-116764285D01*
X120857142Y-116764285D01*
X121114285Y-116850000D01*
X121200000Y-116935714D01*
X122914285Y-118564285D02*
X121885714Y-118564285D01*
X122400000Y-118564285D02*
X122400000Y-116764285D01*
X122228571Y-117021428D01*
X122057142Y-117192857D01*
X121885714Y-117278571D01*
D11*
X194238095Y-141252380D02*
X194238095Y-140252380D01*
X194238095Y-140728571D02*
X194809523Y-140728571D01*
X194809523Y-141252380D02*
X194809523Y-140252380D01*
X195238095Y-140347619D02*
X195285714Y-140300000D01*
X195380952Y-140252380D01*
X195619047Y-140252380D01*
X195714285Y-140300000D01*
X195761904Y-140347619D01*
X195809523Y-140442857D01*
X195809523Y-140538095D01*
X195761904Y-140680952D01*
X195190476Y-141252380D01*
X195809523Y-141252380D01*
D12*
X162050000Y-128678571D02*
X161992857Y-128735714D01*
X161821428Y-128792857D01*
X161707142Y-128792857D01*
X161535714Y-128735714D01*
X161421428Y-128621428D01*
X161364285Y-128507142D01*
X161307142Y-128278571D01*
X161307142Y-128107142D01*
X161364285Y-127878571D01*
X161421428Y-127764285D01*
X161535714Y-127650000D01*
X161707142Y-127592857D01*
X161821428Y-127592857D01*
X161992857Y-127650000D01*
X162050000Y-127707142D01*
X163135714Y-127592857D02*
X162564285Y-127592857D01*
X162507142Y-128164285D01*
X162564285Y-128107142D01*
X162678571Y-128050000D01*
X162964285Y-128050000D01*
X163078571Y-128107142D01*
X163135714Y-128164285D01*
X163192857Y-128278571D01*
X163192857Y-128564285D01*
X163135714Y-128678571D01*
X163078571Y-128735714D01*
X162964285Y-128792857D01*
X162678571Y-128792857D01*
X162564285Y-128735714D01*
X162507142Y-128678571D01*
D11*
X182107142Y-141742857D02*
X182154761Y-141790476D01*
X182202380Y-141933333D01*
X182202380Y-142028571D01*
X182154761Y-142171428D01*
X182059523Y-142266666D01*
X181964285Y-142314285D01*
X181773809Y-142361904D01*
X181630952Y-142361904D01*
X181440476Y-142314285D01*
X181345238Y-142266666D01*
X181250000Y-142171428D01*
X181202380Y-142028571D01*
X181202380Y-141933333D01*
X181250000Y-141790476D01*
X181297619Y-141742857D01*
X182202380Y-140790476D02*
X182202380Y-141361904D01*
X182202380Y-141076190D02*
X181202380Y-141076190D01*
X181345238Y-141171428D01*
X181440476Y-141266666D01*
X181488095Y-141361904D01*
X181202380Y-140171428D02*
X181202380Y-140076190D01*
X181250000Y-139980952D01*
X181297619Y-139933333D01*
X181392857Y-139885714D01*
X181583333Y-139838095D01*
X181821428Y-139838095D01*
X182011904Y-139885714D01*
X182107142Y-139933333D01*
X182154761Y-139980952D01*
X182202380Y-140076190D01*
X182202380Y-140171428D01*
X182154761Y-140266666D01*
X182107142Y-140314285D01*
X182011904Y-140361904D01*
X181821428Y-140409523D01*
X181583333Y-140409523D01*
X181392857Y-140361904D01*
X181297619Y-140314285D01*
X181250000Y-140266666D01*
X181202380Y-140171428D01*
X104238095Y-101252380D02*
X104238095Y-100252380D01*
X104238095Y-100728571D02*
X104809523Y-100728571D01*
X104809523Y-101252380D02*
X104809523Y-100252380D01*
X105809523Y-101252380D02*
X105238095Y-101252380D01*
X105523809Y-101252380D02*
X105523809Y-100252380D01*
X105428571Y-100395238D01*
X105333333Y-100490476D01*
X105238095Y-100538095D01*
X145207142Y-140642857D02*
X145254761Y-140690476D01*
X145302380Y-140833333D01*
X145302380Y-140928571D01*
X145254761Y-141071428D01*
X145159523Y-141166666D01*
X145064285Y-141214285D01*
X144873809Y-141261904D01*
X144730952Y-141261904D01*
X144540476Y-141214285D01*
X144445238Y-141166666D01*
X144350000Y-141071428D01*
X144302380Y-140928571D01*
X144302380Y-140833333D01*
X144350000Y-140690476D01*
X144397619Y-140642857D01*
X145302380Y-139690476D02*
X145302380Y-140261904D01*
X145302380Y-139976190D02*
X144302380Y-139976190D01*
X144445238Y-140071428D01*
X144540476Y-140166666D01*
X144588095Y-140261904D01*
X144635714Y-138833333D02*
X145302380Y-138833333D01*
X144254761Y-139071428D02*
X144969047Y-139309523D01*
X144969047Y-138690476D01*
X145047619Y-107833333D02*
X145047619Y-107357142D01*
X146047619Y-107357142D01*
X145047619Y-108690476D02*
X145047619Y-108119047D01*
X145047619Y-108404761D02*
X146047619Y-108404761D01*
X145904761Y-108309523D01*
X145809523Y-108214285D01*
X145761904Y-108119047D01*
D12*
X182400000Y-108402701D02*
X182342857Y-108459844D01*
X182171428Y-108516987D01*
X182057142Y-108516987D01*
X181885714Y-108459844D01*
X181771428Y-108345558D01*
X181714285Y-108231272D01*
X181657142Y-108002701D01*
X181657142Y-107831272D01*
X181714285Y-107602701D01*
X181771428Y-107488415D01*
X181885714Y-107374130D01*
X182057142Y-107316987D01*
X182171428Y-107316987D01*
X182342857Y-107374130D01*
X182400000Y-107431272D01*
X182800000Y-107316987D02*
X183542857Y-107316987D01*
X183142857Y-107774130D01*
X183314285Y-107774130D01*
X183428571Y-107831272D01*
X183485714Y-107888415D01*
X183542857Y-108002701D01*
X183542857Y-108288415D01*
X183485714Y-108402701D01*
X183428571Y-108459844D01*
X183314285Y-108516987D01*
X182971428Y-108516987D01*
X182857142Y-108459844D01*
X182800000Y-108402701D01*
D11*
X104238095Y-141252380D02*
X104238095Y-140252380D01*
X104238095Y-140728571D02*
X104809523Y-140728571D01*
X104809523Y-141252380D02*
X104809523Y-140252380D01*
X105190476Y-140252380D02*
X105809523Y-140252380D01*
X105476190Y-140633333D01*
X105619047Y-140633333D01*
X105714285Y-140680952D01*
X105761904Y-140728571D01*
X105809523Y-140823809D01*
X105809523Y-141061904D01*
X105761904Y-141157142D01*
X105714285Y-141204761D01*
X105619047Y-141252380D01*
X105333333Y-141252380D01*
X105238095Y-141204761D01*
X105190476Y-141157142D01*
D13*
X154635000Y-144476248D02*
X154635000Y-144998752D01*
X153165000Y-144476248D02*
X153165000Y-144998752D01*
X163272936Y-135735000D02*
X163727064Y-135735000D01*
X163272936Y-134265000D02*
X163727064Y-134265000D01*
D12*
X159700000Y-148800000D02*
X170500000Y-148800000D01*
X170500000Y-148800000D02*
X170500000Y-138200000D01*
X170500000Y-138200000D02*
X159700000Y-138200000D01*
X159700000Y-138200000D02*
X159700000Y-148800000D01*
D13*
X167200000Y-112950000D02*
X165390000Y-112950000D01*
X158610000Y-112950000D02*
X158610000Y-118075000D01*
X165390000Y-112950000D02*
X165390000Y-114050000D01*
X156800000Y-111450000D02*
X156800000Y-112950000D01*
X156800000Y-112950000D02*
X158610000Y-112950000D01*
X167200000Y-111450000D02*
X167200000Y-112950000D01*
X152227064Y-128735000D02*
X151772936Y-128735000D01*
X152227064Y-127265000D02*
X151772936Y-127265000D01*
X138090000Y-139288748D02*
X138090000Y-140711252D01*
X139910000Y-139288748D02*
X139910000Y-140711252D01*
X135910000Y-139288748D02*
X135910000Y-140711252D01*
X134090000Y-139288748D02*
X134090000Y-140711252D01*
X175510000Y-138465000D02*
X172490000Y-138465000D01*
X175510000Y-142850000D02*
X175510000Y-138465000D01*
X172490000Y-138465000D02*
X172490000Y-142850000D01*
X158727064Y-127090000D02*
X157272936Y-127090000D01*
X158727064Y-128910000D02*
X157272936Y-128910000D01*
X170116450Y-119550000D02*
X174416450Y-119550000D01*
X174416450Y-119550000D02*
X174416450Y-113850000D01*
X170116450Y-119550000D02*
X170116450Y-113850000D01*
X187510000Y-130135000D02*
X187510000Y-125750000D01*
X184490000Y-125750000D02*
X184490000Y-130135000D01*
X184490000Y-130135000D02*
X187510000Y-130135000D01*
X158711252Y-131590000D02*
X157288748Y-131590000D01*
X158711252Y-133410000D02*
X157288748Y-133410000D01*
X150200000Y-144150000D02*
X143300000Y-144150000D01*
X150200000Y-147450000D02*
X150200000Y-144150000D01*
X150200000Y-147450000D02*
X143300000Y-147450000D01*
X126100000Y-149800000D02*
X116900000Y-149800000D01*
X117750000Y-134900000D02*
X116700000Y-134900000D01*
X116900000Y-149800000D02*
X116900000Y-135100000D01*
X116700000Y-135950000D02*
X116700000Y-134900000D01*
X126100000Y-135100000D02*
X126100000Y-137000000D01*
X126100000Y-141000000D02*
X126100000Y-149800000D01*
X116900000Y-135100000D02*
X119500000Y-135100000D01*
X123400000Y-135100000D02*
X126100000Y-135100000D01*
X154861252Y-122735000D02*
X154338748Y-122735000D01*
X154861252Y-121265000D02*
X154338748Y-121265000D01*
X136250000Y-117000000D02*
G75*
G03*
X136250000Y-117000000I-2250000J0D01*
G01*
D11*
X153075000Y-135425000D02*
X153075000Y-135570000D01*
X148925000Y-140575000D02*
X148925000Y-140430000D01*
X153075000Y-140575000D02*
X148925000Y-140575000D01*
X153075000Y-140575000D02*
X153075000Y-140525000D01*
X153075000Y-135425000D02*
X148925000Y-135425000D01*
X153075000Y-140525000D02*
X154475000Y-140525000D01*
X148925000Y-135425000D02*
X148925000Y-135570000D01*
D13*
X179910000Y-132410000D02*
X179910000Y-131150000D01*
X176150000Y-132410000D02*
X179910000Y-132410000D01*
X173900000Y-125590000D02*
X179910000Y-125590000D01*
X179910000Y-125590000D02*
X179910000Y-126850000D01*
X162000000Y-125560000D02*
X160050000Y-125560000D01*
X162000000Y-125560000D02*
X163950000Y-125560000D01*
X162000000Y-120440000D02*
X163950000Y-120440000D01*
X162000000Y-120440000D02*
X158550000Y-120440000D01*
X167590000Y-121772936D02*
X167590000Y-123227064D01*
X169410000Y-121772936D02*
X169410000Y-123227064D01*
X187010000Y-142750000D02*
X187010000Y-138365000D01*
X183990000Y-138365000D02*
X183990000Y-142750000D01*
X187010000Y-138365000D02*
X183990000Y-138365000D01*
X110261000Y-132760000D02*
X100340000Y-132760000D01*
X100100000Y-117160000D02*
X100100000Y-117660000D01*
X103977000Y-128933000D02*
X103931000Y-128886000D01*
X106275000Y-126150000D02*
X106239000Y-126115000D01*
X106069000Y-126355000D02*
X106023000Y-126308000D01*
X100840000Y-117160000D02*
X100100000Y-117160000D01*
X100340000Y-117400000D02*
X100340000Y-132760000D01*
X103761000Y-124046000D02*
X103726000Y-124011000D01*
X102400000Y-117400000D02*
X102400000Y-132760000D01*
X103977000Y-123853000D02*
X103931000Y-123806000D01*
X106275000Y-131230000D02*
X106239000Y-131195000D01*
X106069000Y-131435000D02*
X106023000Y-131388000D01*
X100900000Y-117400000D02*
X100900000Y-132760000D01*
X110261000Y-117400000D02*
X110261000Y-132760000D01*
X110261000Y-117400000D02*
X100340000Y-117400000D01*
X107301000Y-117400000D02*
X107301000Y-132760000D01*
X103761000Y-129126000D02*
X103726000Y-129091000D01*
X105684000Y-118465000D02*
G75*
G03*
X104316958Y-118464573I-684001J-1534993D01*
G01*
X106535000Y-120684000D02*
G75*
G03*
X106535427Y-119316958I-1534993J684001D01*
G01*
X103320000Y-120000000D02*
G75*
G03*
X103465244Y-120683318I1679992J-1D01*
G01*
X104316000Y-121535000D02*
G75*
G03*
X105683042Y-121535427I684001J1534993D01*
G01*
X103465000Y-119316000D02*
G75*
G03*
X103319747Y-120028805I1535001J-683999D01*
G01*
X106680000Y-125080000D02*
G75*
G03*
X106680000Y-125080000I-1680000J0D01*
G01*
X106680000Y-130160000D02*
G75*
G03*
X106680000Y-130160000I-1680000J0D01*
G01*
X175238748Y-133765000D02*
X175761252Y-133765000D01*
X175238748Y-135235000D02*
X175761252Y-135235000D01*
X199705000Y-121340000D02*
X199705000Y-120840000D01*
X199465000Y-121100000D02*
X199465000Y-110820000D01*
X197405000Y-121100000D02*
X197405000Y-110820000D01*
X189544000Y-121100000D02*
X189544000Y-110820000D01*
X198905000Y-121100000D02*
X198905000Y-110820000D01*
X195828000Y-114647000D02*
X195874000Y-114694000D01*
X192504000Y-121100000D02*
X192504000Y-110820000D01*
X196044000Y-114454000D02*
X196079000Y-114489000D01*
X193736000Y-112145000D02*
X193782000Y-112192000D01*
X189544000Y-110820000D02*
X199465000Y-110820000D01*
X193530000Y-112350000D02*
X193566000Y-112385000D01*
X198965000Y-121340000D02*
X199705000Y-121340000D01*
X189544000Y-121100000D02*
X199465000Y-121100000D01*
X193270000Y-117816000D02*
G75*
G03*
X193269573Y-119183042I1534993J-684001D01*
G01*
X196340000Y-119184000D02*
G75*
G03*
X196485253Y-118471195I-1535001J683999D01*
G01*
X194121000Y-120035000D02*
G75*
G03*
X195488042Y-120035427I684001J1534993D01*
G01*
X196485000Y-118500000D02*
G75*
G03*
X196339756Y-117816682I-1679992J1D01*
G01*
X195489000Y-116965000D02*
G75*
G03*
X194121958Y-116964573I-684001J-1534993D01*
G01*
X196485000Y-113420000D02*
G75*
G03*
X196485000Y-113420000I-1680000J0D01*
G01*
X158135000Y-137227064D02*
X158135000Y-136772936D01*
X156665000Y-137227064D02*
X156665000Y-136772936D01*
X120259000Y-113541000D02*
X117420000Y-113541000D01*
X125962000Y-112941000D02*
X122741000Y-112941000D01*
X120259000Y-113181000D02*
X117177000Y-113181000D01*
X126190000Y-112461000D02*
X122741000Y-112461000D01*
X126045000Y-112781000D02*
X122741000Y-112781000D01*
X126558000Y-110980000D02*
X116442000Y-110980000D01*
X125666000Y-113421000D02*
X122741000Y-113421000D01*
X125140000Y-114061000D02*
X122741000Y-114061000D01*
X126238000Y-112341000D02*
X122741000Y-112341000D01*
X126578000Y-110660000D02*
X116422000Y-110660000D01*
X126577000Y-110700000D02*
X116423000Y-110700000D01*
X125747000Y-113301000D02*
X122741000Y-113301000D01*
X122730000Y-115461000D02*
X120270000Y-115461000D01*
X126504000Y-111381000D02*
X116496000Y-111381000D01*
X125721000Y-113341000D02*
X122741000Y-113341000D01*
X120259000Y-112581000D02*
X116861000Y-112581000D01*
X125179000Y-114021000D02*
X122741000Y-114021000D01*
X126570000Y-110820000D02*
X116430000Y-110820000D01*
X120259000Y-112821000D02*
X116975000Y-112821000D01*
X120259000Y-113501000D02*
X117390000Y-113501000D01*
X120259000Y-112901000D02*
X117017000Y-112901000D01*
X120259000Y-111941000D02*
X116626000Y-111941000D01*
X126157000Y-112541000D02*
X122741000Y-112541000D01*
X124754000Y-114421000D02*
X118246000Y-114421000D01*
X120259000Y-113661000D02*
X117511000Y-113661000D01*
X120259000Y-113941000D02*
X117747000Y-113941000D01*
X120259000Y-113141000D02*
X117153000Y-113141000D01*
X125940000Y-112981000D02*
X122741000Y-112981000D01*
X124847000Y-114341000D02*
X118153000Y-114341000D01*
X126550000Y-111060000D02*
X116450000Y-111060000D01*
X126268000Y-112261000D02*
X122741000Y-112261000D01*
X122878000Y-115421000D02*
X120122000Y-115421000D01*
X125425000Y-113741000D02*
X122741000Y-113741000D01*
X125550000Y-113581000D02*
X122741000Y-113581000D01*
X120259000Y-113981000D02*
X117784000Y-113981000D01*
X120259000Y-113461000D02*
X117362000Y-113461000D01*
X125489000Y-113661000D02*
X122741000Y-113661000D01*
X126530000Y-111221000D02*
X116470000Y-111221000D01*
X120259000Y-112221000D02*
X116717000Y-112221000D01*
X124801000Y-114381000D02*
X118199000Y-114381000D01*
X126311000Y-112141000D02*
X122741000Y-112141000D01*
X126350000Y-112021000D02*
X122741000Y-112021000D01*
X126004000Y-112861000D02*
X122741000Y-112861000D01*
X125983000Y-112901000D02*
X122741000Y-112901000D01*
X126064000Y-112741000D02*
X122741000Y-112741000D01*
X123709000Y-115101000D02*
X119291000Y-115101000D01*
X122099000Y-115581000D02*
X120901000Y-115581000D01*
X125847000Y-113141000D02*
X122741000Y-113141000D01*
X120259000Y-112141000D02*
X116689000Y-112141000D01*
X120259000Y-112621000D02*
X116879000Y-112621000D01*
X124270000Y-114781000D02*
X118730000Y-114781000D01*
X124875000Y-105520354D02*
X123875000Y-105520354D01*
X120259000Y-112341000D02*
X116762000Y-112341000D01*
X126573000Y-110780000D02*
X116427000Y-110780000D01*
X126025000Y-112821000D02*
X122741000Y-112821000D01*
X120259000Y-113101000D02*
X117129000Y-113101000D01*
X124330000Y-114741000D02*
X118670000Y-114741000D01*
X126465000Y-111581000D02*
X116535000Y-111581000D01*
X126297000Y-112181000D02*
X122741000Y-112181000D01*
X120259000Y-114181000D02*
X117980000Y-114181000D01*
X126407000Y-111821000D02*
X122741000Y-111821000D01*
X120259000Y-114061000D02*
X117860000Y-114061000D01*
X126482000Y-111501000D02*
X116518000Y-111501000D01*
X123444000Y-115221000D02*
X119556000Y-115221000D01*
X126337000Y-112061000D02*
X122741000Y-112061000D01*
X126575000Y-110740000D02*
X116425000Y-110740000D01*
X126456000Y-111621000D02*
X116544000Y-111621000D01*
X120259000Y-113781000D02*
X117608000Y-113781000D01*
X120259000Y-112861000D02*
X116996000Y-112861000D01*
X124554000Y-114581000D02*
X118446000Y-114581000D01*
X120259000Y-113261000D02*
X117227000Y-113261000D01*
X125520000Y-113621000D02*
X122741000Y-113621000D01*
X126121000Y-112621000D02*
X122741000Y-112621000D01*
X120259000Y-112981000D02*
X117060000Y-112981000D01*
X126362000Y-111981000D02*
X122741000Y-111981000D01*
X123537000Y-115181000D02*
X119463000Y-115181000D01*
X125823000Y-113181000D02*
X122741000Y-113181000D01*
X120259000Y-112781000D02*
X116955000Y-112781000D01*
X120259000Y-111981000D02*
X116638000Y-111981000D01*
X126374000Y-111941000D02*
X122741000Y-111941000D01*
X120259000Y-111781000D02*
X116582000Y-111781000D01*
X126518000Y-111301000D02*
X116482000Y-111301000D01*
X124606000Y-114541000D02*
X118394000Y-114541000D01*
X120259000Y-114141000D02*
X117939000Y-114141000D01*
X120259000Y-113701000D02*
X117543000Y-113701000D01*
X125020000Y-114181000D02*
X122741000Y-114181000D01*
X120259000Y-113381000D02*
X117306000Y-113381000D01*
X126580000Y-110540000D02*
X116420000Y-110540000D01*
X124892000Y-114301000D02*
X118108000Y-114301000D01*
X120259000Y-113741000D02*
X117575000Y-113741000D01*
X126324000Y-112101000D02*
X122741000Y-112101000D01*
X126438000Y-111701000D02*
X116562000Y-111701000D01*
X125061000Y-114141000D02*
X122741000Y-114141000D01*
X126524000Y-111261000D02*
X116476000Y-111261000D01*
X120259000Y-113221000D02*
X117202000Y-113221000D01*
X126562000Y-110940000D02*
X116438000Y-110940000D01*
X125324000Y-113861000D02*
X122741000Y-113861000D01*
X123010000Y-115381000D02*
X119990000Y-115381000D01*
X120259000Y-112061000D02*
X116663000Y-112061000D01*
X126385000Y-111901000D02*
X122741000Y-111901000D01*
X120259000Y-112941000D02*
X117038000Y-112941000D01*
X124010000Y-114941000D02*
X118990000Y-114941000D01*
X120259000Y-112261000D02*
X116732000Y-112261000D01*
X126540000Y-111140000D02*
X116460000Y-111140000D01*
X123625000Y-115141000D02*
X119375000Y-115141000D01*
X122362000Y-115541000D02*
X120638000Y-115541000D01*
X123865000Y-115021000D02*
X119135000Y-115021000D01*
X120259000Y-112021000D02*
X116650000Y-112021000D01*
X124145000Y-114861000D02*
X118855000Y-114861000D01*
X124936000Y-114261000D02*
X118064000Y-114261000D01*
X120259000Y-112541000D02*
X116843000Y-112541000D01*
X123242000Y-115301000D02*
X119758000Y-115301000D01*
X126579000Y-110620000D02*
X116421000Y-110620000D01*
X123939000Y-114981000D02*
X119061000Y-114981000D01*
X120259000Y-113861000D02*
X117676000Y-113861000D01*
X125694000Y-113381000D02*
X122741000Y-113381000D01*
X124706000Y-114461000D02*
X118294000Y-114461000D01*
X124375000Y-105020354D02*
X124375000Y-106020354D01*
X126535000Y-111180000D02*
X116465000Y-111180000D01*
X125798000Y-113221000D02*
X122741000Y-113221000D01*
X120259000Y-112301000D02*
X116746000Y-112301000D01*
X124389000Y-114701000D02*
X118611000Y-114701000D01*
X120259000Y-113821000D02*
X117642000Y-113821000D01*
X125871000Y-113101000D02*
X122741000Y-113101000D01*
X120259000Y-114101000D02*
X117899000Y-114101000D01*
X125895000Y-113061000D02*
X122741000Y-113061000D01*
X120259000Y-113341000D02*
X117279000Y-113341000D01*
X123346000Y-115261000D02*
X119654000Y-115261000D01*
X126254000Y-112301000D02*
X122741000Y-112301000D01*
X126568000Y-110860000D02*
X116432000Y-110860000D01*
X126447000Y-111661000D02*
X116553000Y-111661000D01*
X120259000Y-112741000D02*
X116936000Y-112741000D01*
X124209000Y-114821000D02*
X118791000Y-114821000D01*
X120259000Y-113901000D02*
X117711000Y-113901000D01*
X124978000Y-114221000D02*
X122741000Y-114221000D01*
X126103000Y-112661000D02*
X122741000Y-112661000D01*
X126139000Y-112581000D02*
X122741000Y-112581000D01*
X120259000Y-113061000D02*
X117105000Y-113061000D01*
X123130000Y-115341000D02*
X119870000Y-115341000D01*
X120259000Y-114021000D02*
X117821000Y-114021000D01*
X120259000Y-112421000D02*
X116793000Y-112421000D01*
X124079000Y-114901000D02*
X118921000Y-114901000D01*
X126174000Y-112501000D02*
X122741000Y-112501000D01*
X120259000Y-113301000D02*
X117253000Y-113301000D01*
X120259000Y-113621000D02*
X117480000Y-113621000D01*
X123789000Y-115061000D02*
X119211000Y-115061000D01*
X126418000Y-111781000D02*
X122741000Y-111781000D01*
X126497000Y-111421000D02*
X116503000Y-111421000D01*
X125392000Y-113781000D02*
X122741000Y-113781000D01*
X120259000Y-112661000D02*
X116897000Y-112661000D01*
X126511000Y-111341000D02*
X116489000Y-111341000D01*
X125358000Y-113821000D02*
X122741000Y-113821000D01*
X120259000Y-112501000D02*
X116826000Y-112501000D01*
X125101000Y-114101000D02*
X122741000Y-114101000D01*
X120259000Y-112701000D02*
X116916000Y-112701000D01*
X120259000Y-113581000D02*
X117450000Y-113581000D01*
X120259000Y-111821000D02*
X116593000Y-111821000D01*
X124656000Y-114501000D02*
X118344000Y-114501000D01*
X125638000Y-113461000D02*
X122741000Y-113461000D01*
X126397000Y-111861000D02*
X122741000Y-111861000D01*
X126084000Y-112701000D02*
X122741000Y-112701000D01*
X126554000Y-111020000D02*
X116446000Y-111020000D01*
X120259000Y-112101000D02*
X116676000Y-112101000D01*
X126490000Y-111461000D02*
X116510000Y-111461000D01*
X125253000Y-113941000D02*
X122741000Y-113941000D01*
X126565000Y-110900000D02*
X116435000Y-110900000D01*
X120259000Y-112461000D02*
X116810000Y-112461000D01*
X125917000Y-113021000D02*
X122741000Y-113021000D01*
X125773000Y-113261000D02*
X122741000Y-113261000D01*
X120259000Y-113421000D02*
X117334000Y-113421000D01*
X125216000Y-113981000D02*
X122741000Y-113981000D01*
X124445000Y-114661000D02*
X118555000Y-114661000D01*
X126428000Y-111741000D02*
X116572000Y-111741000D01*
X120259000Y-114221000D02*
X118022000Y-114221000D01*
X120259000Y-111901000D02*
X116615000Y-111901000D01*
X126580000Y-110500000D02*
X116420000Y-110500000D01*
X126580000Y-110580000D02*
X116420000Y-110580000D01*
X126223000Y-112381000D02*
X122741000Y-112381000D01*
X126474000Y-111541000D02*
X116526000Y-111541000D01*
X125289000Y-113901000D02*
X122741000Y-113901000D01*
X126545000Y-111100000D02*
X116455000Y-111100000D01*
X120259000Y-111861000D02*
X116603000Y-111861000D01*
X122562000Y-115501000D02*
X120438000Y-115501000D01*
X125610000Y-113501000D02*
X122741000Y-113501000D01*
X126207000Y-112421000D02*
X122741000Y-112421000D01*
X120259000Y-113021000D02*
X117083000Y-113021000D01*
X126283000Y-112221000D02*
X122741000Y-112221000D01*
X125580000Y-113541000D02*
X122741000Y-113541000D01*
X125457000Y-113701000D02*
X122741000Y-113701000D01*
X120259000Y-112181000D02*
X116703000Y-112181000D01*
X124500000Y-114621000D02*
X118500000Y-114621000D01*
X120259000Y-112381000D02*
X116777000Y-112381000D01*
X126620000Y-110500000D02*
G75*
G03*
X126620000Y-110500000I-5120000J0D01*
G01*
X165238748Y-128985000D02*
X165761252Y-128985000D01*
X165238748Y-127515000D02*
X165761252Y-127515000D01*
X199465000Y-138696000D02*
X199465000Y-123336000D01*
X193736000Y-124661000D02*
X193782000Y-124708000D01*
X195828000Y-132243000D02*
X195874000Y-132290000D01*
X197405000Y-138696000D02*
X197405000Y-123336000D01*
X196044000Y-132050000D02*
X196079000Y-132085000D01*
X189544000Y-123336000D02*
X199465000Y-123336000D01*
X189544000Y-138696000D02*
X189544000Y-123336000D01*
X199705000Y-138936000D02*
X199705000Y-138436000D01*
X193530000Y-124866000D02*
X193566000Y-124901000D01*
X193530000Y-129946000D02*
X193566000Y-129981000D01*
X196044000Y-126970000D02*
X196079000Y-127005000D01*
X192504000Y-138696000D02*
X192504000Y-123336000D01*
X195828000Y-127163000D02*
X195874000Y-127210000D01*
X193736000Y-129741000D02*
X193782000Y-129788000D01*
X198905000Y-138696000D02*
X198905000Y-123336000D01*
X198965000Y-138936000D02*
X199705000Y-138936000D01*
X189544000Y-138696000D02*
X199465000Y-138696000D01*
X193270000Y-135412000D02*
G75*
G03*
X193269573Y-136779042I1534993J-684001D01*
G01*
X196485000Y-136096000D02*
G75*
G03*
X196339756Y-135412682I-1679992J1D01*
G01*
X194121000Y-137631000D02*
G75*
G03*
X195488042Y-137631427I684001J1534993D01*
G01*
X195489000Y-134561000D02*
G75*
G03*
X194121958Y-134560573I-684001J-1534993D01*
G01*
X196340000Y-136780000D02*
G75*
G03*
X196485253Y-136067195I-1535001J683999D01*
G01*
X196485000Y-125936000D02*
G75*
G03*
X196485000Y-125936000I-1680000J0D01*
G01*
X196485000Y-131016000D02*
G75*
G03*
X196485000Y-131016000I-1680000J0D01*
G01*
X180910000Y-138465000D02*
X177890000Y-138465000D01*
X180910000Y-142850000D02*
X180910000Y-138465000D01*
X177890000Y-138465000D02*
X177890000Y-142850000D01*
X143910000Y-139288748D02*
X143910000Y-140711252D01*
X142090000Y-139288748D02*
X142090000Y-140711252D01*
D12*
X138700000Y-114300000D02*
X151300000Y-114300000D01*
X151300000Y-114300000D02*
X151300000Y-101700000D01*
X151300000Y-101700000D02*
X138700000Y-101700000D01*
X138700000Y-101700000D02*
X138700000Y-114300000D01*
X150512311Y-112100000D02*
G75*
G03*
X150512311Y-112100000I-412311J0D01*
G01*
D13*
X179921000Y-111540807D02*
X185079000Y-111540807D01*
X181122000Y-111020807D02*
X183878000Y-111020807D01*
X177615000Y-114540807D02*
X181259000Y-114540807D01*
X183741000Y-114420807D02*
X187350000Y-114420807D01*
X183741000Y-114380807D02*
X187337000Y-114380807D01*
X183741000Y-112420807D02*
X186179000Y-112420807D01*
X183741000Y-114300807D02*
X187311000Y-114300807D01*
X183741000Y-112620807D02*
X186358000Y-112620807D01*
X178575000Y-112700807D02*
X181259000Y-112700807D01*
X183741000Y-113900807D02*
X187157000Y-113900807D01*
X177843000Y-113900807D02*
X181259000Y-113900807D01*
X179153000Y-112100807D02*
X185847000Y-112100807D01*
X180870000Y-111100807D02*
X184130000Y-111100807D01*
X183741000Y-112860807D02*
X186550000Y-112860807D01*
X179246000Y-112020807D02*
X185754000Y-112020807D01*
X183741000Y-114620807D02*
X187407000Y-114620807D01*
X180211000Y-111380807D02*
X184789000Y-111380807D01*
X177689000Y-114300807D02*
X181259000Y-114300807D01*
X183741000Y-114260807D02*
X187297000Y-114260807D01*
X177450000Y-115381807D02*
X187550000Y-115381807D01*
X183741000Y-112780807D02*
X186489000Y-112780807D01*
X181438000Y-110940807D02*
X183562000Y-110940807D01*
X179670000Y-111700807D02*
X185330000Y-111700807D01*
X179199000Y-112060807D02*
X185801000Y-112060807D01*
X183741000Y-114660807D02*
X187418000Y-114660807D01*
X183741000Y-114460807D02*
X187362000Y-114460807D01*
X178608000Y-112660807D02*
X181259000Y-112660807D01*
X178306000Y-113060807D02*
X181259000Y-113060807D01*
X183741000Y-112660807D02*
X186392000Y-112660807D01*
X180135000Y-111420807D02*
X184865000Y-111420807D01*
X181901000Y-110860807D02*
X183099000Y-110860807D01*
X183741000Y-114060807D02*
X187223000Y-114060807D01*
X177446000Y-115421807D02*
X187554000Y-115421807D01*
X180556000Y-111220807D02*
X184444000Y-111220807D01*
X183741000Y-113020807D02*
X186666000Y-113020807D01*
X177420000Y-115901807D02*
X187580000Y-115901807D01*
X177455000Y-115341807D02*
X187545000Y-115341807D01*
X183741000Y-113100807D02*
X186721000Y-113100807D01*
X179125000Y-120921453D02*
X180125000Y-120921453D01*
X179730000Y-111660807D02*
X185270000Y-111660807D01*
X177996000Y-113580807D02*
X181259000Y-113580807D01*
X177442000Y-115461807D02*
X187558000Y-115461807D01*
X178017000Y-113540807D02*
X181259000Y-113540807D01*
X178177000Y-113260807D02*
X181259000Y-113260807D01*
X177897000Y-113780807D02*
X181259000Y-113780807D01*
X178511000Y-112780807D02*
X181259000Y-112780807D01*
X177975000Y-113620807D02*
X181259000Y-113620807D01*
X178711000Y-112540807D02*
X181259000Y-112540807D01*
X183741000Y-113460807D02*
X186940000Y-113460807D01*
X177777000Y-114060807D02*
X181259000Y-114060807D01*
X183741000Y-114580807D02*
X187397000Y-114580807D01*
X183741000Y-114140807D02*
X187254000Y-114140807D01*
X183741000Y-113740807D02*
X187084000Y-113740807D01*
X183741000Y-113220807D02*
X186798000Y-113220807D01*
X178450000Y-112860807D02*
X181259000Y-112860807D01*
X177427000Y-115661807D02*
X187573000Y-115661807D01*
X183741000Y-112940807D02*
X186610000Y-112940807D01*
X177432000Y-115581807D02*
X187568000Y-115581807D01*
X183741000Y-113620807D02*
X187025000Y-113620807D01*
X181638000Y-110900807D02*
X183362000Y-110900807D01*
X183741000Y-114100807D02*
X187238000Y-114100807D01*
X178202000Y-113220807D02*
X181259000Y-113220807D01*
X177420000Y-115941807D02*
X187580000Y-115941807D01*
X177861000Y-113860807D02*
X181259000Y-113860807D01*
X178543000Y-112740807D02*
X181259000Y-112740807D01*
X177562000Y-114740807D02*
X187438000Y-114740807D01*
X183741000Y-113260807D02*
X186823000Y-113260807D01*
X183741000Y-112460807D02*
X186216000Y-112460807D01*
X177496000Y-115060807D02*
X187504000Y-115060807D01*
X183741000Y-114020807D02*
X187207000Y-114020807D01*
X178480000Y-112820807D02*
X181259000Y-112820807D01*
X183741000Y-113180807D02*
X186773000Y-113180807D01*
X180654000Y-111180807D02*
X184346000Y-111180807D01*
X177826000Y-113940807D02*
X181259000Y-113940807D01*
X183741000Y-113300807D02*
X186847000Y-113300807D01*
X178105000Y-113380807D02*
X181259000Y-113380807D01*
X183741000Y-114500807D02*
X187374000Y-114500807D01*
X180375000Y-111300807D02*
X184625000Y-111300807D01*
X177732000Y-114180807D02*
X181259000Y-114180807D01*
X179394000Y-111900807D02*
X185606000Y-111900807D01*
X177510000Y-114980807D02*
X187490000Y-114980807D01*
X183741000Y-113660807D02*
X187045000Y-113660807D01*
X180463000Y-111260807D02*
X184537000Y-111260807D01*
X183741000Y-113540807D02*
X186983000Y-113540807D01*
X183741000Y-113060807D02*
X186694000Y-113060807D01*
X180061000Y-111460807D02*
X184939000Y-111460807D01*
X177489000Y-115100807D02*
X187511000Y-115100807D01*
X177553000Y-114780807D02*
X187447000Y-114780807D01*
X177460000Y-115301807D02*
X187540000Y-115301807D01*
X178279000Y-113100807D02*
X181259000Y-113100807D01*
X183741000Y-112900807D02*
X186580000Y-112900807D01*
X177746000Y-114140807D02*
X181259000Y-114140807D01*
X177503000Y-115020807D02*
X187497000Y-115020807D01*
X177438000Y-115501807D02*
X187562000Y-115501807D01*
X183741000Y-114180807D02*
X187268000Y-114180807D01*
X183741000Y-113340807D02*
X186871000Y-113340807D01*
X177676000Y-114340807D02*
X181259000Y-114340807D01*
X177421000Y-115821807D02*
X187579000Y-115821807D01*
X178038000Y-113500807D02*
X181259000Y-113500807D01*
X183741000Y-112540807D02*
X186289000Y-112540807D01*
X177650000Y-114420807D02*
X181259000Y-114420807D01*
X183741000Y-112580807D02*
X186324000Y-112580807D01*
X179625000Y-121421453D02*
X179625000Y-120421453D01*
X178334000Y-113020807D02*
X181259000Y-113020807D01*
X177955000Y-113660807D02*
X181259000Y-113660807D01*
X179344000Y-111940807D02*
X185656000Y-111940807D01*
X178227000Y-113180807D02*
X181259000Y-113180807D01*
X177626000Y-114500807D02*
X181259000Y-114500807D01*
X178362000Y-112980807D02*
X181259000Y-112980807D01*
X177879000Y-113820807D02*
X181259000Y-113820807D01*
X179990000Y-111500807D02*
X185010000Y-111500807D01*
X178860000Y-112380807D02*
X181259000Y-112380807D01*
X183741000Y-113780807D02*
X187103000Y-113780807D01*
X183741000Y-113580807D02*
X187004000Y-113580807D01*
X183741000Y-113500807D02*
X186962000Y-113500807D01*
X177762000Y-114100807D02*
X181259000Y-114100807D01*
X177420000Y-115861807D02*
X187580000Y-115861807D01*
X177425000Y-115701807D02*
X187575000Y-115701807D01*
X179611000Y-111740807D02*
X185389000Y-111740807D01*
X183741000Y-112740807D02*
X186457000Y-112740807D01*
X177482000Y-115140807D02*
X187518000Y-115140807D01*
X183741000Y-114540807D02*
X187385000Y-114540807D01*
X183741000Y-112980807D02*
X186638000Y-112980807D01*
X177470000Y-115220807D02*
X187530000Y-115220807D01*
X178821000Y-112420807D02*
X181259000Y-112420807D01*
X177518000Y-114940807D02*
X187482000Y-114940807D01*
X179294000Y-111980807D02*
X185706000Y-111980807D01*
X177703000Y-114260807D02*
X181259000Y-114260807D01*
X178676000Y-112580807D02*
X181259000Y-112580807D01*
X178899000Y-112340807D02*
X181259000Y-112340807D01*
X177793000Y-114020807D02*
X181259000Y-114020807D01*
X177810000Y-113980807D02*
X181259000Y-113980807D01*
X177717000Y-114220807D02*
X181259000Y-114220807D01*
X183741000Y-113860807D02*
X187139000Y-113860807D01*
X177430000Y-115621807D02*
X187570000Y-115621807D01*
X177572000Y-114700807D02*
X187428000Y-114700807D01*
X183741000Y-112220807D02*
X185978000Y-112220807D01*
X179555000Y-111780807D02*
X185445000Y-111780807D01*
X183741000Y-113940807D02*
X187174000Y-113940807D01*
X178747000Y-112500807D02*
X181259000Y-112500807D01*
X178939000Y-112300807D02*
X181259000Y-112300807D01*
X183741000Y-112380807D02*
X186140000Y-112380807D01*
X180291000Y-111340807D02*
X184709000Y-111340807D01*
X183741000Y-114340807D02*
X187324000Y-114340807D01*
X178153000Y-113300807D02*
X181259000Y-113300807D01*
X179791000Y-111620807D02*
X185209000Y-111620807D01*
X183741000Y-112500807D02*
X186253000Y-112500807D01*
X183741000Y-112300807D02*
X186061000Y-112300807D01*
X177535000Y-114860807D02*
X187465000Y-114860807D01*
X179446000Y-111860807D02*
X185554000Y-111860807D01*
X177544000Y-114820807D02*
X187456000Y-114820807D01*
X178390000Y-112940807D02*
X181259000Y-112940807D01*
X178083000Y-113420807D02*
X181259000Y-113420807D01*
X177663000Y-114380807D02*
X181259000Y-114380807D01*
X177465000Y-115261807D02*
X187535000Y-115261807D01*
X183741000Y-113980807D02*
X187190000Y-113980807D01*
X183741000Y-112340807D02*
X186101000Y-112340807D01*
X179108000Y-112140807D02*
X185892000Y-112140807D01*
X183741000Y-113420807D02*
X186917000Y-113420807D01*
X183741000Y-113140807D02*
X186747000Y-113140807D01*
X183741000Y-113700807D02*
X187064000Y-113700807D01*
X177422000Y-115781807D02*
X187578000Y-115781807D01*
X177603000Y-114580807D02*
X181259000Y-114580807D01*
X183741000Y-114220807D02*
X187283000Y-114220807D01*
X179855000Y-111580807D02*
X185145000Y-111580807D01*
X177423000Y-115741807D02*
X187577000Y-115741807D01*
X178253000Y-113140807D02*
X181259000Y-113140807D01*
X177916000Y-113740807D02*
X181259000Y-113740807D01*
X178129000Y-113340807D02*
X181259000Y-113340807D01*
X178980000Y-112260807D02*
X181259000Y-112260807D01*
X178060000Y-113460807D02*
X181259000Y-113460807D01*
X179500000Y-111820807D02*
X185500000Y-111820807D01*
X180758000Y-111140807D02*
X184242000Y-111140807D01*
X181270000Y-110980807D02*
X183730000Y-110980807D01*
X183741000Y-113380807D02*
X186895000Y-113380807D01*
X177476000Y-115180807D02*
X187524000Y-115180807D01*
X183741000Y-112700807D02*
X186425000Y-112700807D01*
X177638000Y-114460807D02*
X181259000Y-114460807D01*
X177593000Y-114620807D02*
X181259000Y-114620807D01*
X180990000Y-111060807D02*
X184010000Y-111060807D01*
X183741000Y-112260807D02*
X186020000Y-112260807D01*
X178784000Y-112460807D02*
X181259000Y-112460807D01*
X177526000Y-114900807D02*
X187474000Y-114900807D01*
X179064000Y-112180807D02*
X185936000Y-112180807D01*
X179022000Y-112220807D02*
X181259000Y-112220807D01*
X178642000Y-112620807D02*
X181259000Y-112620807D01*
X177582000Y-114660807D02*
X181259000Y-114660807D01*
X183741000Y-113820807D02*
X187121000Y-113820807D01*
X177936000Y-113700807D02*
X181259000Y-113700807D01*
X183741000Y-112820807D02*
X186520000Y-112820807D01*
X177435000Y-115541807D02*
X187565000Y-115541807D01*
X178420000Y-112900807D02*
X181259000Y-112900807D01*
X187620000Y-115941807D02*
G75*
G03*
X187620000Y-115941807I-5120000J0D01*
G01*
%LPC*%
D14*
X195000000Y-105000000D03*
D15*
X153900000Y-143700000D03*
X153900000Y-145775000D03*
D16*
X162500000Y-135000000D03*
X164500000Y-135000000D03*
D17*
X160400000Y-143500000D03*
X169800000Y-143500000D03*
D18*
X159460000Y-115775000D03*
D19*
X162000000Y-106625000D03*
D18*
X164540000Y-115775000D03*
D20*
X153000000Y-128000000D03*
X151000000Y-128000000D03*
D21*
X139000000Y-138437500D03*
X139000000Y-141562500D03*
X135000000Y-138437500D03*
X135000000Y-141562500D03*
D22*
X174000000Y-139475000D03*
X174000000Y-142725000D03*
D23*
X159550000Y-128000000D03*
X156450000Y-128000000D03*
D24*
X172266450Y-118150000D03*
X172266450Y-113850000D03*
D25*
X186000000Y-129125000D03*
X186000000Y-125875000D03*
D26*
X159562500Y-132500000D03*
X156437500Y-132500000D03*
D27*
X148300000Y-145800000D03*
X143300000Y-145800000D03*
D28*
X121500000Y-136000000D03*
D29*
X121500000Y-142200000D03*
D30*
X126500000Y-139100000D03*
D31*
X155550000Y-122000000D03*
X153650000Y-122000000D03*
D32*
X134000000Y-117000000D03*
D33*
X153700000Y-139905000D03*
X153700000Y-138635000D03*
X153700000Y-137365000D03*
X153700000Y-136095000D03*
X148300000Y-136095000D03*
X148300000Y-137365000D03*
X148300000Y-138635000D03*
X148300000Y-139905000D03*
D34*
X151000000Y-138000000D03*
D35*
X174850000Y-126700000D03*
X174850000Y-129000000D03*
D36*
X181150000Y-129000000D03*
D35*
X174850000Y-131300000D03*
D37*
X159425000Y-121095000D03*
X159425000Y-122365000D03*
X159425000Y-123635000D03*
X159425000Y-124905000D03*
X164575000Y-124905000D03*
X164575000Y-123635000D03*
X164575000Y-122365000D03*
X164575000Y-121095000D03*
D38*
X168500000Y-120950000D03*
X168500000Y-124050000D03*
D22*
X185500000Y-139375000D03*
X185500000Y-142625000D03*
D39*
X105000000Y-120000000D03*
D40*
X105000000Y-125080000D03*
X105000000Y-130160000D03*
D41*
X174462500Y-134500000D03*
X176537500Y-134500000D03*
D39*
X194805000Y-118500000D03*
D40*
X194805000Y-113420000D03*
D42*
X157400000Y-138000000D03*
X157400000Y-136000000D03*
D43*
X121500000Y-108000000D03*
D44*
X121500000Y-113000000D03*
D14*
X195000000Y-145000000D03*
D45*
X164550000Y-128250000D03*
X166450000Y-128250000D03*
D39*
X194805000Y-136096000D03*
D40*
X194805000Y-131016000D03*
X194805000Y-125936000D03*
D22*
X179400000Y-139475000D03*
X179400000Y-142725000D03*
D14*
X105000000Y-105000000D03*
D21*
X143000000Y-138437500D03*
X143000000Y-141562500D03*
D46*
X149750000Y-108000000D03*
X140250000Y-108000000D03*
D43*
X182500000Y-118441807D03*
D44*
X182500000Y-113441807D03*
D14*
X105000000Y-145000000D03*
M02*
